<?xml version="1.0" encoding="UTF-8"?>
<svg id="Layer_1" xmlns="http://www.w3.org/2000/svg" viewBox="0 0 319.45 38.45">
  <defs>
    <style>
      .cls-1 {
        fill: none;
      }

      .cls-2 {
        fill: #a73cf2;
      }

      .cls-3 {
        fill: #955cf8;
      }

      .cls-4 {
        fill: #9758f7;
      }

      .cls-5 {
        fill: #a83af2;
      }

      .cls-6 {
        fill: #886bfb;
      }

      .cls-7 {
        fill: #ab34f1;
      }

      .cls-8 {
        fill: #7a74fe;
      }

      .cls-9 {
        fill: #9160f9;
      }

      .cls-10 {
        fill: #aa36f1;
      }

      .cls-11 {
        fill: #9757f7;
      }

      .cls-12 {
        fill: #ae34f1;
      }

      .cls-13 {
        fill: #ac31f1;
      }

      .cls-14 {
        fill: #9d51f5;
      }

      .cls-15 {
        fill: #9856f6;
      }

      .cls-16 {
        fill: #a73ef2;
      }

      .cls-17 {
        fill: #9d50f5;
      }

      .cls-18 {
        fill: #9859f7;
      }

      .cls-19 {
        fill: #a73ff2;
      }

      .cls-20 {
        fill: #955df8;
      }

      .cls-21 {
        fill: #955bf7;
      }

      .cls-22 {
        fill: #9b53f6;
      }

      .cls-23 {
        fill: #8a66fa;
      }

      .cls-24 {
        fill: #8b68fa;
      }

      .cls-25 {
        fill: #915ff8;
      }

      .cls-26 {
        fill: #9061f9;
      }

      .cls-27 {
        fill: #826efc;
      }

      .cls-28 {
        fill: #806efc;
      }

      .cls-29 {
        fill: #8868fb;
      }

      .cls-30 {
        fill: #8b66fa;
      }

      .cls-31 {
        fill: #a541f3;
      }

      .cls-32 {
        fill: #935ef8;
      }

      .cls-33 {
        fill: #836dfc;
      }

      .cls-34 {
        fill: #8070fc;
      }

      .cls-35 {
        fill: #9b54f6;
      }

      .cls-36 {
        fill: #9759f7;
      }

      .cls-37 {
        fill: #9955f6;
      }

      .cls-38 {
        fill: #a04af4;
      }

      .cls-39 {
        fill: #a83bf2;
      }

      .cls-40 {
        fill: #a249f4;
      }

      .cls-41 {
        fill: #a640f3;
      }

      .cls-42 {
        fill: #af3bf1;
      }

      .cls-43 {
        fill: #8f61f9;
      }

      .cls-44 {
        fill: #a445f3;
      }

      .cls-45 {
        fill: #7c72fd;
      }

      .cls-46 {
        fill: #a149f4;
      }

      .cls-47 {
        fill: #8968fa;
      }

      .cls-48 {
        fill: #a248f4;
      }

      .cls-49 {
        fill: #8074fd;
      }

      .cls-50 {
        fill: #9f4df5;
      }

      .cls-51 {
        fill: #7b73fd;
      }

      .cls-52 {
        fill: #9160f8;
      }

      .cls-53 {
        fill: #9f4cf5;
      }

      .cls-54 {
        fill: #8b67fa;
      }

      .cls-55 {
        fill: #8967fa;
      }

      .cls-56 {
        fill: #925ff8;
      }

      .cls-57 {
        fill: #9957f7;
      }

      .cls-58 {
        fill: #9958f7;
      }

      .cls-59 {
        fill: #ad31f0;
      }

      .cls-60 {
        fill: #9b52f6;
      }

      .cls-61 {
        fill: #ab37f1;
      }

      .cls-62 {
        fill: #9c52f6;
      }

      .cls-63 {
        fill: #a840f2;
      }

      .cls-64 {
        fill: #7e70fd;
      }

      .cls-65 {
        fill: #8c65fa;
      }

      .cls-66 {
        fill: #7e71fd;
      }

      .cls-67 {
        fill: #a247f4;
      }

      .cls-68 {
        fill: #ab35f1;
      }

      .cls-69 {
        fill: #945cf8;
      }

      .cls-70 {
        fill: #7974fe;
      }

      .cls-71 {
        fill: #a246f4;
      }

      .cls-72 {
        fill: #826dfc;
      }

      .cls-73 {
        fill: #925df8;
      }

      .cls-74 {
        fill: #a83cf2;
      }

      .cls-75 {
        fill: #8869fb;
      }

      .cls-76 {
        fill: #8b65fa;
      }

      .cls-77 {
        fill: #ad31f1;
      }

      .cls-78 {
        fill: #9e4df5;
      }

      .cls-79 {
        fill: #866afb;
      }
    </style>
  </defs>
  <path class="cls-4" d="M124.09,17.79c-.18.4-.61.45-1.24.67,1.76.88,3.52,1.24,4.84,2.42-.07.69-.66.67-1.11.76-.57.12-1.16.09-1.73.17-1.91-.54-3.8-1.2-5.79-1.43-.75-.19-1.51-.1-2.26-.1h-12.3c-.61,0-1.13.07-1.63.54-.72.67-1.6.55-2.46.21-.41-1.21-.06-2.46-.21-3.68-.02-5.43-.04-10.86-.08-16.29,0-.93.61-.76,1.14-.76,5.27,0,10.54,0,15.82.02.16,0,.32,0,.48-.02.12.14.1.26-.06.36-.56.29-1.17.22-1.76.22h-13.16c-1.82,0-1.84.03-1.85,1.89,0,.52,0,1.04-.02,1.55.04,1.65.05,3.31,0,4.96.03,1.48,0,2.96.02,4.44,0,.6-.04,1.28.87,1.25.83-.02.78-.66.79-1.21.03-1.48,0-2.96.02-4.44-.04-1.65-.04-3.3,0-4.94.1-.61-.32-1.41.63-1.71.42.52.33,1.14.33,1.73v11.39c0,1.53.09,1.61,1.65,1.61,3.48,0,6.95.02,10.43,0,1.92-.01,3.81-.39,5.69-.75.65.39,1.34.62,2.12.6.34,0,.85-.07.86.55h-.03Z"/>
  <path class="cls-70" d="M312,34.11c-3.5,2.58-7.45,3.81-11.78,3.86-2.78.18-5.57.04-8.35.07-2.11.02-4.22,0-6.33,0-.38,0-.8.17-1.13-.18.03-1.67.06-3.34.09-5.01-.05-.73.36-.98,1.02-1.01.88-.04,1.71,0,1.99,1.08.33,2.26.33,2.29,2.66,2.25,3.87-.07,7.74.21,11.6-.2,1.76-.19,3.46-.56,5.09-1.26.55-.23,1.08-.54,1.7-.53.74.15,1.5.03,2.24.13.52.07,1.16.04,1.22.82l-.02-.02Z"/>
  <path class="cls-70" d="M100.1,37.86c.03-1.83.06-3.65.09-5.48.89-.8,1.97-.77,2.94.07.23.49.22,1.01.2,1.53-.04.89.41,1.19,1.24,1.19,2.55,0,5.1.03,7.65,0,2.83-.05,5.66.22,8.48-.22,1.19-.19,2.28-.73,3.49-.81.73.16,1.49.02,2.22.18.49.11,1.15,0,1.29.76-2.48,2.05-5.45,2.65-8.55,2.85-.44.03-.87.05-1.31.07-2.07.17-4.14.06-6.21.07-3.47.02-6.93,0-10.4,0-.38,0-.8.17-1.13-.18v-.02h0Z"/>
  <path class="cls-18" d="M88.5,2.66c-.36.4-.83.19-1.24.19-6.63.02-13.26.02-19.9,0-.82,0-1.21.12-1.2,1.09.05,4.19.02,8.39,0,12.58,0,.58-.05,1.1.83,1.09,6.35-.04,12.7-.04,19.05-.06.45.79.22,1.61.1,2.43-2.83.15-5.66.05-8.48.06-3.43.02-6.86,0-10.29,0-.85,0-1.27.44-1.27,1.31v.36c0,1.29-1.12,1.92-2.25,1.29-.7-.39-.21-1.11-.45-1.62v-12c.58.14.5.65.53,1.04.05.82.05,1.64,0,2.47.02,1.07,0,2.15,0,3.22,0,.57.13,1.04.85,1.03s.82-.49.83-1.05c.02-1.07,0-2.15,0-3.22-.05-1.65-.04-3.29,0-4.93-.04-1.38-.05-2.77,0-4.15.16-1.32.36-1.51,1.88-1.51,5.74-.02,11.48,0,17.22,0,.8,0,1.59-.02,2.39,0,.47.02.97,0,1.34.38,0,0,.06,0,.06,0Z"/>
  <path class="cls-59" d="M302.38.45c3.49.49,6.73,1.63,9.6,3.71.17.8-.5.7-.89.72-.91.05-1.82.16-2.73.22-1.32-.31-2.52-.97-3.84-1.3-1.51-.38-3.04-.59-4.6-.56-4.05.07-8.11-.1-12.16.09-.58.18-.36.96-.88,1.18-.8.19-1.61.38-2.33-.24-.08-.96.03-1.92-.05-2.87-.07-.86.26-1.06,1.08-1.06,5.07.03,10.14.02,15.21.02.53.04,1.07-.08,1.59.08h0Z"/>
  <path class="cls-13" d="M145.43,3.84c2.6-2.33,5.84-3.06,9.14-3.63.4-.17.85.05,1.25-.17h3.47c.4.22.85,0,1.26.18,2.96.58,5.87,1.31,8.34,3.17.32.24.65.47.93.75,1.38,1.4,1.32.89.04,2.31-.49.54-.76.5-1.32.03-2.53-2.13-5.41-3.38-8.77-3.64-1.26-.1-2.51-.22-3.78-.14-.39.19-.85-.05-1.24.18-2.03.16-3.87.95-5.73,1.69-.85.15-1.71.16-2.56.08-.49-.05-1.06-.08-1.03-.81h0Z"/>
  <path class="cls-70" d="M63.37,37.89c.02-.95.04-1.91.05-2.86.16-1.15,1.41-1.73,2.38-1.11.33.21.31.5.32.82,0,.29-.1.67.4.68h21.46c.45,0,1.12-.26,1.32.23.26.65.21,1.43.02,2.12-.13.49-.69.26-1.06.26h-23.74c-.38,0-.8.14-1.15-.15h0Z"/>
  <path class="cls-43" d="M201.35,26.17c-.4-.11-.32-.9-.96-.68-.4.18-.85-.05-1.24.18-3.9,0-7.79.02-11.69-.02-.79,0-1.08.26-1.02,1-.88.53-1.76.52-2.65.01-.12-1.92-.11-3.85,0-5.77.87-.57,1.77-.45,2.67-.11.32.3.37.71.37,1.1,0,.77.38,1.07,1.12,1.05,4.02-.1,8.05.22,12.07-.23,1.31-.15,2.53-.73,3.86-.76.61.33,1.28.27,1.94.31.58.03,1.19,0,1.57.58-.83.87-1.91,1.33-3.02,1.67-.84.26-.79.62-.35,1.18-.72,1.04-1.72.63-2.66.51v-.02h0Z"/>
  <path class="cls-77" d="M200.15.45c2.87.49,5.66,1.17,7.94,3.14,0,.75-.56.77-1.07.83-.71.09-1.43-.02-2.14.12-.08,0-.17.02-.24,0-3.89-1.63-7.98-1.26-12.04-1.28-1.32,0-2.63.04-3.95-.02-1.01-.05-1.8.14-2.17,1.19-.9.36-1.8.44-2.68-.06-.08-1.37-.27-2.75.1-4.11h14.74c.48.23,1.02-.02,1.5.18h0Z"/>
  <path class="cls-8" d="M158.95,35.55c2.87.06,5.42-.97,7.87-2.35.72.05,1.43.06,2.15.09.47.02.98,0,1.22.57-1.78,1.85-4.07,2.8-6.46,3.54-1.58.49-3.2.81-4.86.82-.95.12-1.9.12-2.85,0-3.68-.1-7.03-1.21-10.11-3.2-.42-.28-.79-.64-1.18-.96-.2-.69.35-.71.74-.73.8-.05,1.59-.17,2.38-.21,1.97.91,3.9,1.92,6.09,2.29.75.13,1.49.15,2.24.16.92.17,1.85.17,2.77,0v-.02Z"/>
  <path class="cls-77" d="M88.5,2.66c-7.1,0-14.21.02-21.31-.03-.97,0-1.31.31-1.21,1.22-.82.52-1.63.54-2.44-.03-.1-.88,0-1.76-.05-2.63-.04-.63.2-.86.82-.82.6.04,1.2,0,1.8,0h21.09c.43,0,.88-.11,1.29.11.11.72.1,1.44,0,2.16v.02h0Z"/>
  <path class="cls-59" d="M100.34,4.33c0-.84.05-1.68-.03-2.51-.1-1.03.22-1.37,1.31-1.36,5.34.05,10.68,0,16.01,0,.39-.13.78-.12,1.17,0,2.21.39,4.33,1.04,6.25,2.25.17.87-.54.72-.97.76-.97.1-1.96,0-2.93.22-5.36-1.08-10.79-.51-16.18-.66-.66-.02-1.36.14-1.95-.34-.53.47-.16,1.1-.28,1.65-.79.5-1.58.51-2.38,0h-.02Z"/>
  <path class="cls-66" d="M38.91,37.82c-.82-2.44-1.83-4.82-2.41-7.34.62-.72,1.34-.79,2.53-.23.42,1.14.83,2.28,1.26,3.42,0,.03.07.03.19.09.46-1.34.91-2.67,1.37-4,.95-.31,1.86-.22,2.75.24-.86,2.63-1.73,5.26-2.59,7.89-1.04.19-2.07.34-3.1-.07h0Z"/>
  <path class="cls-66" d="M12.97,30.49c.39,1,.78,2.01,1.22,3.15.8-1,.69-2.28,1.44-3.15.8-.9,1.69-.71,2.62-.24-.73,2.17-1.44,4.35-2.19,6.51-.1.3-.24.58-.21.91-.97.76-2.06.25-3.1.3-1.01-2.35-1.69-4.81-2.4-7.25.81-.8,1.69-.74,2.62-.23Z"/>
  <path class="cls-64" d="M266.14,30.97c.42.47.84.94,1.26,1.42.64-.05.23-.53.3-.8.11-.38-.15-.89.42-1.1.84-.11,1.7-.35,2.44.31.06,2.03-.04,4.06.05,6.08.04.95-.25,1.33-1.19,1.17-.44-.08-.94.2-1.33-.22-1.6-2.05-3.21-4.1-4.81-6.15-.27-.69.28-.83.71-.94.73-.2,1.48-.21,2.16.24h-.01Z"/>
  <path class="cls-49" d="M223.2,37.87c.02-4.77.05-9.54.07-14.3.82.48.39,1.27.5,1.93.04,1.43,0,2.85.02,4.28,0,.56.1,1.04.83,1.04s.83-.48.84-1.04c.03-1.47,0-2.93.02-4.4-.04-1.72-.04-3.44,0-5.15-.04-1.18-.03-2.37,0-3.55,0-.45-.07-.98.48-1.23.02,2.8.05,5.59.07,8.39.02,4.68.02,9.35.03,14.03-.95.34-1.9.29-2.86.02v-.02h0Z"/>
  <path class="cls-29" d="M287.18,32.89c-.58-1.01-2.08-1.03-2.69-.04-.11-5.89-.11-11.78,0-17.67.61.28.49.86.5,1.34.03,1.27.04,2.54,0,3.8.02,1.08-.03,2.16.02,3.23.02.63-.23,1.51.86,1.49.99-.02.77-.83.81-1.43.04-.48-.03-.97.16-1.42.1-.23.23-.59.59-.22.19.32.23.68.23,1.04.02,2.86.02,5.73,0,8.59,0,.47.02.97-.46,1.28h-.02Z"/>
  <path class="cls-76" d="M63.43,21.39c.44.4-.23,1.44.97,1.45,1.55,0,1.67.04,1.58-1.53-.06-1.1.29-1.41,1.4-1.4,6.23.05,12.47.03,18.7.03.18.09.17.17-.02.22-6.33-.02-12.67-.02-19-.06-.68,0-.88.25-.89.91,0,1.51.13,3.03-.08,4.53.09.86,0,1.73.05,2.6.05.75-.14,1.24-.99,1.25-.78,0-1.66.17-1.71-1.03v-6.96h-.01Z"/>
  <path class="cls-29" d="M102.88,32.41c-.89-.39-1.79-.35-2.69-.03-.11-5.02-.11-10.03,0-15.05.32,1.17.05,2.37.15,3.56.64,1.04.23,2.19.35,3.28.06.56.25.91.87.89.56-.02.76-.34.79-.85.02-.32,0-.64.02-.96,0-.4,0-.81.2-1.17.12-.22.29-.4.54-.11.19.32.23.68.23,1.04.02,2.7.03,5.41,0,8.11,0,.47.02.97-.46,1.28h0Z"/>
  <path class="cls-15" d="M284.64,20.41c-.11-1.74.17-3.49-.16-5.23-.02-4.72-.03-9.43-.08-14.15,0-.94.62-.75,1.15-.75h14.75c.2,0,.4-.02.6-.02.09.03.12.08.1.17-4.98.02-9.97.07-14.95.02-1.17,0-1.56.33-1.43,1.47.09.79.03,1.59.03,2.39.59.83.31,1.78.35,2.68.03.76.04,1.52-.02,2.28.03,1.23.04,2.46,0,3.69-.03.97.14,1.66,1.32,1.6.31-.02.63.09.85.36.4,1.64.25,3.3.12,4.94-.08.98-1.3,1.19-2.64.54h0Z"/>
  <path class="cls-16" d="M308.37,4.82c.91-.21,1.83-.29,2.77-.25.34.01.73.09.84-.4,2.17,1.46,3.85,3.37,5.04,5.7-.15.72-.75.52-1.2.57-.46.05-.93.03-1.39-.04-.42-.07-.71-.32-.95-.65-1.22-1.69-2.76-3.02-4.49-4.16-.28-.18-.68-.29-.63-.76h.01Z"/>
  <path class="cls-61" d="M2.18,6.73C1.18,4.84.72,2.75.03.75c-.04-.12-.05-.34.02-.41.46-.43,2.85.1,3.04.68.65,1.98,1.28,3.97,1.91,5.95-1.16.56-2.03.49-2.83-.24h0Z"/>
  <path class="cls-71" d="M88.49.5c-7.86,0-15.72.02-23.58-.03-1.07,0-1.44.3-1.32,1.35.08.67.02,1.35.02,2.03.5.62.37,1.35.34,2.04-.04,1.03.11,1.81,1.4,1.74.24-.01.45.12.63.29v5.04c-.79.52-1.58.51-2.37,0-.1-1.19.21-2.4-.19-3.58-.02-2.75-.02-5.5-.06-8.26,0-.59.14-.86.8-.86,7.98.02,15.96,0,23.94.02.13,0,.26.13.39.19v.03Z"/>
  <path class="cls-7" d="M24.73,4.33c.36-1.19.62-2.43,1.11-3.56.41-.95,1.41-.31,2.13-.46.49-.1.78.1.94.63.41,1.38.89,2.75,1.34,4.12-1.02.63-1.98.42-2.9-.23h-.2c-.49.68-1.2.64-1.89.51-.55-.1-.82-.42-.53-1h0Z"/>
  <path class="cls-21" d="M33.93,23.53c-.8-2.32-1.6-4.64-2.41-6.96.81-.4,1.73-.19,2.56-.46.95,2.27,1.66,4.62,2.4,6.96.12,1.05-.7.91-1.3,1-.51.07-.91-.19-1.26-.54h0Z"/>
  <path class="cls-68" d="M240.06.26c1.95-.41,2.91.82,3.81,2.25.56.89,1.27,1.69,1.91,2.54-.09.08-.16.2-.28.21-1.84.21-3.69.44-5.51-.14-.14-1.62-.28-3.24.07-4.85h0Z"/>
  <path class="cls-33" d="M147.85,33.11c-.52.66-1.27.45-1.96.51-.42.04-.99-.27-1.17.43-1.89-1.28-3.31-2.96-4.32-5,.63-1.15,1.69-.75,2.65-.73,1.31,1.89,3,3.4,4.8,4.79h0Z"/>
  <path class="cls-3" d="M7.99,24.25l-2.13-6.24c.87-.84,1.81-.73,2.79-.24.87,2.11,1.59,4.27,2.17,6.48-.94.57-1.89.49-2.83,0h0Z"/>
  <path class="cls-74" d="M145.43,3.84c.24.55.72.48,1.19.5.8.05,1.63-.19,2.4.23-2.06,1.19-3.8,2.74-5.33,4.55-.66.23-1.34.16-2.01.06-.54-.09-.92-.34-.56-.98,1.03-1.85,2.39-3.38,4.31-4.35h0Z"/>
  <path class="cls-47" d="M7.99,24.25h2.83c.81,2.05,1.59,4.11,2.14,6.24-.88,0-1.77-.08-2.62.23-1.02-1.83-1.37-3.9-2.15-5.82-.09-.21-.14-.44-.21-.66h.01,0Z"/>
  <path class="cls-54" d="M33.93,23.53c.91.16,1.9.77,2.56-.46.85,2.4,1.7,4.79,2.54,7.19-.84.12-1.73-.26-2.53.23-.95-1.54-1.18-3.34-1.83-4.99-.26-.65-.49-1.31-.74-1.97h0Z"/>
  <path class="cls-65" d="M44.59,30.01c-.93.03-1.85,0-2.75-.24.71-2.08,1.43-4.16,2.14-6.24.93-.51,1.85-.54,2.78,0-.72,2.16-1.45,4.32-2.17,6.48h0Z"/>
  <path class="cls-50" d="M34.09,16.11c-.73.85-1.69.42-2.56.46-.73-2.16-1.46-4.32-2.19-6.48.82-.55,1.71-.33,2.59-.23.9,2.02,1.46,4.16,2.16,6.25h0Z"/>
  <path class="cls-33" d="M312,34.11c-.45-.58-1.1-.46-1.72-.51-.56-.04-1.18.25-1.66-.26,1.77-1.66,3.59-3.28,5.43-4.87.82.31,1.76.06,2.52.6-1.01,2.15-2.71,3.68-4.57,5.05h0Z"/>
  <path class="cls-75" d="M266.14,30.97c-.63,0-1.27-.03-1.9.01-.43.03-.88.13-.96.69-1.36-1.75-2.73-3.5-4.09-5.25.05-.63.57-.55.95-.58.65-.06,1.31-.13,1.96.07,1.5,1.57,2.74,3.33,4.04,5.06h0Z"/>
  <path class="cls-37" d="M225.96,15.44c-.29,1.57-.03,3.16-.14,4.74-.35.33-.78.36-1.23.36-.84,0-1.34-.24-1.29-1.24.08-1.59,0-3.19.03-4.78.23-.41.65-.44,1.04-.44.91,0,1.12-.5,1.11-1.29-.02-1.15-.03-2.29,0-3.44-.03-1.32-.04-2.65,0-3.97.04-1.52-.14-3.05.12-4.56.06-.14.15-.25.27-.34.05.11.14.21.14.32,0,4.88-.03,9.76-.05,14.65h0Z"/>
  <path class="cls-25" d="M223.44,14.41c0,1.44.07,2.88-.03,4.32-.08,1.15.28,1.64,1.45,1.45.31-.05.64,0,.96,0v5.28c-.79.5-1.58.5-2.38,0-.09-.62.16-1.28-.16-1.88V5.31c.07,0,.15.02.22.03.04.06.09.12.13.18.33,1.31.12,2.63.16,3.95.06,1.2.02,2.4.02,3.6,0,.48,0,.97-.36,1.36v-.02h-.01Z"/>
  <path class="cls-2" d="M239.99,5.05h5.79c.61.68,1.25,1.34,1.68,2.16-1.11.61-2.23.52-3.35,0-.34-.4-.69-.79-1.03-1.19-.59.14-.25.61-.32.93-.15.62.3,1.35-.31,1.9-.85.19-1.7.34-2.5-.19-.07-1.2-.17-2.41.05-3.61h0Z"/>
  <path class="cls-26" d="M262.1,25.92c-.89.61-2.03-.13-2.92.51-1.28-1.46-2.47-2.98-3.6-4.57.19-.83.91-.71,1.48-.8.46-.08.94-.03,1.4.08,1.23,1.58,2.55,3.08,3.63,4.78,0,0,.01,0,.01,0Z"/>
  <path class="cls-14" d="M8.65,17.77c-.93.04-1.89-.14-2.79.24-.65-1.92-1.3-3.84-1.95-5.76.9-.57,1.86-.34,2.82-.23.84,1.85,1.34,3.81,1.92,5.75h0Z"/>
  <path class="cls-36" d="M258.47,21.14c-.88.55-2.07-.13-2.88.72-1.2-1.52-2.4-3.05-3.59-4.57.03-.65.55-.69,1-.76.55-.08,1.1-.11,1.64-.22,1.28,1.61,2.55,3.22,3.83,4.83h0Z"/>
  <path class="cls-50" d="M314.16,10.09c.95-.11,1.94.25,2.86-.23,1.05,1.78,1.76,3.67,1.92,5.75-.86.44-1.74.59-2.66.18-.69-1.9-1.71-3.69-2.12-5.7h0Z"/>
  <path class="cls-62" d="M124.09,17.79c-.54-.49-1.2-.13-1.78-.27-.37-.09-1.06.16-.87-.67,1.68-1.2,3.17-2.59,4.32-4.31.04-.05.14-.05.22-.08.81-.03,1.64-.29,2.38.27-.59,2.39-2,4.08-4.27,5.06h0Z"/>
  <path class="cls-44" d="M128.36,12.73c-.88,0-1.77,0-2.65-.01-.05-.06-.13-.13-.12-.2.13-1.77-.04-3.53-.17-5.29.8-.81,1.78-.61,2.75-.51.69,1.27.59,2.68.7,4.05-.24.38.02.85-.19,1.24-.1.24-.21.48-.31.73h0Z"/>
  <path class="cls-72" d="M63.43,28.35c.41,1.13,1.37.7,2.1.65.78-.05.43-.79.47-1.24.07-.74.06-1.49.09-2.23.21,2.66.03,5.31.1,7.97,0,.59.04,1.19.07,1.78.08.05.11.1.09.15-.02.06-.05.08-.07.08-.34-.67-.23-1.66-1.56-1.49-.76.1-1.11.32-1.28.99v-6.68.02h0Z"/>
  <path class="cls-46" d="M141.13,8.19c-.06.62.31.71.82.71.59,0,1.2-.14,1.75.21-.94,1.45-1.77,2.96-2.38,4.59-.58.82-1.36.61-2.11.38-.5-.15-.78-.52-.47-1.08.39-1.81,1.19-3.41,2.4-4.81h0Z"/>
  <path class="cls-45" d="M186.44,31.93l.04,5.98c-.73.3-1.49.08-2.23.13-.53.04-.53-.35-.52-.72.03-1.79-.06-3.57.05-5.36.88-.58,1.77-.55,2.67-.03h0Z"/>
  <path class="cls-44" d="M6.73,12.02c-.91.48-1.88.11-2.82.23-.58-1.84-1.15-3.68-1.73-5.52.91.46,1.89.15,2.83.24.57,1.68,1.14,3.37,1.71,5.05,0,0,.01,0,0,0h0Z"/>
  <path class="cls-35" d="M212.15,11.06c.58,2.79.12,5.41-1.24,7.9-.95.12-1.93.4-2.71-.48.69-2.18.96-4.44,1.24-6.69.66-.04.57.51.64.88.12.54.45.68.94.67.55-.01.75-.32.79-.83.04-.5-.08-1.04.34-1.45h0Z"/>
  <path class="cls-65" d="M143.05,28.31c-.79.56-1.91-.03-2.65.73-1.35-1.59-1.8-3.54-2.19-5.51.88-.21,1.79,0,2.67-.24.59,1.73,1.26,3.43,2.17,5.02Z"/>
  <path class="cls-7" d="M267.91.27h2.49c.38,1.91.16,3.84.12,5.76-.9.53-1.8.51-2.71.03-.08-1.93-.28-3.86.11-5.78h0Z"/>
  <path class="cls-39" d="M204.95,4.36c.58-.53,1.28-.19,1.93-.26.47-.05.97.04,1.21-.52,1.67,1.12,2.71,2.7,3.35,4.58,0,.62-.52.51-.87.55-.51.06-1.03.14-1.55.11-1.39-1.46-2.63-3.06-4.08-4.47h0Z"/>
  <path class="cls-9" d="M124.81,21.61c.89-.52,2.07.09,2.89-.74,1.64,1.4,2.77,3.06,2.83,5.3-.84.48-1.71.47-2.6.18-.32-.28-.42-.67-.53-1.05-.36-1.18-.98-2.16-2.01-2.88-.27-.19-.67-.34-.58-.81Z"/>
  <path class="cls-20" d="M140.88,23.29c-.82.87-1.75.49-2.67.24-.34-.35-.04-.83-.25-1.21-.2-.39.05-.85-.19-1.24l.09-4.23c.38.05.37.38.41.63.07.45.14.87.73.92.6.05,1.01-.12,1.17-.75.05-.19.15-.37.41-.35-.03,2-.04,4,.29,5.98h.01Z"/>
  <path class="cls-51" d="M209.77,37.96c-.97-1.36-1.93-2.73-2.9-4.09.47-.97,1.29-1.12,2.67-.5,1.27,1.31,2.09,2.97,3.3,4.33.07.27-.09.35-.3.34-.92-.03-1.85.11-2.77-.08h0Z"/>
  <path class="cls-3" d="M46.76,23.53h-2.78c.71-1.91,1.13-3.94,2.11-5.76.7.53,1.66.2,2.36.72-.45,1.72-1.04,3.39-1.69,5.04Z"/>
  <path class="cls-10" d="M128.17,6.72c-.81.53-1.8.04-2.63.49-.56-.17-.72-.71-1.03-1.11-.67-.88-1.6-1.42-2.54-1.95-.33-.19-.78-.25-.83-.75.91-.36,1.87-.24,2.82-.28.39,0,.92.22,1.08-.42,1.61.9,2.67,2.22,3.13,4.02h0Z"/>
  <path class="cls-19" d="M24.73,4.33c-.04.93.65.68,1.16.72.44.03.87-.02,1.27-.23-.66,1.84-1.33,3.67-1.99,5.51-1.29.61-2.04.47-2.51-.46.54-1.54,1.1-3.07,1.6-4.63.11-.35.25-.64.47-.92h0Z"/>
  <path class="cls-24" d="M18.24,30.25c-.87.09-1.78-.21-2.62.24.55-2.13,1.18-4.23,2.15-6.22.53.75,1.53.44,2.16.94-.42,1.73-.99,3.4-1.7,5.03h.01Z"/>
  <path class="cls-40" d="M47.54,13.48c.37-1.68.84-3.31,1.67-4.83.87-.1,1.73-.17,2.6,0-.53,1.79-1.04,3.59-1.86,5.28-.55.44-1.18.4-1.81.29-.36-.07-.84-.14-.59-.74h0Z"/>
  <path class="cls-69" d="M208.29,18.48c.81.53,1.81-.03,2.62.47-.75,1.68-1.93,2.96-3.53,3.86-.8-.3-1.63-.25-2.45-.25-.37,0-.83.13-.93-.45,1.17-1.18,2.68-1.97,3.7-3.31.14-.18.31-.38.59-.32h0Z"/>
  <path class="cls-50" d="M22.66,9.87c.7.89,1.68.28,2.51.46-.56,1.78-1.13,3.56-1.87,5.28-.64.47-1.31.45-1.95.07-.38-.23-.43-.62-.2-1.01.38-1.64.95-3.21,1.52-4.79h-.01,0Z"/>
  <path class="cls-16" d="M31.93,9.86c-.83.49-1.73.11-2.59.23-.72-1.73-1.06-3.61-1.98-5.27.95.31,1.93.22,2.9.23.75,1.54,1.12,3.21,1.68,4.81,0,0-.01,0-.01,0Z"/>
  <path class="cls-32" d="M168.3,23.07c-.02-.39-.04-.79-.04-1.18,0-1.69.84-2.58,2.53-2.66.46.72.16,1.51.19,2.27.05,1.06.06,2.12-.02,3.19-.51.54-1.16.4-1.78.36-.55-.04-.87-.31-.83-.92.02-.35.05-.71-.06-1.06h0Z"/>
  <path class="cls-57" d="M21.14,14.66c-.05.71.31.98.99.95.39-.02.78,0,1.17,0-.38,1.75-1.12,3.37-1.72,5.04-1.22.55-1.8.44-2.36-.48.52-1.88.99-3.78,1.92-5.51Z"/>
  <path class="cls-79" d="M186.44,31.93h-2.61c-.17-1.76-.17-3.52,0-5.28h2.61v5.28Z"/>
  <path class="cls-48" d="M208.84,8.65c.81-.46,1.8.04,2.6-.48.49.9.74,1.87.71,2.9v1.19c0,1.52,0,1.49-1.52,1.46-.68-.01-.93-.26-.88-.92.02-.34.09-.72-.18-1.02-.65-.95-.88-1.99-.73-3.12h0Z"/>
  <path class="cls-17" d="M254.64,16.31c-.1.66-.62.48-1.02.49-.59.02-1.2-.04-1.63.49-1.09-1.32-2.26-2.59-3.12-4.09.2-.79.87-.51,1.37-.57.51-.07,1.03-.08,1.53.09,1.13,1.06,1.88,2.42,2.86,3.59h.01Z"/>
  <path class="cls-22" d="M140.59,17.31c-.38.49.1,1.41-1.18,1.49-1.78.11-1.26-1.13-1.54-1.95.09-1.33.21-2.65.87-3.86.33,1.02,1.04,1.21,2.58.7-.29,1.19-.66,2.37-.73,3.61h0Z"/>
  <path class="cls-34" d="M127.69,35.05c-.66-.41-1.39-.48-2.14-.49-.42,0-.88.16-1.22-.25-.06-.29.14-.43.33-.57,1.02-.71,1.86-1.58,2.47-2.66.18-.32.43-.56.81-.64.81-.03,1.65-.29,2.4.28-.28,1.81-1.26,3.19-2.64,4.32h0Z"/>
  <path class="cls-72" d="M170.18,33.86c-.66-.39-1.39-.21-2.09-.25-.46-.02-.97.1-1.28-.41,1.47-.68,1.58-1.94,1.44-3.33-.05-.5.02-1.02.04-1.53.62.3,1.19.71,1.94.66.3-.02.63.06.75.44-.05,1.31.12,2.61-.09,3.91-.24.17-.48.33-.72.5h0Z"/>
  <path class="cls-30" d="M316.57,29.06c-.91-.05-1.87.17-2.67-.49-.16-.34,0-.62.16-.89.59-.95.99-1.98,1.39-3.01.12-.31.14-.74.65-.71.67.62,1.67.22,2.36.77-.27,1.6-.91,3.04-1.9,4.33,0,0,.01,0,.01,0Z"/>
  <path class="cls-58" d="M316.34,15.61c.87.28,1.74-.15,2.6,0,.26.18.19.48.28.73.21.48-.06,1.01.18,1.49v2.52c-.09.12-.21.21-.34.28-.38.15-.77.14-1.16.13-1.12-.04-1.37-.28-1.44-1.4-.03-.43-.02-.86-.16-1.28,0-.82-.56-1.65.03-2.46h.01Z"/>
  <path class="cls-6" d="M130.33,30.73h-2.66c-.15-.15-.23-.35-.19-.54.35-1.32-.08-2.73.49-4.02h2.56c.49,1.54.39,3.06-.19,4.56h0Z"/>
  <path class="cls-35" d="M47.54,13.48c.65.95,1.62.21,2.4.45-.34,1.57-.91,3.06-1.49,4.55h-1.5c-.49,0-.82-.19-.86-.72.26-1.5.92-2.88,1.45-4.29h0Z"/>
  <path class="cls-27" d="M209.54,33.36c-.88.21-1.93-.46-2.67.5-1.02-1.32-2.07-2.61-2.87-4.09.77-.74,1.72-.57,2.64-.49,1.02,1.32,2.1,2.6,2.9,4.09h0Z"/>
  <path class="cls-52" d="M19.21,20.17c.67.74,1.56.4,2.36.48-.43,1.56-.91,3.11-1.63,4.56-.43,0-.86-.01-1.28,0-.65.02-.93-.31-.88-.93.3-1.43.69-2.83,1.43-4.1h0Z"/>
  <path class="cls-1" d="M66.26,35.52c-.03-.08-.04-.15-.02-.23,7.32,0,14.64.03,21.95-.03,1.2,0,1.37.44,1.35,1.46,0,.97-.08,1.49-1.33,1.48-7.88-.06-15.76-.03-23.63-.04-.41,0-.89.18-1.22-.27,5.91.02,11.82.04,17.73.05,2.4,0,4.79-.05,7.19.03,1.04.03,1.05-.48,1.04-1.23,0-.73.04-1.26-1.02-1.25-7.35.05-14.7.03-22.05.04h.01Z"/>
  <path class="cls-74" d="M51.8,8.66c-.87.33-1.73.41-2.6,0,.29-1.76,1.1-3.36,1.68-5.03.56.98,1.58.44,2.36.71-.48,1.44-.96,2.88-1.45,4.32h0Z"/>
  <path class="cls-56" d="M316.6,18.01c.04.07.1.13.12.2.26.69-.37,1.68.39,2.08.57.3,1.4.1,2.11.13.11.47.12.94,0,1.41-.32.95-.25,2-.76,2.89h-1.54c-.51,0-.83-.21-.87-.74-.25-.72.17-5.32.55-5.97h0Z"/>
  <path class="cls-23" d="M170.84,29.29c-.39,0-.78-.05-1.16.01-.8.14-1.21-.21-1.38-.95v-5.28c.3,1.11,1.15,1.66,2.54,1.66.25,1.52.25,3.04,0,4.56h0Z"/>
  <path class="cls-48" d="M251.77,12.72c-.89.6-2.01-.11-2.9.49-1.04-1-1.91-2.12-2.64-3.36.2-.79.87-.51,1.37-.57.51-.07,1.03-.08,1.53.09,1.05.99,1.85,2.17,2.64,3.36h0Z"/>
  <path class="cls-47" d="M206.64,29.27c-.82.47-1.79.19-2.64.49-1.04-1.09-1.84-2.35-2.66-3.59.83-.47,1.85.05,2.66-.51,1.04,1.08,1.83,2.35,2.63,3.61h0Z"/>
  <path class="cls-12" d="M53.25,4.34c-.45.31-.97.19-1.46.24-.74.07-.98-.28-.89-.95.03-.99.56-1.85.81-2.78.13-.49,2.18-.82,2.61-.47.31.26.14.56.03.86-.37,1.03-.73,2.07-1.09,3.1,0,0,0,0-.01,0Z"/>
  <path class="cls-1" d="M239.99,5.05v3.6c.65.94.29,2,.37,3.01.04.51.02,1.03-.02,1.54.04,1.84.04,3.68,0,5.52.04,1.99.05,3.99,0,5.98.04,1.68.04,3.35,0,5.03.03,1.48.04,2.96,0,4.44,0,.68.03,1.36,0,2.03-.05.91.21,1.48,1.25,1.4.32-.02.64.03.92.2.05.05.09.1.14.14-.78.47-1.63.17-2.45.2-.35.02-.44-.29-.44-.59V1.7c0-.48-.25-1.05.3-1.44-.24,1.59-.11,3.19-.07,4.79h0Z"/>
  <path class="cls-1" d="M183.83,26.65v5.28c0,1.64.02,3.28-.06,4.91-.05.93.28,1.22,1.16,1.11.51-.06,1.04-.03,1.55-.04-.76.54-1.62.18-2.43.23-.35.02-.44-.29-.44-.59V1.7c0-.48-.25-1.05.3-1.44-.26,1.35-.11,2.71-.08,4.07.47.53.39,1.19.39,1.81,0,1.15.04,2.3-.02,3.45.04,1.85.04,3.69,0,5.54.06,1.47.02,2.94.02,4.41,0,.48-.03.96-.39,1.34v5.76h0,0Z"/>
  <path class="cls-1" d="M270.46,6.01c.04-1.92.16-3.83-.06-5.75.46.25.3.7.3,1.07v35.66c0,1.27-1.21,1.65-2.62.83,1.61.25,2.42-.4,2.42-1.96,0-1.71-.03-3.43-.04-5.14-.5-.62-.36-1.35-.36-2.05-.01-1.07-.04-2.13.02-3.2-.04-1.6-.04-3.21,0-4.81-.04-1.6-.04-3.2,0-4.8-.04-1.6-.04-3.21,0-4.81-.06-1.23-.02-2.46-.02-3.69,0-.48.02-.96.36-1.35Z"/>
  <path class="cls-41" d="M249.14,9.36c-.89.6-2.01-.11-2.9.49-.83-.78-1.51-1.68-2.12-2.64h3.35c.69.61,1.21,1.37,1.68,2.16h-.01Z"/>
  <path class="cls-1" d="M267.91.27c-.18,1.91-.08,3.83-.05,5.74.58.86.29,1.84.34,2.77.04.75.04,1.5-.02,2.25.04,1.6.04,3.2,0,4.81.04,1.6.04,3.2,0,4.8.04,1.61.04,3.21,0,4.82.06,1.31.02,2.61.02,3.92,0,.48,0,.96-.34,1.35-.02.59.06,1.21-.08,1.77-.12.46-.28.04-.38-.11.35-.42.19-.92.19-1.38.01-9.81,0-19.62.02-29.43,0-.44-.23-.98.31-1.31,0,0-.01,0-.01,0Z"/>
  <path class="cls-1" d="M242.6,8.65c0-.88.02-1.76.05-2.63,0-.16-.06-.46.28-.29.08.04.1.2.15.3-.37.42-.2.92-.2,1.38,0,9.72,0,19.44-.02,29.16,0,.46.17.97-.22,1.37l-.03-.02c-.67-1.14-.26-2.39-.34-3.59-.04-1.52-.04-3.04,0-4.56-.04-1.68-.04-3.36,0-5.04-.04-1.99-.05-3.99,0-5.98-.04-1.84-.04-3.68,0-5.52.1-1.52-.36-3.09.32-4.57h0Z"/>
  <path class="cls-1" d="M100.1,37.86c2.91.03,5.83.06,8.74.08,3,.02,5.99.02,8.99.03-.3.29-.67.2-1.02.2h-15.64c-.37,0-.82.16-1.07-.3h0Z"/>
  <path class="cls-1" d="M284.4,37.86c3.67.03,7.35.06,11.02.08,1.6,0,3.2.02,4.79.03-.29.3-.67.2-1.02.2h-13.73c-.37,0-.82.16-1.07-.3h.01Z"/>
  <path class="cls-1" d="M170.84,29.29v-4.56c.03-1.83.14-3.67-.06-5.5.39.16.33.5.33.81v12.67c0,.24,0,.48-.22.65-.02-1.36-.04-2.71-.06-4.07h0Z"/>
  <path class="cls-63" d="M223.43,5.29s-.1,0-.16.01c-.02-1.27.02-2.55-.07-3.82-.06-.92.2-1.36,1.18-1.19.5.08,1.03-.16,1.5.18l-.07.04c-.12.1-.25.19-.41.23-1.61.43-1.58.43-1.63,2.16-.02.8.24,1.67-.35,2.39h.01Z"/>
  <path class="cls-1" d="M209.77,37.96c1.02-.18,2.09.3,3.07-.26.18.14.27.4,0,.41-1.03.04-2.07.28-3.08-.15h0Z"/>
  <path class="cls-1" d="M12.75,37.98c1.02-.2,2.11.27,3.1-.3-.06.59-.52.52-.9.48-.73-.06-1.5.21-2.2-.18h0Z"/>
  <path class="cls-1" d="M38.91,37.82c1.03.22,2.06.11,3.1.07-1.04.39-2.08.53-3.1-.07Z"/>
  <path class="cls-1" d="M156.01,38.21h2.85c-.95.32-1.9.32-2.85,0Z"/>
  <path class="cls-1" d="M223.2,37.87c.95.1,1.9.13,2.86-.02-.95.52-1.9.48-2.86.02Z"/>
  <path class="cls-1" d="M86.06,20.15c.03-.07.03-.15.02-.22.14-.8.16-1.59-.02-2.38.55.87.55,1.74,0,2.6Z"/>
  <path class="cls-1" d="M158.95,35.55c-.92.28-1.84.28-2.77,0h2.77Z"/>
  <path class="cls-1" d="M300.99.45c-.03-.06-.06-.12-.09-.17.5.04,1.02-.19,1.48.18h-1.39Z"/>
  <path class="cls-1" d="M200.15.45c-.51,0-1.02.07-1.5-.18.5.03,1.04-.19,1.5.18Z"/>
  <path class="cls-1" d="M319.41,17.83c-.27-.47-.19-.98-.18-1.49.38.46.15.99.18,1.49Z"/>
  <path class="cls-1" d="M319.23,21.84v-1.41c.06-.02.12-.04.18-.07-.03.5.19,1.03-.18,1.48Z"/>
  <path class="cls-1" d="M137.78,21.08c.25.38.2.81.19,1.24-.35-.37-.16-.82-.19-1.24Z"/>
  <path class="cls-1" d="M128.67,12c0-.42-.04-.85.19-1.24-.03.42.17.87-.19,1.24Z"/>
  <path class="cls-1" d="M154.75,2.88c.38-.26.81-.21,1.24-.18-.37.34-.82.16-1.24.18Z"/>
  <path class="cls-1" d="M199.14,25.67c.39-.25.82-.2,1.24-.18-.37.34-.82.15-1.24.18Z"/>
  <path class="cls-1" d="M155.82.03c-.39.22-.82.2-1.25.17.38-.33.83-.15,1.25-.17Z"/>
  <path class="cls-1" d="M160.55.21c-.43.02-.86.06-1.26-.18.42.02.88-.17,1.26.18Z"/>
  <path class="cls-1" d="M118.79.45h-1.17c-.03-.06-.06-.12-.1-.18.43,0,.88-.17,1.26.17h.01,0Z"/>
  <path class="cls-1" d="M127.97,26.17c.16,1.54.07,3.05-.3,4.56-.69,1.59-1.86,2.73-3.35,3.59-2.64,1.04-5.39,1.29-8.2,1.26-4.02-.05-8.05-.04-12.08,0-.91,0-1.21-.26-1.12-1.15.06-.67-.02-1.35-.04-2.03v-10.52c-.35-1.54-.15-1.83,1.25-1.83h14.07c.36,0,.72-.05,1.07.07,1.92.2,3.78.65,5.54,1.49,1.73,1.05,2.76,2.58,3.16,4.56h0Z"/>
  <path class="cls-1" d="M121.14,3.4c1.85.83,3.51,1.88,4.4,3.81.57,1.82.6,3.66.17,5.51-.8,2.01-2.32,3.3-4.27,4.13-2.31.73-4.68.9-7.09.89-3.48-.03-6.95-.01-10.43,0-.56,0-1.01.02-1-.78.05-4.75.05-9.51.07-14.26h12.94c1.77,0,3.48.35,5.2.72v-.02h0Z"/>
  <path class="cls-25" d="M119.27,20.12c-4.82,0-9.63-.01-14.45-.02-1.21,0-1.85.59-1.94,1.78-.33.88-.15,1.8-.14,2.7.02,1.05-.67.85-1.28.87-.63.02-1.19.05-1.15-.88.06-1.22.02-2.45.02-3.68h1.56c.2,0,.53.01.57-.08.6-1.5,1.89-.83,2.87-.85,4.23-.07,8.45-.03,12.68-.02.42,0,.88-.14,1.26.19h0Z"/>
  <path class="cls-38" d="M102.72,9.37c0,1.71-.03,3.42.02,5.12.03,1.05-.66.86-1.27.88-.63.02-1.18.05-1.15-.88.06-1.71.02-3.42.03-5.12.79-.5,1.58-.5,2.37,0Z"/>
  <path class="cls-2" d="M102.72,9.37h-2.37v-5.04h2.38v5.04s-.01,0,0,0h0Z"/>
  <path class="cls-1" d="M316.6,18.01c.03,2.01-.14,4-.55,5.97-.57,1.6-1.26,3.14-2.15,4.59-1.42,1.96-3.25,3.48-5.29,4.77-3.58,1.81-7.41,2.26-11.36,2.18-2.91-.06-5.82-.06-8.73.02-1.08.03-1.44-.3-1.3-1.34.06-.43-.03-.87-.05-1.31v-11c-.16-.19-.26-.43-.23-.66.59-4.65-.27-9.29-.05-13.94.07-1.47.15-2.93.34-4.38,5.62.07,11.25-.52,16.85.43,1.51.26,2.87.93,4.28,1.48,2.28,1.37,4.27,3.07,5.79,5.27.98,1.74,1.73,3.57,2.18,5.52.09.8.18,1.6.27,2.4h0Z"/>
  <path class="cls-60" d="M63.61,12.97h2.37c0,1.23-.02,2.46.04,3.69.05.93-.52.91-1.15.88-.61-.02-1.32.18-1.27-.87.05-1.23,0-2.46,0-3.69h0Z"/>
  <path class="cls-5" d="M65.97,7.92c-1.57.02-2.36-.74-2.37-2.28v-1.79h2.36v4.08h.01Z"/>
  <path class="cls-25" d="M287.24,2.91c-.02,6.33-.04,12.65-.06,18.98-.33.88-.15,1.8-.14,2.7.02,1.06-.68.84-1.29.87-.63.03-1.18.04-1.15-.88.06-1.38.02-2.77.03-4.16,1.59,0,2.39-.8,2.39-2.4v-3.12c-.46-.54-.36-1.2-.37-1.82,0-1.23-.04-2.46.02-3.69-.06-1.23-.02-2.47-.02-3.7,0-.48.02-.96.37-1.35.09-.47-.17-1,.22-1.43Z"/>
  <path class="cls-2" d="M287.02,4.33v5.04c-.79.5-1.59.51-2.38,0v-5.04h2.38Z"/>
  <path class="cls-1" d="M208.84,8.65c.33,1.02.59,2.06.73,3.12.1,2.34-.16,4.61-1.28,6.71-1.13,1.57-2.55,2.79-4.29,3.63-3.13,1.15-6.38,1.2-9.66,1.15-2.19-.03-4.39-.07-6.57.02-1.07.04-1.46-.27-1.3-1.32.05-.35-.02-.71-.03-1.07-.43-.55-.33-1.2-.33-1.83,0-1.3-.04-2.61.02-3.91-.04-1.84-.04-3.69,0-5.53-.06-1.31-.02-2.62-.02-3.93,0-.48,0-.96.33-1.36-.2-1.29.41-1.55,1.6-1.52,2.91.09,5.83.07,8.75.02,2.83-.05,5.56.34,8.16,1.53,1.68,1.08,3.04,2.45,3.89,4.29h0Z"/>
  <path class="cls-37" d="M186.44,15.13v5.76h-2.61v-5.76c.87-.5,1.74-.54,2.61,0Z"/>
  <path class="cls-2" d="M186.44,4.33v5.28c-.87.55-1.74.5-2.61,0v-5.28s2.61,0,2.61,0Z"/>
  <path class="cls-29" d="M267.86,30.73v-5.28c.87-.53,1.73-.51,2.6,0v5.28h-2.6Z"/>
  <path class="cls-29" d="M223.44,25.45h2.38c0,1.63-.03,3.25.03,4.88.04,1.05-.66.86-1.27.88-.63.02-1.18.05-1.15-.88.05-1.62.02-3.25.02-4.88h-.01Z"/>
  <path class="cls-38" d="M284.64,9.37h2.38v5.52c-1.59,0-2.39-.78-2.39-2.33,0-1.06,0-2.13.01-3.19Z"/>
  <path class="cls-46" d="M223.44,14.41v-5.04c.79-.5,1.58-.5,2.37,0,0,1.26-.04,2.52.03,3.78.06.95-.2,1.42-1.23,1.28-.39-.05-.79-.01-1.18-.01h0Z"/>
  <path class="cls-42" d="M223.43,5.29c0-1.2.06-2.4,0-3.59-.05-.93.23-1.35,1.2-1.21.39.05.8.02,1.2.03v4.78c-.79.51-1.59.5-2.38,0h-.02,0Z"/>
  <path class="cls-63" d="M223.44,5.3h2.38v4.08h-2.37v-4.07h-.01Z"/>
  <path class="cls-67" d="M242.6,8.65v4.56c-.87.54-1.74.51-2.61,0v-4.56h2.61Z"/>
  <path class="cls-31" d="M267.86,11.05v-5.04h2.6v5.04c-.87.51-1.73.53-2.6,0Z"/>
  <path class="cls-73" d="M242.6,18.73v6c-.87.54-1.74.51-2.61,0v-6c.87-.51,1.74-.54,2.6,0h0Z"/>
  <path class="cls-60" d="M242.6,18.73h-2.6v-5.52h2.61v5.52h0Z"/>
  <path class="cls-55" d="M239.99,24.73h2.61v5.04c-.87.54-1.74.51-2.61,0v-5.04Z"/>
  <path class="cls-28" d="M239.99,29.77h2.61v4.56c-.87.54-1.74.51-2.61,0v-4.56Z"/>
  <path class="cls-70" d="M239.99,34.33h2.61c0,1.2.02,2.39.03,3.59-1.79.05-2.68-.83-2.67-2.64,0-.32.03-.64.04-.95h0Z"/>
  <path class="cls-53" d="M183.83,9.61h2.61v5.52h-2.61s0-5.52,0-5.52Z"/>
  <path class="cls-78" d="M267.86,11.05h2.6v4.8c-.87.51-1.73.53-2.6,0v-4.8Z"/>
  <path class="cls-25" d="M270.46,25.45h-2.6v-4.8c.87-.53,1.73-.51,2.6,0v4.8Z"/>
  <path class="cls-11" d="M270.46,20.65h-2.6v-4.8h2.6v4.8Z"/>
</svg>