<?xml version="1.0" encoding="UTF-8"?>
<svg id="Layer_1" xmlns="http://www.w3.org/2000/svg" viewBox="0 0 504 360">
  <defs>
    <style>
      .cls-1 {
        fill: none;
      }

      .cls-2 {
        fill: #5350e5;
      }

      .cls-3 {
        fill: #642ad2;
      }

      .cls-4 {
        fill: #a73cf2;
      }

      .cls-5 {
        fill: #6525d0;
      }

      .cls-6 {
        fill: #aea2ed;
      }

      .cls-7 {
        fill: #df68f8;
      }

      .cls-8 {
        fill: #955cf8;
      }

      .cls-9 {
        fill: #9758f7;
      }

      .cls-10 {
        fill: #a83af2;
      }

      .cls-11 {
        fill: #be94f0;
      }

      .cls-12 {
        fill: #886bfb;
      }

      .cls-13 {
        fill: #661bcd;
      }

      .cls-14 {
        fill: #ab34f1;
      }

      .cls-15 {
        fill: #7a74fe;
      }

      .cls-16 {
        fill: #97b2e9;
      }

      .cls-17 {
        fill: #ca87f3;
      }

      .cls-18 {
        fill: #9160f9;
      }

      .cls-19 {
        fill: #aa36f1;
      }

      .cls-20 {
        fill: #346bf5;
      }

      .cls-21 {
        fill: #dd6cf7;
      }

      .cls-22 {
        fill: #9757f7;
      }

      .cls-23 {
        fill: #2c6ff8;
      }

      .cls-24 {
        fill: #ae34f1;
      }

      .cls-25 {
        fill: #495cec;
      }

      .cls-26 {
        fill: #ac31f1;
      }

      .cls-27 {
        fill: #9d51f5;
      }

      .cls-28 {
        fill: #6036d7;
      }

      .cls-29 {
        fill: #6620cf;
      }

      .cls-30 {
        fill: #5e3cda;
      }

      .cls-31 {
        fill: #c68cf2;
      }

      .cls-32 {
        fill: #b39eee;
      }

      .cls-33 {
        fill: #d07ff4;
      }

      .cls-34 {
        fill: #574be2;
      }

      .cls-35 {
        fill: #6524d0;
      }

      .cls-36 {
        fill: #9856f6;
      }

      .cls-37 {
        fill: #cf80f4;
      }

      .cls-38 {
        fill: #a73ef2;
      }

      .cls-39 {
        fill: #9d50f5;
      }

      .cls-40 {
        fill: #9859f7;
      }

      .cls-41 {
        fill: #5c42dd;
      }

      .cls-42 {
        fill: #4a5beb;
      }

      .cls-43 {
        fill: #a4aaeb;
      }

      .cls-44 {
        fill: #d37bf5;
      }

      .cls-45 {
        fill: #b999ef;
      }

      .cls-46 {
        fill: #a73ff2;
      }

      .cls-47 {
        fill: #955df8;
      }

      .cls-48 {
        fill: #955bf7;
      }

      .cls-49 {
        fill: #5a46df;
      }

      .cls-50 {
        fill: #2971f9;
      }

      .cls-51 {
        fill: #3d66f2;
      }

      .cls-52 {
        fill: #9b53f6;
      }

      .cls-53 {
        fill: #8a66fa;
      }

      .cls-54 {
        fill: #8b68fa;
      }

      .cls-55 {
        fill: #aaa6ec;
      }

      .cls-56 {
        fill: #915ff8;
      }

      .cls-57 {
        fill: #9061f9;
      }

      .cls-58 {
        fill: #826efc;
      }

      .cls-59 {
        fill: #806efc;
      }

      .cls-60 {
        fill: #dc6df7;
      }

      .cls-61 {
        fill: #8868fb;
      }

      .cls-62 {
        fill: #8b66fa;
      }

      .cls-63 {
        fill: #4262f0;
      }

      .cls-64 {
        fill: #a541f3;
      }

      .cls-65 {
        fill: #935ef8;
      }

      .cls-66 {
        fill: #e45df9;
      }

      .cls-67 {
        fill: #836dfc;
      }

      .cls-68 {
        fill: #8070fc;
      }

      .cls-69 {
        fill: #9b54f6;
      }

      .cls-70 {
        fill: #465fed;
      }

      .cls-71 {
        fill: #9759f7;
      }

      .cls-72 {
        fill: #e950fa;
      }

      .cls-73 {
        fill: #c68bf2;
      }

      .cls-74 {
        fill: #9955f6;
      }

      .cls-75 {
        fill: #4362ef;
      }

      .cls-76 {
        fill: #6038d8;
      }

      .cls-77 {
        fill: #a04af4;
      }

      .cls-78 {
        fill: #a9a6ec;
      }

      .cls-79 {
        fill: #a83bf2;
      }

      .cls-80 {
        fill: #a249f4;
      }

      .cls-81 {
        fill: #a640f3;
      }

      .cls-82 {
        fill: #af3bf1;
      }

      .cls-83 {
        fill: #8f61f9;
      }

      .cls-84 {
        fill: #a445f3;
      }

      .cls-85 {
        fill: #cc85f3;
      }

      .cls-86 {
        fill: #7c72fd;
      }

      .cls-87 {
        fill: #9eaeea;
      }

      .cls-88 {
        fill: #a149f4;
      }

      .cls-89 {
        fill: #2e6ef7;
      }

      .cls-90 {
        fill: #b49eee;
      }

      .cls-91 {
        fill: #5153e7;
      }

      .cls-92 {
        fill: #c78bf2;
      }

      .cls-93 {
        fill: #e065f8;
      }

      .cls-94 {
        fill: #8968fa;
      }

      .cls-95 {
        fill: #cf81f4;
      }

      .cls-96 {
        fill: #a248f4;
      }

      .cls-97 {
        fill: #8074fd;
      }

      .cls-98 {
        fill: #9f4df5;
      }

      .cls-99 {
        fill: #ce82f4;
      }

      .cls-100 {
        fill: #98b2e9;
      }

      .cls-101 {
        fill: #7b73fd;
      }

      .cls-102 {
        fill: #9160f8;
      }

      .cls-103 {
        fill: #9f4cf5;
      }

      .cls-104 {
        fill: #622fd4;
      }

      .cls-105 {
        fill: #d874f6;
      }

      .cls-106 {
        fill: #c191f1;
      }

      .cls-107 {
        fill: #8b67fa;
      }

      .cls-108 {
        fill: #cb85f3;
      }

      .cls-109 {
        fill: #8967fa;
      }

      .cls-110 {
        fill: #925ff8;
      }

      .cls-111 {
        fill: #9957f7;
      }

      .cls-112 {
        fill: #d37af5;
      }

      .cls-113 {
        fill: #9daeea;
      }

      .cls-114 {
        fill: #9958f7;
      }

      .cls-115 {
        fill: #ad31f0;
      }

      .cls-116 {
        fill: #661fce;
      }

      .cls-117 {
        fill: #d47af5;
      }

      .cls-118 {
        fill: #9b52f6;
      }

      .cls-119 {
        fill: #ab37f1;
      }

      .cls-120 {
        fill: #9c52f6;
      }

      .cls-121 {
        fill: #b89aef;
      }

      .cls-122 {
        fill: #a840f2;
      }

      .cls-123 {
        fill: #7e70fd;
      }

      .cls-124 {
        fill: #e950fb;
      }

      .cls-125 {
        fill: #6718cc;
      }

      .cls-126 {
        fill: #8c65fa;
      }

      .cls-127 {
        fill: #7e71fd;
      }

      .cls-128 {
        fill: #a247f4;
      }

      .cls-129 {
        fill: #ab35f1;
      }

      .cls-130 {
        fill: #5450e4;
      }

      .cls-131 {
        fill: #945cf8;
      }

      .cls-132 {
        fill: #7974fe;
      }

      .cls-133 {
        fill: #fcfcfc;
      }

      .cls-134 {
        fill: #bd95f0;
      }

      .cls-135 {
        fill: #a246f4;
      }

      .cls-136 {
        fill: #826dfc;
      }

      .cls-137 {
        fill: #925df8;
      }

      .cls-138 {
        fill: #e755fa;
      }

      .cls-139 {
        fill: #a83cf2;
      }

      .cls-140 {
        fill: #6232d5;
      }

      .cls-141 {
        fill: #8869fb;
      }

      .cls-142 {
        fill: #d873f6;
      }

      .cls-143 {
        fill: #8b65fa;
      }

      .cls-144 {
        fill: #a7a7ec;
      }

      .cls-145 {
        fill: #c290f1;
      }

      .cls-146 {
        fill: #4e57e9;
      }

      .cls-147 {
        fill: #356bf5;
      }

      .cls-148 {
        fill: #3b67f3;
      }

      .cls-149 {
        fill: #5e3dda;
      }

      .cls-150 {
        fill: #ad31f1;
      }

      .cls-151 {
        fill: #564ce2;
      }

      .cls-152 {
        fill: #9e4df5;
      }

      .cls-153 {
        fill: #5948e0;
      }

      .cls-154 {
        fill: #866afb;
      }

      .cls-155 {
        fill: #4f56e8;
      }

      .cls-156 {
        fill: #ba98ef;
      }
    </style>
  </defs>
  <path class="cls-1" d="M.02,359.98C.02,240.35.02,120.73,0,1.1,0,.2.2,0,1.1,0c167.27.02,334.53.02,501.8,0,.9,0,1.1.2,1.1,1.1-.02,119.27-.02,238.53,0,357.8,0,.9-.2,1.1-1.1,1.1-167.63-.02-335.25-.02-502.88-.02h0Z"/>
  <path class="cls-6" d="M174.79,212.37c-.34-1.34-.59-2.68-.57-4.07-.18-1.86-.04-3.73-.08-5.59.3-.64.89-.58,1.44-.57,3.07.02,6.13,0,9.19-.13,1.99-.09,3.96.43,5.97.23,1.23-.12,2.46-.24,3.7-.17.67.04,1.37,0,1.84.66.3.77.16,1.58.2,2.38.06,1.22.17,1.34,1.42,1.39.32,0,.64,0,.96,0h104.33c.16,0-.04,0,.12,0,1.51,0,2.27-.77,2.3-2.31,0-.48,0-.96.17-1.42.59-.87,1.52-.82,2.37-.76,2.66.2,5.31,0,7.95-.07,2.23-.05,4.44.3,6.66.08,1.35-.13,2.69-.04,4.02.21.42.08.9,0,1.16.46-.02,1.88.1,3.76-.07,5.63-.23,1.37-.22,2.79-.79,4.09-1.7.19-3.41-.02-5.11.09-2.97.18-5.94-.37-8.92-.03-1.82.21-3.66-.3-5.49-.02-2.01.31-4.03-.39-6.05.03-.91.19-1.83-.28-2.74-.19-2.82.27-5.66-.04-8.47.4-1.03.16-2.09-.05-3.08-.16-2.28-.24-4.54.08-6.81-.14-1.65-.16-3.32.23-5.01.14-3.72-.18-7.45-.04-11.18-.12-2.11-.04-4.24.51-6.32.18-3.1-.5-6.2.27-9.3-.26-1.19-.2-2.53.14-3.79.32-.8.12-1.58-.02-2.37-.08-1.5-.11-3.01-.06-4.51-.12-4.34-.16-8.69-.05-13.03-.02-2.42.02-4.87.04-7.28-.04-3.71-.13-7.4.41-11.11-.06-1.64-.21-3.31.31-5,.2-2.18-.14-4.39.04-6.56-.02-2.1-.06-4.22.03-6.32-.05-1.21-.05-2.46-.05-3.68,0-2.16.09-4.3-.08-6.44-.27-1.22-.1-2.45.3-3.69.19h-.03Z"/>
  <path class="cls-66" d="M307.42,75.09c3.8.39,7.37,1.44,10.55,3.63.3.21.59.4.77.72-.26.31-.63.33-.99.33-2.79-.05-5.59.16-8.37.11-1.91-.03-3.82-.17-5.74-.11-3.43.11-6.85-.21-10.28.16-1.59.17-3.18-.1-4.77-.12-4.63-.05-9.26.1-13.89-.02-6.18-.17-12.37.17-18.55.05-4.19-.08-8.38.04-12.58-.07-3.07-.08-6.15.03-9.22.04-4.91,0-9.83.07-14.74-.09-1.39-.04-2.79.16-4.19.11-4.67-.16-9.34.18-13.99-.08-2.49-.14-4.94.08-7.41.05-2.83-.04-5.65-.15-8.49-.04-.6.02-1.54.11-1.46-1.03,2.02-1.69,4.46-2.45,6.95-3.06,1.19-.29,2.42-.39,3.63-.57.43-.14.87-.07,1.31-.07h20.68c.43,0,.88.11,1.29-.11h0c.26-1.86.04-3.74.11-5.61.02-.44-.03-.88.04-1.32.95-.64,2.06-.6,3.11-.54.92.05,1.82.07,2.74-.04,1.31-.15,2.62-.03,3.94.03,2.82.12,5.66.24,8.49.05,1.29-.09,2.64-.19,3.73.78.04,1.95.03,3.9,0,5.86,0,.64.14.92.86.92,6.81-.02,13.62-.01,20.44-.01.16,0,.32-.03.45-.11h0c.27-2.28.03-4.57.13-6.85.34-.55.91-.49,1.39-.41,2.21.33,4.45-.28,6.66.28.78.2,1.64-.14,2.47-.18,2.18-.1,4.33.45,6.54,0,1.28-.26,2.69-.18,4.03.09.35.07.73.07.94.42.12,2.22-.14,4.44.14,6.65h0c.41.21.86.1,1.29.11h20.68c.44,0,.88-.07,1.31.07v-.02Z"/>
  <path class="cls-93" d="M184.08,78.72c.54.98,1.47.68,2.31.71,1.68.05,3.35-.38,5.03,0,.27.06.56.04.84.02,1.89-.12,3.78.07,5.67-.22,1.27-.2,2.53.22,3.8.22,2.86.01,5.73.13,8.59-.03,2.28-.13,4.54.22,6.81.04,3.69-.28,7.38-.03,11.07-.06,3.32-.03,6.66.02,9.98.05,5.1.04,10.2.01,15.3.01,3.39,0,6.79.04,10.18-.01,2.32-.04,4.64.06,6.95-.02,3.24-.12,6.46.18,9.69.14,1.83-.02,3.7.1,5.55-.2.88-.14,1.82.17,2.71.09,2.02-.18,4,.27,6.07-.05,1.43-.22,3.06.05,4.58.02,2.56-.07,5.12,0,7.68-.09,1.41-.05,2.89.13,4.34.16,2.5.04,4.99-.3,7.49-.03,2.42,1.37,4.1,3.44,5.52,5.76-.24.39-.61.5-1.03.5-3.31-.02-6.62.14-9.92.06-4.1-.1-8.21-.21-12.31-.12-3.71.08-7.41.09-11.11.08-3.74-.01-7.49.05-11.23,0-1.88-.03-3.76-.38-5.61-.18-2.35.25-4.72.35-7.03.09-3.25-.37-6.45.26-9.68.14-2.61-.1-5.26-.08-7.89-.08-2.83,0-5.66-.16-8.49-.07-2.47.07-4.95.1-7.41.09-3.22-.01-6.46-.11-9.68,0-2.75.09-5.49-.09-8.24-.02-2.86.07-5.74.16-8.6-.07-.85-.07-1.67.11-2.51.15-2.71.11-5.42-.17-8.12-.13-2.23.03-4.47.16-6.69.11-3.14-.08-6.28.27-9.42.06-.58-.04-1.36.12-1.44-.84,1.49-2.67,3.55-4.77,6.24-6.24v-.04Z"/>
  <path class="cls-21" d="M174.2,95.55c.04-1.05.1-2.11.36-3.14,1.28-.62,2.66-.32,4-.39.31-.02.63.13.95.07,3.88-.65,7.79.05,11.66-.14,2.84-.14,5.66.05,8.49-.01,4.62-.11,9.25-.14,13.88.05,3.14.13,6.3-.3,9.45-.11,1.72.11,3.43-.1,5.14-.11,1.51,0,2.99.41,4.53.19,2.65-.37,5.31.12,7.99-.12,2.31-.2,4.7.1,7.05.04,2.59-.06,5.17.3,7.76-.02,1.55-.19,3.1.11,4.66.06,1.54-.06,3.09-.07,4.65-.03,2.47.07,4.94.11,7.41.08,2.35-.02,4.7-.05,7.05-.09,3.04-.05,6.07-.12,9.11.06,1.94.11,3.9-.04,5.86-.01,2.9.05,5.82.01,8.72-.1,2.48-.1,4.94.09,7.41.13,2.18.04,4.38.04,6.57-.11,1.28-.09,2.56,0,3.83.05,2.14.09,4.29-.26,6.41.25.61,1.05.2,2.32.74,3.39.08.37.18.73-.1,1.06-.6.37-1.28.45-1.96.45-5.26.04-10.51.04-15.77.06-1.47,0-2.94-.04-4.41.15-.83.14-1.67.1-2.51.1h-104.09c-2.74,0-2.55-.13-2.57,2.53,0,.67.09,1.36-.22,2.01-.17.27-.44.32-.73.31-3.77-.21-7.55-.02-11.33-.05-3.09-.02-6.18-.04-9.27.1-.29.01-.56-.03-.75-.28-.05-2.14-.11-4.29.03-6.43h0Z"/>
  <path class="cls-23" d="M154.85,23.53c-.02.87-.03,1.75-.05,2.62-1.99.28-3.99.14-5.99.07h-.74c-.98.16-1.98.03-2.96.07-13.37.06-26.75.02-40.12.03-.56,0-1.13.06-1.67-.08-.48-.12-1.09-.21-.82-.99,1.67-2.49,3.62-4.71,5.86-6.75,2.95-2.69,6.23-4.78,9.79-6.48,4.8-2.3,9.89-3.66,15.12-4.54,1.18-.2,2.36-.35,3.54-.53.4-.19.86.04,1.26-.18.46-.02.92-.05,1.38-.07.49-.18,1.02.05,1.51-.17.78-.02,1.55-.04,2.33-.06,2.95-.13,5.91-.12,8.86,0,.04,0,.08.01.12.02.89.15,2.11-.4,2.59.28.43.62.12,1.76.13,2.68,0,1.47,0,2.94.02,4.42-.23,2.39-.03,4.78-.1,7.17-.02.84.09,1.67-.07,2.51v-.02Z"/>
  <path class="cls-55" d="M174.79,212.37c.19-.34.51-.35.82-.3,1.24.2,2.41-.29,3.74-.11,1.81.24,3.76.35,5.66.18,1.32-.12,2.67-.1,4,0,1.19.1,2.36-.11,3.54-.14,1.34-.03,2.64.3,4.04.03,1.73-.33,3.6.11,5.41.08,2.84-.05,5.68,0,8.52-.03,1.68-.02,3.38-.03,5.07-.14,2.04-.13,4.1.27,6.14.15,2.96-.16,5.93.17,8.87-.02,2.45-.15,4.88.07,7.33-.08,1.33-.08,2.82-.13,4.04.09,1.55.27,3.01.18,4.44,0,2.57-.33,5.12.39,7.71-.1,1.44-.27,3.02.39,4.56.25,1.06-.1,2.11.23,3.21-.14.64-.22,1.52-.24,2.18-.12,1.69.31,3.35-.2,5.04.13,1.34.26,2.71.23,4.08-.28.72-.27,1.59.29,2.47.31,1.45.04,2.9-.36,4.26-.15,2.27.34,4.5-.07,6.76.1,1.65.13,3.38.66,5.05-.1.61-.28,1.24.15,1.87.19,1.45.07,2.85-.35,4.29-.27,2.13.12,4.31-.11,6.38.11,2.25.24,4.46-.42,6.69.08,1.06.24,2.25-.2,3.32-.13,1.83.13,3.67,0,5.51.21,1.05.12,2.29.15,3.41-.03,1.32-.21,2.59-.08,3.86.22-.47,1.78-.9,3.58-2.11,5.05-1.6.64-3.21.25-4.82.06-.6-.07-1.19-.05-1.79-.02-4.14.19-8.28.2-12.42.23-2.62.02-5.27-.16-7.89.16-.48.06-.95.04-1.43-.07-1.58-.38-3.18-.32-4.77-.15-1.48.16-2.94.08-4.42.05-2.03-.05-4.08-.2-6.09-.04-3.13.24-6.22-.14-9.32-.14-1.25,0-2.49.35-3.7.23-3.63-.37-7.25.15-10.88-.03-2.52-.13-5.1-.16-7.65,0-1.56.11-3.12.03-4.67-.03-2.15-.08-4.31-.04-6.45.04-3.96.14-7.91-.26-11.85-.12-4.51.15-9.01-.14-13.52.04-2.95.12-5.91.24-8.84.06-4.23-.27-8.44.14-12.68-.1-4.52-.25-9.09,0-13.62.32-.29.02-.52.19-.8.24-1.09-1.25-1.57-2.8-2.13-4.31-.18-.48-.3-.98-.45-1.47h.03Z"/>
  <path class="cls-43" d="M318.98,224.4c-3.42,2.6-7.26,4.08-11.55,4.35-.43.15-.87.08-1.31.08-6.95,0-13.9.02-20.85-.02-1,0-1.36.28-1.25,1.27.08.67.02,1.36.01,2.03-.13.48-.53.43-.87.41-2.11-.08-4.2.2-6.33-.04-2.01-.22-4.05.16-6.08.11-1-.03-1.98-.16-2.98-.2-1.28-.05-2.54-.04-3.81.21-.77.16-1.51.08-2-.69-.01-.72-.05-1.44,0-2.15.05-.73-.2-.97-.94-.95-1.87.05-3.75.02-5.62.02-4.7,0-9.41.03-14.11-.02-.93,0-1.29.23-1.2,1.19.08.87.02,1.75,0,2.63-.65.8-1.61.7-2.42.63-2.44-.24-4.87.19-7.3.04-1.79-.11-3.58-.1-5.36-.13-1.72-.03-3.43.23-5.14.06-.66-.06-1.38.11-1.84-.58,0-1-.03-1.99,0-2.99.02-.61-.18-.89-.82-.83-.36.03-.72,0-1.07,0h-20.2c-.43,0-.88.08-1.3-.08-4.19-.2-7.99-1.47-11.3-4.11-.07-.47.26-.68.62-.73,1.06-.14,2.08-.49,3.2-.2,1.52.4,3.12.19,4.66.14,3.55-.13,7.11.09,10.65-.23.68-.06,1.35.14,2.03.19,2.83.19,5.67-.12,8.49-.06,2.79.06,5.58,0,8.37.04,2.6.05,5.2-.05,7.79,0,1.99.03,3.96-.29,5.94-.21.8.04,1.6,0,2.38.22.31.09.64.21.94.13,2.56-.67,5.16.14,7.76-.26,1.75-.27,3.57.21,5.37.19,4.07-.04,8.14-.04,12.21-.05,2.31,0,4.63.03,6.94,0,5.11-.07,10.23.1,15.33.05,5.78-.06,11.57.2,17.35-.05,1.24-.05,2.47-.11,3.7,0,3.39.27,6.79-.14,10.18.02.62.03,1.32-.12,1.7.6l.02-.02Z"/>
  <path class="cls-7" d="M327.14,92.16c-.18.08-.39.24-.55.21-1.71-.33-3.43.04-5.15-.12-1.49-.13-3.03-.26-4.48,0-1.28.22-2.48-.18-3.77.05-2.02.37-4.09-.07-6.14-.15-2.71-.11-5.42.04-8.13.08-2.79.04-5.57-.04-8.35-.06-3.46-.02-6.92-.11-10.37.03-2.51.1-5.02.07-7.52.13-2.34.06-4.71-.03-7.06-.07-2.37-.04-4.78.2-7.11,0-2.12-.18-4.17.32-6.29.04-1.07-.14-2.3-.25-3.5-.04-1,.17-2.09-.14-3.15.02-1.97.28-3.95-.54-5.95.06-.73.22-1.6.1-2.37-.05-.72-.14-1.43-.15-2.14-.11-2.08.11-4.14.44-6.22-.12-.69-.18-1.5.02-2.24.11-2.29.28-4.57-.1-6.86-.07-2.52.03-5.02.28-7.55.15-2.31-.11-4.65-.15-6.99.06-1.86.17-3.82-.38-5.7-.06-2.64.44-5.28.01-7.9.02-3.38,0-6.81.27-10.19-.3-.12-.02-.26-.06-.35-.01-2.12.97-4.35.16-6.52.45.51-2.1,1.13-4.16,2.32-5.99,1.47.66,3.07.49,4.59.51,2.79.04,5.57-.29,8.37.05,2.15.26,4.31-.08,6.46-.13,1.8-.04,3.58.17,5.38.12,3.58-.11,7.17-.03,10.76-.16,2.14-.08,4.28,0,6.42.07,3.07.1,6.13.09,9.21-.05,2.38-.11,4.79.19,7.17.09,3.11-.13,6.22.07,9.32.08,2.43.01,4.84-.17,7.28-.1,1.98.06,3.98.09,5.97,0,1.98-.08,3.99-.1,5.96,0,3.44.19,6.86-.1,10.3.1,1.82.11,3.67-.03,5.51-.12,1.57-.07,3.18-.06,4.75.03,1.92.11,3.83.15,5.74-.08.8-.09,1.61-.04,2.39.04,4.23.42,8.45-.04,12.67,0,3.82.03,7.65.41,11.47-.03.91-.11,1.85-.06,2.75.04,1.97.21,3.91.05,5.85-.24,1.09,1.68,1.72,3.51,1.95,5.5l-.04.02Z"/>
  <path class="cls-34" d="M90.74,163.15c-4.54-3.41-9.77-4.89-15.31-5.48-.47-.25-1,0-1.48-.18-.78-.02-1.56-.04-2.34-.07-.39-.25-.89.08-1.26-.25,0-2.28.01-4.57.02-6.85.22-2.1.04-4.21.1-6.31.01-.43-.12-.88.13-1.29.49-.36,1.06-.31,1.61-.31,11.77,0,23.54,0,35.31,0,.6,0,1.4-.26,1.71.64-2.27,1.75-4.89,2.79-7.54,3.78-.96.36-1.96.64-2.94.93-.31.09-.62.11-.61.56.01.48.36.42.65.51,4.09,1.22,7.95,2.9,11.37,5.51,2.93,2.24,5.47,4.84,7.25,8.12-.56.53-1.27.38-1.94.39-7.38,0-14.75,0-22.13,0-.87,0-1.76-.04-2.6.28h0Z"/>
  <path class="cls-144" d="M318.98,224.4c-.43-.27-.91-.27-1.39-.25-2.71.11-5.42-.17-8.13.19-.95.13-1.97-.16-2.96-.22-2.24-.12-4.47.29-6.69.17-1.87-.11-3.73-.2-5.6-.05-2.59.21-5.15-.19-7.77-.03-2.39.15-4.91.16-7.37-.22-1.16-.18-2.42-.06-3.61.04-2.52.21-5.03-.02-7.54.12-2.79.16-5.58-.13-8.38.1-1.37.11-2.87-.22-4.28-.07-2.02.21-4.13.26-6.02-.03-2.79-.43-5.55.56-8.27-.24-.04,0-.08-.02-.12,0-2.24.89-4.52-.02-6.8.08-5.55.25-11.11.34-16.67.03-.47-.03-.94.12-1.41.12-2.25,0-4.51-.09-6.76.03-2.18.12-4.35-.28-6.47-.17-3.6.19-7.21.05-10.81.21-1.7.08-3.48.27-5.26-.21-1.04-.28-2.3-.11-3.3.64-1.91-1.02-3.33-2.56-4.56-4.31-.28-.59.11-.87.56-.92.71-.08,1.46-.38,2.13-.22,2.51.58,5.02-.04,7.52.12,3.07.2,6.14-.27,9.2.16.63.09,1.27-.02,1.91-.09,1.43-.14,2.86-.38,4.29,0,.48.12.95.05,1.42-.11.3-.1.61-.2.94-.18,3.37.28,6.75,0,10.12.16,1.91.09,3.83.11,5.74-.17.84-.12,1.69.02,2.51.16,2.19.37,4.37-.02,6.55.04,1.99.06,3.99.17,5.97.16,2.11,0,4.23-.04,6.33-.22,2.24-.19,4.47.03,6.7.07,1.47.02,2.95-.11,4.4-.06,3.27.1,6.54-.26,9.8.11.81.09,1.6.02,2.39-.03,4.58-.3,9.17.36,13.75-.17.36-.04.72,0,1.07.1,2.1.54,4.21,0,6.32.1,1.11.05,2.23-.12,3.34.11.23.05.49.14.71.06,2.72-.9,5.44.09,8.15-.05,3.39-.18,6.78,0,10.17-.13,3.87-.14,7.75-.15,11.62-.06.43,0,1-.12,1.12.57-1.28,1.75-2.75,3.32-4.54,4.57h-.02Z"/>
  <path class="cls-89" d="M391.42,14.95c3.62,2.09,6.66,4.85,9.3,8.06,1.53,1.86,3,3.78,3.93,6.04-.53.5-1.2.39-1.82.39-10.32,0-20.63.03-30.95,0-.12,0-.24.02-.36.03-2.23-.87-4.49-1.66-6.86-2.03-1.53-.24-3.07-.37-4.61-.55-.8-.27-1.65.04-2.46-.18-2.07-.02-4.15-.03-6.22-.05-.26-.36-.14-.77-.14-1.16.04-3.38-.11-6.76.07-10.14.55-.46,1.21-.36,1.84-.36,12.6,0,25.19-.03,37.79.01.16,0,.32-.02.48-.06h0Z"/>
  <path class="cls-2" d="M109.22,143.07c-.42-.46-.98-.25-1.47-.26-12.38,0-24.77,0-37.15,0-.28-.71-.15-1.43-.07-2.15q.1-1.66,1.78-1.67c4.98-.06,9.88-.65,14.53-2.57,5.37-2.22,9.17-5.98,11.2-11.47.08-.22.2-.43.3-.64.45-.32.96-.36,1.48-.36,6.97,0,13.95-.01,20.92,0,.32,0,.64.01.95.11.5.16.76.44.48.98-1.13,4.41-3.18,8.35-6.01,11.89-1.95,2.45-4.21,4.57-6.93,6.15h0Z"/>
  <path class="cls-29" d="M146.16,272.59c1.59.02,3.18.09,4.78.05.81-.02,1,.26.98,1.03-.05,2.11-.02,4.22-.02,6.32-.12.12-.26.16-.42.13-.75-.14-1.51-.14-2.27-.14h-40.15c-.92,0-1.84-.05-2.73.27-3.09-2.61-5.45-5.82-7.42-9.31-.65-1.14-1.3-2.3-1.7-3.57-.26-.74.28-.91.79-1.04s1.03-.08,1.55-.08h23.75c1.08,0,2.15.04,3.19.39,4.28,3.36,9.18,5.1,14.57,5.54.4.22.86,0,1.26.18.38.02.77.04,1.15.06.88.27,1.8-.04,2.69.18h0Z"/>
  <path class="cls-147" d="M371.52,29.46c.39-.6,1-.4,1.53-.4,10.53-.01,21.06-.01,31.6-.01,2.12,3.44,3.35,7.23,4.28,11.12.6,2.5,1.18,5.01,1.21,7.6-.45.44-1.03.38-1.58.38-7.49,0-14.98,0-22.48,0-.36,0-.72.02-1.05-.17-.45-2.36-1.11-4.67-2.06-6.87-1.83-4.23-4.68-7.63-8.63-10.06-.92-.57-1.88-1.07-2.82-1.6h0Z"/>
  <path class="cls-20" d="M102.51,25.26c.13.92.86.67,1.41.67,8.96.01,17.91,0,26.87,0,3.28,0,6.56.04,9.84-.02,1.56-.03,3.1.24,4.65.29,0,.11-.04.17-.14.18-10.6.55-19.93,4.54-23.72,16.83-.45.44-1.03.38-1.59.39-7.55,0-15.1,0-22.66,0-.55,0-1.13.06-1.58-.38.58-2.82,1.16-5.65,2.13-8.38,1.2-3.4,2.63-6.67,4.8-9.58h0Z"/>
  <path class="cls-116" d="M405.36,268.09c-.6,2.03-1.8,3.75-2.93,5.49-1.49,2.28-3.17,4.43-5.24,6.23-11.75-.16-23.49-.03-35.24-.07-3.32-.01-6.63,0-9.95,0-.59,0-1.21.07-1.76-.26-.36-.58-.19-1.19-.13-1.8l.05-4.54c1.99-.29,3.99-.14,5.98-.07h.5c.97-.23,1.98.09,2.94-.18l1.38-.06c.4-.18.86.05,1.25-.18,4.67-.4,8.95-1.9,12.8-4.59.35-.25.7-.49,1.06-.73.87.11,1.75.12,2.63.12,8.28,0,16.55-.01,24.83.02.63,0,1.49-.34,1.83.63h0Z"/>
  <path class="cls-13" d="M350.19,279.35c15.23,0,30.46,0,45.69.01.45,0,1.09-.33,1.3.44-2.49,2.51-5.36,4.53-8.43,6.24-4.49,2.5-9.35,4.05-14.31,5.24-2.29.55-4.67.72-7.01,1.06-.4.18-.85-.05-1.24.18-.39.02-.77.04-1.16.06-.57.2-1.19-.06-1.75.17-.86.02-1.71.04-2.57.07-3.31.17-6.63.02-9.94.08-.47,0-.74-.11-.74-.66.02-4.23-.02-8.47.03-12.7,0-.07.08-.13.13-.2h0Z"/>
  <path class="cls-25" d="M407.97,83.05c-.18,2.64-.76,5.22-1.09,7.84-.47,3.68-1.17,7.33-1.33,11.04-.1.13-.21.23-.36.31-.5.2-1.02.16-1.54.16h-20.95c-.59,0-1.2.06-1.76-.25-.36-.5-.2-1.03-.12-1.56l.05-.92c.23-.39,0-.84.18-1.24.3-4.28,1.21-8.47,1.78-12.71.13-.95.39-1.91.53-2.87.41-.22.85-.18,1.29-.18h21.5c.62,0,1.29-.11,1.82.38Z"/>
  <path class="cls-153" d="M429.84,159.79c-.09.03-.17.06-.26.09-.56.21-1.17-.07-1.73.18-6.89.55-13.27,2.34-18.1,7.72-1.86,2.07-3.03,4.53-3.91,7.14-.06.19-.06.4-.25.51-.96.26-1.9-.12-2.85-.11-6.03.03-12.06.03-18.09,0-1.03,0-2.04.48-3.07.11.47-2.49,1.4-4.82,2.46-7.12,1.1-2.37,2.48-4.56,4.12-6.58,1.12-1.39,2.41-2.64,3.77-3.8,13.09.19,26.19.03,39.28.09.71,0,1.44-.11,2.12.23.36.41.27.85.09,1.3l-.03.03c-1.16.34-2.37-.03-3.54.21h0Z"/>
  <path class="cls-151" d="M433.39,158.4h-39.69c-.63,0-1.3.1-1.78-.47,3.77-3.28,8.22-5.26,12.95-6.67.39-.12.97-.04.94-.67-.04-.62-.64-.34-.96-.44-3.27-1.08-6.47-2.31-9.34-4.26-.36-.77.2-1,.75-1.18.54-.18,1.11-.13,1.67-.13h33.54c.36,0,.72,0,1.08.03.63.06,1.02.26,1.02,1.03-.03,4.11-.01,8.22-.01,12.34,0,.17-.04.31-.15.44l-.02-.02Z"/>
  <path class="cls-28" d="M93.94,226.09c.2-1.49.38-2.98.6-4.46.26-1.84.54-3.68.83-5.52.34-2.21.65-4.43,1.06-6.63.09-.48.01-.95.11-1.41.49-.48,1.08-.62,1.75-.62,7.14,0,14.27,0,21.41,0,.63,0,1.3-.02,1.72.61-.55,3.63-1.07,7.26-1.65,10.88-.41,2.53-.58,5.1-1.19,7.59-.38.15-.78.15-1.18.15-7.21,0-14.43,0-21.64,0-.65,0-1.39.16-1.81-.6v.02Z"/>
  <path class="cls-51" d="M385.03,48c.43-.31.92-.22,1.39-.22h23.71c.35.34.14.82.29,1.21.19.49-.05,1.03.17,1.52l.07,2.32c.12,2.15.12,4.31,0,6.46l-.06,2.59c-.26.64.03,1.33-.18,1.97-.02.46-.04.93-.06,1.39-.26.36.12.94-.41,1.22-.34.15-.69.18-1.05.18-7.29.02-14.59.02-21.88,0-.56,0-1.25.11-1.46-.69.02-.54-.08-1.08.07-1.61h.08c.18-.66.04-1.34.09-2.02.04-.84-.09-1.69.07-2.52v-3.86c-.22-.81.08-1.66-.18-2.47-.02-.46-.04-.91-.06-1.37-.19-.4.04-.86-.18-1.26-.14-.94-.28-1.89-.42-2.83h0Z"/>
  <path class="cls-11" d="M152.23,172.11c-.02-3.04-.04-6.08-.05-9.12.13-.11.25-.1.35.04.47,1.32.2,2.69.21,4.04,0,.94.25,1.28,1.27,1.36,4.62.33,9.23.08,13.84.05,3.18-.02,6.39-.08,9.57.21,1.13.1,2.24-.04,3.35-.09,2.55-.12,5.12-.24,7.64-.05,2.23.17,4.45-.47,6.65.05.42.1.89.06,1.19.47.23.45.22.93.22,1.41v7.07c0,.48,0,.96-.22,1.41-1.14.96-2.58.82-3.89.85-3.03.07-6.06-.21-9.08-.1-3.43.13-6.84-.4-10.28.06-1.32.18-2.71-.22-4.06-.11-4.02.33-8.04-.14-12.07-.05-1.23.03-2.46-.23-3.69.09-.66.17-.9-.2-.9-.88,0-2.24.1-4.47-.05-6.71h0Z"/>
  <path class="cls-134" d="M349.91,162.99c-.02,3.2-.04,6.4-.06,9.6-.13,2.59-.06,5.19-.04,7.78,0,.89-.16,1.22-1.17,1.26-4.02.17-8.05.11-12.07.15-5.02.05-10.05.08-15.07-.11-3.12-.12-6.21.2-9.32.18-1.94-.02-3.9,0-5.84-.22-.21-.02-.38-.11-.51-.29-.16-.28-.21-.6-.22-.92-.03-2.86-.03-5.72,0-8.57,0-.28.05-.55.16-.81.19-.38.56-.49.91-.42,1.15.2,2.31-.08,3.46.09,1.23.19,2.47.15,3.7-.06.24-.04.48-.11.71-.08,2.89.43,5.8-.38,8.7.15.94.17,1.91,0,2.87-.02,4.5-.1,9-.05,13.49.09,2.91.09,5.81-.1,8.71-.02.75.02.98-.31.97-1.01-.01-1.56-.02-3.12,0-4.67.02-.7-.12-1.42.22-2.09.11-.14.22-.15.35-.03l.05.02Z"/>
  <path class="cls-125" d="M106.34,280.24c.17-.9.89-.65,1.44-.65,10.59-.01,21.19,0,31.78,0h10.91c.47,0,1.1-.24,1.25.54.13,3.25.13,6.51,0,9.76,0,.8-.03,1.6-.04,2.4-2.72.23-5.43.13-8.15.05-1.1-.02-2.19-.04-3.29-.07-.65-.25-1.34.03-1.99-.17-.46-.02-.92-.04-1.38-.07-.4-.21-.86,0-1.26-.17-.31-.02-.61-.04-.92-.06-.39-.24-.85,0-1.24-.19-4.9-.48-9.64-1.72-14.2-3.48-4.75-1.83-9.19-4.33-12.93-7.9h.02Z"/>
  <path class="cls-130" d="M433.39,158.4c.01-4.16,0-8.31.06-12.47.02-1.1-.63-.98-1.32-.97h-31.17c-1.4,0-2.8,0-4.2,0-.61,0-1.25.04-1.25.91-2.37-1.41-4.41-3.18-6.21-5.28-1.54-1.8-2.84-3.73-4.04-5.76-.55-.93-.9-1.9-1.26-2.89-.32-.56,0-.81.49-.95.43-.13.87-.11,1.31-.11h21.2c.71,0,1.46-.08,1.96.62,4.15,5.67,10.07,8.18,16.73,9.34.39.07.8.03,1.19.04.39.23.85,0,1.25.18.3.02.61.04.91.06.64.26,1.33-.04,1.97.18.08,0,.16.03.24.04,2.41.12,2.4.12,2.39,2.5-.02,4.81-.04,9.63-.07,14.44,0,.42.17.87-.17,1.25,0-.38-.01-.76-.02-1.15v.02Z"/>
  <path class="cls-140" d="M409.64,237.44c0,.61-.01,1.22-.02,1.83-.99-.36-2.03-.34-3.06-.34h-19.27c-.82,0-1.63-.02-1.96.96-.11.15-.23.16-.36.02-.02-.93-.05-1.87-.07-2.8-.19-.57.06-1.19-.17-1.76-.02-.45-.04-.9-.06-1.36-.2-.49.05-1.03-.18-1.51-.02-.38-.04-.75-.07-1.13-.18-.4.04-.86-.18-1.26-.02-.3-.04-.6-.06-.9-.19-.39.05-.85-.19-1.24-.29-2.39-.58-4.78-.87-7.17.45-.8,1.25-.59,1.93-.59,6.89-.02,13.78,0,20.67,0,.36,0,.72,0,1.07.05.49.06.8.31.9.8.35,2.49.7,4.97,1.04,7.46.19.39-.05.85.18,1.24.02.31.04.61.06.92.18.4-.04.86.18,1.25.02.38.04.76.07,1.15.17.41-.03.87.17,1.28.02.45.04.91.06,1.36.21.57-.06,1.19.18,1.76h0Z"/>
  <path class="cls-148" d="M95.57,43.22h25.82c-.69,2.66-1.39,5.33-1.4,8.11-.25.47.01,1-.18,1.48-.02.94-.05,1.87-.07,2.81-.23,1.34-.04,2.68-.1,4.03-.03,1.3-.13,1.46-1.41,1.47-7.21.03-14.42.02-21.63,0-.92,0-1.58-.25-1.51-1.34-.27-4.23-.29-8.46.15-12.68.13-1.29.22-2.59.34-3.88h0Z"/>
  <path class="cls-155" d="M122.17,125.03c.04-.96-.69-.69-1.18-.69-7.03-.01-14.06,0-21.09,0-.52,0-1.04-.02-1.56-.03,1.82-5.72,1.62-11.62,1.56-17.5.32-.61.91-.6,1.46-.61,7.23-.02,14.46-.02,21.69,0,.44,0,.88,0,1.26.3.26,1.7.15,3.41.06,5.11-.02.7-.04,1.4-.06,2.1-.23.48.01,1.01-.17,1.5-.49,3.31-.82,6.65-1.97,9.83h0Z"/>
  <path class="cls-149" d="M121.41,208.08c-.57-.19-1.16-.25-1.76-.25-7.12,0-14.23,0-21.35,0-.61,0-1.19.06-1.76.25.5-1.2.48-2.52.66-3.76.26-1.84.64-3.68.76-5.54.23-.39,0-.85.18-1.25.1-1.02.2-2.05.3-3.07.24-.47-.02-1.01.18-1.49.02-.45.04-.9.06-1.36.19-.31-.05-.8.4-1.01.53-.23,1.1-.19,1.66-.19h20.74c.6,0,1.2-.06,1.77.23.24.16.26.38.17.63-.02.77-.05,1.55-.07,2.32-.23.57.03,1.19-.18,1.76-.02.38-.04.77-.06,1.15-.24.47.02,1.01-.18,1.49-.02.3-.04.61-.06.91-.23.39,0,.85-.18,1.25-.34,2.34-.67,4.68-1.02,7.02-.05.31-.17.61-.26.91h0Z"/>
  <path class="cls-63" d="M95.09,59.78c.2.74.62.98,1.44.98,7.25-.04,14.51-.05,21.76,0,1.02,0,1.36-.34,1.27-1.28.1,0,.16.04.18.14.02,1.01.05,2.03.07,3.04.2.57-.07,1.18.17,1.74.02.46.04.92.06,1.38.2.49-.05,1.03.18,1.51.02.38.04.75.06,1.13.18.41-.03.87.17,1.28-.05,1.03.06,2.04.3,3.04.19.4-.05.85.18,1.24-.06.96.07,1.9.29,2.83.09.38.21.76-.13,1.09-.47.27-1,.24-1.52.24h-20.95c-.82,0-1.76.14-1.88-1.09-.83-5.73-1.45-11.49-1.68-17.28h.03Z"/>
  <path class="cls-75" d="M385.63,65.69c.18.85.87.55,1.36.55,7.71.02,15.42.01,23.13.01.16.14.14.3.07.47-.02.46-.05.91-.07,1.37-.21.4,0,.86-.18,1.27-.02.31-.04.61-.05.92-.23.39,0,.85-.18,1.24-.5,3.62-1,7.25-1.51,10.87-.03.22-.15.44-.22.66h-23.33c-.43,0-.88.08-1.27-.21.45-3.37.96-6.74,1.33-10.12.08-.77.33-1.53.27-2.31.22-.4-.01-.86.18-1.26.02-.3.04-.6.06-.9.22-.4,0-.86.18-1.26.02-.39.04-.77.06-1.16.03-.09.09-.13.18-.13h0Z"/>
  <path class="cls-41" d="M381.57,175.44c.87-.29,1.76-.48,2.68-.48h18.93c.84,0,1.64.13,2.41.48-.22,1.51-.79,2.96-.74,4.51-.24.39,0,.85-.19,1.24-.02.46-.04.91-.06,1.37-.25.73.04,1.5-.17,2.23v4.1c.09.98.17,1.96-.04,2.94-.6.43-1.3.31-1.97.31-6.61,0-13.22,0-19.83,0-1.18,0-1.94.55-2.29,1.64-.1.17-.22.18-.36.05v-7.04c.25-.65-.03-1.34.17-1.99l.06-1.4c.23-.39,0-.85.18-1.24.2-2.28.51-4.54,1.22-6.73h0Z"/>
  <path class="cls-3" d="M385.16,240.05c-.21-1.31.45-1.54,1.63-1.53,7.14.05,14.28.03,21.41,0,.63,0,1.18,0,1.42.72.03.09.06.17.09.26.22.9-.08,1.83.17,2.73v6.06c-.26.81.05,1.66-.18,2.47-.02.45-.04.9-.06,1.36-.2.41,0,.87-.18,1.28-.11.4-.21.8-.32,1.21-.46.43-1.03.38-1.59.38-7.27,0-14.53.02-21.8,0-.74,0-1.53.08-2.21-.37.64-2.09.96-4.24,1.18-6.41.23-.48-.02-1.02.18-1.5.02-.78.04-1.55.07-2.33.28-1.44-.07-2.9.19-4.34h0Z"/>
  <path class="cls-146" d="M380.82,101.99c8.18,0,16.37.02,24.55.03.13.39.13.79,0,1.18-.02.37-.04.75-.06,1.12-.22.49.02,1.03-.18,1.52-.02.46-.04.91-.06,1.37-.23.57.02,1.18-.17,1.75-.02.94-.05,1.87-.07,2.81-.16,1.89-.16,3.78,0,5.67,0,.53-.01,1.06-.02,1.6-.84-.52-1.76-.59-2.73-.59-6.22.02-12.44.03-18.66,0-1.09,0-2.02.11-2.69,1.05-.05-.47-.1-.94-.15-1.41-.19-.48.06-1.02-.18-1.49-.02-.62-.04-1.24-.06-1.87-.12-2.31-.12-4.63,0-6.94l.07-2.57c.24-.57-.03-1.18.17-1.75.02-.46.04-.92.06-1.39.02-.12.07-.15.17-.08h0Z"/>
  <path class="cls-49" d="M90.74,163.15c.16-.9.87-.66,1.43-.66,8.41,0,16.82,0,25.24-.02,1.56,1.98,2.44,4.32,3.28,6.65,1.07,2.97,1.83,6.04,2.17,9.19-.37.2-.77.15-1.17.15h-21.65c-.44,0-.88.06-1.29-.16-.78-5.31-2.64-10.12-6.53-13.97-.44-.44-.98-.79-1.47-1.18h0Z"/>
  <path class="cls-104" d="M93.94,226.09c.46.33,1,.22,1.51.22,7.25,0,14.5,0,21.76,0,.46,0,.96-.18,1.36.23.05,2-.61,3.94-.5,5.95-.24.47.02,1.01-.18,1.49-.02.38-.04.77-.05,1.15-.26.64.04,1.33-.18,1.97-.02.93-.04,1.87-.07,2.8-.3.69.17,1.48-.3,2.14-.59.33-1.24.24-1.87.24h-20.2c-1.92,0-1.92.03-1.95,1.92-.02.95.17,1.91-.22,2.83-.1.17-.22.19-.37.06v-7.29c.26-.81-.04-1.66.17-2.47.02-.62.05-1.23.07-1.85.22-.49-.02-1.02.17-1.51.02-.45.05-.91.07-1.36.2-.41,0-.87.17-1.28.02-.3.04-.61.06-.91.23-.39,0-.85.18-1.25.12-1.04.25-2.07.37-3.11v.02Z"/>
  <path class="cls-42" d="M124.31,106.57h-22.9c-.51,0-1.05-.09-1.51.23-.28-5.53-.85-11.04-1.44-16.54,1,.34,2.03.34,3.06.34h19.02c.8,0,1.59-.03,2.35-.33.46,1.59.43,3.24.71,4.86.13.77.2,1.55.29,2.33.2.48-.05,1.02.18,1.5.02.46.04.92.06,1.38.21.65-.07,1.34.18,1.98.02.86.04,1.72.07,2.58.07.56.19,1.12-.07,1.67Z"/>
  <path class="cls-45" d="M152.23,172.11c.3.34.17.76.18,1.15,0,1.56,0,3.11,0,4.67,0,1.66,0,1.68,1.59,1.27,1.46-.38,2.89.2,4.36.08,1.94-.15,3.93-.19,5.86.05,2.77.34,5.54-.47,8.3.15.62.14,1.33-.16,2-.19,2.17-.1,4.32-.13,6.5.17.97.13,2.04-.03,3.05-.08,2.8-.14,5.58.14,8.37.12,1.22,0,2.43-.29,3.65-.45.36.33.38.78.38,1.21.03,3.22.02,6.45,0,9.67,0,.36-.04.72-.21,1.04-.25.37-.61.49-1.03.5-3.5.09-6.99.25-10.51.05-1.96-.11-3.97.02-5.95.05-1.53.03-3.11.41-4.54-.5-.18-1.58-.03-3.17-.09-4.76-.02-.43.11-.87-.11-1.29h0c-.41-.22-.86-.11-1.29-.11-6.42,0-12.85,0-19.27,0-.43,0-.88.14-1.28-.13.02-4.22.04-8.44.05-12.67h-.01Z"/>
  <path class="cls-85" d="M152.17,140.85v-21.79c.15-.1.28-.07.38.09.48,1.92.14,3.87.21,5.8.02,2.95,0,5.91,0,8.86,0,1.38.05,1.53,1.37,1.51,3.38-.05,6.76.42,10.14.02,1.34-.16,2.69.12,4.05.06,3.34-.16,6.69-.14,10.03-.09,1.71.03,3.43.31,5.13.09,3.44-.45,6.89.47,10.34-.1.78-.13,1.68-.28,2.4.38.21.36.23.76.23,1.16.02,3.15,0,6.31,0,9.46,0,.4-.02.8-.2,1.17-.25.41-.66.4-1.06.37-3.82-.3-7.64.1-11.46.1-2.74,0-5.48-.2-8.23,0-.49.03-1.06.1-1.38-.46-.02-1.68,0-3.36,0-5.03,0-.96-.46-1.44-1.39-1.44h-19.29c-.43,0-.88.14-1.28-.14v-.02Z"/>
  <path class="cls-76" d="M407.7,221.03c-.27-.41-.66-.48-1.14-.48-7.47,0-14.93,0-22.4,0-.36,0-.72,0-1.03.22-.45-2.72-.76-5.46-1.23-8.17-.3-1.74-.57-3.51-.68-5.28.03-1.57.2-1.77,1.81-1.77,7.03-.02,14.07,0,21.1,0,.77,0,1.58,0,1.64,1.09.64,4.64,1.29,9.28,1.92,13.93.02.16,0,.32,0,.47h0Z"/>
  <path class="cls-5" d="M383.55,254.63c.78-.34,1.56.02,2.35.02,7.75-.03,15.5-.02,23.25-.02-.41,3.27-1,6.49-2.14,9.59-.48,1.31-.85,2.68-1.65,3.86-.38-.44-.9-.25-1.35-.25-8.89-.01-17.78,0-26.68-.02-.45,0-1.1.3-1.27-.49,1.41-1.53,3.03-2.88,4.15-4.69,1.56-2.49,2.74-5.12,3.34-8.01h0Z"/>
  <path class="cls-30" d="M405.78,206.63c-.23-.71-.78-.72-1.41-.72-7.13.02-14.25.04-21.38-.02-1.11,0-1.75.23-1.76,1.42l-.39-3.09c-.19-.39.05-.85-.19-1.24-.02-.31-.04-.61-.06-.92-.18-.41.03-.87-.18-1.27-.02-.46-.05-.91-.07-1.37-.18-.48.06-1.02-.17-1.5-.02-.54-.04-1.08-.06-1.62-.12-.78-.13-1.55,0-2.33.06-1.48.84-2.22,2.35-2.22h21.93c.12.17.1.36.1.55.05.7-.1,1.4.08,2.09h.08c.22.63-.08,1.33.18,1.97.02.46.04.93.06,1.39.17.41-.03.87.17,1.28.02.45.05.9.07,1.36.18.4-.05.85.18,1.24.02.31.04.61.06.92.19.4-.05.85.18,1.24-.11.95.16,1.88.21,2.82l.02.02Z"/>
  <path class="cls-3" d="M92.86,247.26c.01-1.28.1-2.56.01-3.83-.08-1.18.23-1.56,1.49-1.55,7.67.07,15.34.03,23.01.03.24.61.05,1.24.11,1.86.05.82-.1,1.65.08,2.46l.08-.02c.2.48-.07,1.02.18,1.5-.02,2.71.79,5.27,1.41,7.86-.72.48-1.54.38-2.33.38-6.79,0-13.58,0-20.37,0-.96,0-1.91,0-2.84.32-.21-1.43-.41-2.86-.62-4.3-.21-.47.06-1.01-.19-1.48l-.05-1.16c-.13-.69-.13-1.39,0-2.08h.03Z"/>
  <path class="cls-78" d="M323.52,219.84c-.31-.37-.74-.24-1.12-.24-3.59,0-7.18-.12-10.75.03-2.37.1-4.77.19-7.11.07-1.69-.08-3.35.45-5.09-.04-1.35-.38-2.87.07-4.31-.28-.65-.16-1.45-.22-2,.45-.17.21-.41.15-.66.09-1.49-.33-3.01-.12-4.48-.21-1.9-.12-3.76.27-5.68-.04-2.03-.33-4.16-.07-6.25,0-1.57.05-3.15.16-4.67-.14-1-.2-1.9.06-2.83.1-2.8.12-5.58-.09-8.37-.18-.93-.03-1.9.14-2.85.15-3.05.03-6.09.13-9.15-.07-2.15-.14-4.33.15-6.49.12-1.69-.02-3.35.26-5.07.09-1.5-.16-3.06-.18-4.61-.14-2.81.08-5.61.15-8.43-.14-1.75-.18-3.57.23-5.36.16-2.14-.08-4.3.2-6.43-.22-.5-.1-1.02-.03-1.54.06-1.03.17-2.08.66-3.11-.04-.09-.06-.25-.08-.35-.04-2.28.97-4.7-.34-7.02.41-.65.21-1.47.18-2.14,0-1.62-.44-3.25-.15-4.84-.1-1.58.05-3.13-.2-4.7-.08-1.4.11-2.81.1-4.22.18-.72.04-1.41.09-2.11-.24-.72-.33-2.71.24-2.99.78-.62-.63-1.12-1.34-1.43-2.18-.03-.49.15-.76.69-.71,1.81.16,3.62-.28,5.4-.16,1.97.13,3.99.13,5.88-.03,3.1-.25,6.13.54,9.23.06,1.48-.23,3.11-.22,4.71,0,1.5.22,3.1.34,4.62-.05.94-.24,1.81.13,2.71.11,3.17-.08,6.37-.4,9.5-.11,3.01.28,5.98-.3,8.99.04,1.55.18,3.19.13,4.79.12,3.07-.02,6.14-.2,9.2-.17,1.78.02,3.59-.14,5.37.17.99.17,1.96-.11,2.94-.12,1.27,0,2.52.34,3.78.12,2.14-.38,4.28.17,6.4.04.88-.05,1.78,0,2.67-.23,1.02-.26,2.06.07,3.08.18,1.44.16,2.82-.38,4.27-.28,2.3.17,4.63.39,6.92.22,2.68-.2,5.35.21,8.02-.16.72-.1,1.49.13,2.24.21,1.44.15,2.86-.32,4.29-.22,3.64.24,7.29.37,10.91.2,1.68-.08,3.39-.03,5.05-.03s3.19-.31,4.84-.03c1.49.25,3.11.03,4.62-.25.84-.16,1.65-.04,2.33.16,1.41.41,2.8-.19,4.16.19-.26.94-.89,1.64-1.46,2.39v.03Z"/>
  <path class="cls-85" d="M349.91,119.08v21.77c-.39.3-.85.15-1.27.15-6.49,0-12.98.03-19.47-.02-1.02,0-1.29.3-1.24,1.27.07,1.27.04,2.55,0,3.82-.77.73-1.79.63-2.7.66-2.11.06-4.21.02-6.32-.1-2.45-.14-4.93-.04-7.39.06-1.51.06-3.02.07-4.54.06-.4,0-.8-.05-1.1-.37-.04-.07-.11-.14-.11-.21-.22-3.33-.35-6.65.06-9.98.92-.66,2.02-.41,3-.41,5.23,0,10.46,0,15.69.04,2.95.03,5.91-.07,8.86-.04,2.79.03,5.58.03,8.37.1,2.18.06,4.38-.22,6.57-.16.9.03.99-.59.99-1.3,0-2.68-.02-5.35,0-8.03-.06-2.03-.02-4.05-.02-6.08,0-.4.02-.8.22-1.16.1-.16.23-.18.38-.08h.02Z"/>
  <path class="cls-70" d="M122.89,90.27c.06.63-.32.71-.83.71-7.51,0-15.03-.01-22.54.01-.61,0-.85-.29-1.07-.73-.56-4.4-1.12-8.8-1.69-13.2.24.7.79.72,1.43.72,7.68-.02,15.35-.01,23.03-.01.13.05.15.18.21.29-.07.96.08,1.9.3,2.83.2.39-.05.85.19,1.23.03,2.32.7,4.56.84,6.87.03.41.1.84.12,1.27h.01Z"/>
  <path class="cls-91" d="M380.74,119.49c0-1.25.66-1.44,1.8-1.43,6.95.06,13.9.05,20.85,0,.81,0,1.25.21,1.44.97.35,4.29,1.52,8.32,3.89,11.95.11.16.17.35.25.53-.44-.25-.91-.24-1.39-.24-7.45,0-14.91,0-22.36,0-.47,0-1.22-.32-1.2.66-1.15-2.16-1.86-4.49-2.36-6.86-.39-1.85-.96-3.68-.91-5.61v.02Z"/>
  <path class="cls-121" d="M306,181.44c1.82-.08,3.66-.25,5.46.13.53.11.93-.12,1.4-.14,2.21-.06,4.43-.33,6.63-.18,2.42.16,4.84.02,7.27.26,1.25.12,2.63.14,3.91-.2.53-.14.93.14,1.4.13,2.92-.03,5.83-.02,8.75-.11,1.74-.06,3.55-.15,5.3.1,1.09.16,2.09-.43,3.2-.13.48.13.33-.52.33-.83.02-2.24,0-4.48.02-6.72,0-.39-.12-.81.17-1.15.02,4.06.04,8.12.06,12.17-.4.29-.85.14-1.28.14-6.48,0-12.95.03-19.43,0-.97,0-1.31.22-1.28,1.24.07,2.08.04,4.16.01,6.23-1.25.8-2.67.58-4.02.6-2.26.04-4.5-.34-6.78-.17-3.46.25-6.94-.15-10.41-.02-.32,0-.64-.07-.86-.34-.05-.11-.14-.21-.14-.33-.21-3.35-.14-6.69-.04-10.04,0-.24.13-.46.32-.62h.01Z"/>
  <path class="cls-41" d="M98.74,178.3c.39-.28.84-.22,1.27-.22h21.56c.44,0,.88-.03,1.27.23.19.63-.2,1.34.25,1.94.29.42.08.89.15,1.33.04.51-.08,1.03.08,1.53.03.09.06.17.09.26.08,2.48.22,4.96-.07,7.43h-24.43c-.21-.31-.15-.63-.05-.95.02-.69.04-1.39.06-2.08.23-2.36.04-4.72.1-7.09-.08-.54.18-1.11-.15-1.63-.33-.2-.21-.48-.12-.75h0Z"/>
  <path class="cls-35" d="M93.72,256.28c.16-.74.71-.7,1.29-.7h24.25c1.3,3.74,3.14,7.15,6.01,9.94.4.38.82.74,1.23,1.11-.78.39-1.55-.01-2.33,0-8.53.02-17.06,0-25.59.01-.57,0-1.27-.17-1.37.73-1.51-2.79-2.35-5.8-3.03-8.87-.16-.74-.31-1.48-.46-2.22Z"/>
  <path class="cls-93" d="M325.19,86.66c-.63.89-1.65.6-2.46.67-1.8.15-3.62-.12-5.42-.15-1.42-.02-2.84.16-4.28.14-1.77-.03-3.57-.31-5.29-.1-2.15.26-4.26-.12-6.4.04-2.62.19-5.28.26-7.95-.03-2.13-.24-4.33.04-6.49.22-.57.05-1.1-.05-1.64-.07-3.5-.12-7,.01-10.49.03-1.5,0-3.01.07-4.52-.17-.87-.14-1.8.18-2.72.16-2.21-.04-4.44-.23-6.62-.11-1.19.07-2.41-.02-3.58-.02-2.07,0-4.16.14-6.25-.01-.97-.07-2.01-.05-3.03.04-2.18.2-4.4-.02-6.6.07-1.64.07-3.26-.34-4.93-.06-1.29.22-2.66-.13-3.99-.03-1.85.13-3.7-.42-5.55,0-.38.09-.8.14-1.18.1-2.36-.23-4.73-.05-7.09-.13-2.53-.09-5.09-.11-7.65.04-1.83.1-3.73.16-5.61-.02-1.23-.12-2.55-.05-3.78.09-1.79.2-3.55-.12-5.31-.11-2.6.02-5.21.48-7.83-.03-1.15-.23-2.38-.07-3.57.01-2.4.17-4.79-.09-7.18,0-.64.02-.9-.17-.88-.78.12-.61.5-1.06.95-1.46.58.92,1.57.54,2.31.54,2.71.02,5.42-.06,8.13-.1,2.77-.04,5.56-.12,8.33-.19,1.75-.04,3.57.22,5.35.22,2.19,0,4.39-.25,6.58-.17,1.83.06,3.72.28,5.48.08,2.62-.29,5.19.26,7.8-.03,1.6-.18,3.34-.28,5.02.07.59.12,1.27-.24,1.88-.15,2.65.39,5.3.02,7.95.08,2.4.06,4.84-.08,7.27-.08,3.31,0,6.62.19,9.93.21,3.35.02,6.7-.18,10.05-.24,1.28-.02,2.65.15,3.94.14,1.48-.02,2.97.18,4.51-.19,1.09-.26,2.47-.15,3.65.15,1.27.32,2.5-.07,3.76.08,1.77.21,3.61.22,5.38,0,2.61-.31,5.19.37,7.82-.09,1.47-.26,3.05.05,4.58.12,1.3.06,2.58-.15,3.89-.14,1.9.01,3.8-.06,5.7.18,1.24.16,2.47-.31,3.68-.21,2.32.19,4.63.11,6.95.2,1.07.04,2.14.13,3.21-.18,1.07-.31,2.19.44,3.29-.05.53.34.63.97.93,1.46l-.03-.04Z"/>
  <path class="cls-50" d="M391.42,14.95c-.37.62-.99.42-1.52.42h-38.52c-.29-1.75-.15-3.51-.07-5.27.01-1.04.03-2.08.04-3.12,1.65-.27,3.31-.09,4.97-.11,1.62-.02,3.24-.1,4.86.06l2.82.06c.56.24,1.18-.03,1.74.18.46.02.92.04,1.38.06.4.22.86,0,1.26.18,3.59.6,7.2,1.08,10.7,2.15,4.33,1.32,8.48,3,12.34,5.39h0Z"/>
  <path class="cls-100" d="M283.88,250.79h-21.77c-.33-.96-.12-1.96-.14-2.93-.03-1.94-.03-3.89,0-5.83.28-.47.76-.37,1.18-.39,2.91-.11,5.83-.13,8.74-.12,3.71,0,7.42.06,11.13,0,.35,0,.73-.11.99.26.04,2.78,0,5.57.02,8.35,0,.23.05.48-.15.67h0Z"/>
  <path class="cls-16" d="M239.96,250.79h-21.77c-.33-1.36-.09-2.73-.14-4.1-.04-1.14-.02-2.29,0-3.43.14-.37.46-.42.78-.41,5.45.1,10.9-.33,16.34,0,1.13.07,2.22-.11,3.33-.08.62.02,1.32-.06,1.6.73,0,2.09,0,4.18,0,6.27,0,.34.13.71-.15,1.02h0Z"/>
  <path class="cls-124" d="M262.11,53.06h21.77c.32,1.89.09,3.79.13,5.68-.73.69-1.66.44-2.51.46-4.63.12-9.25,0-13.88-.03-1.43,0-2.86.21-4.3,0-.47-.07-.97.02-1.33-.4.01-1.91-.21-3.81.11-5.71h.01Z"/>
  <path class="cls-72" d="M218.2,53.06h21.77c.33,1.9.11,3.81.12,5.71-.51.54-1.18.4-1.8.4-5.46,0-10.92,0-16.37,0-.8,0-1.6,0-2.39.06-.53.04-1.04,0-1.41-.45-.02-1.91-.2-3.83.1-5.73h-.02Z"/>
  <path class="cls-9" d="M213.85,333.12c-.18.4-.61.45-1.24.67,1.76.88,3.52,1.24,4.84,2.42-.07.69-.66.67-1.11.76-.57.12-1.16.09-1.73.17-1.91-.54-3.8-1.2-5.79-1.43-.75-.19-1.51-.1-2.26-.1h-12.3c-.61,0-1.13.07-1.63.54-.72.67-1.6.55-2.46.21-.41-1.21-.06-2.46-.21-3.68-.02-5.43-.04-10.86-.08-16.29,0-.93.61-.76,1.14-.76,5.27,0,10.54.01,15.82.02.16,0,.32-.01.48-.02.12.14.1.26-.06.36-.56.29-1.17.22-1.76.22h-13.16c-1.82,0-1.84.03-1.85,1.89,0,.52,0,1.04-.02,1.55.04,1.65.05,3.31,0,4.96.03,1.48,0,2.96.02,4.44,0,.6-.04,1.28.87,1.25.83-.02.78-.66.79-1.21.03-1.48,0-2.96.02-4.44-.04-1.65-.04-3.3,0-4.94.1-.61-.32-1.41.63-1.71.42.52.33,1.14.33,1.73,0,3.8,0,7.59,0,11.39,0,1.53.09,1.61,1.65,1.61,3.48,0,6.95.02,10.43,0,1.92-.01,3.81-.39,5.69-.75.65.39,1.34.62,2.12.6.34,0,.85-.07.86.55h-.03Z"/>
  <path class="cls-132" d="M401.76,349.44c-3.5,2.58-7.45,3.81-11.78,3.86-2.78.18-5.57.04-8.35.07-2.11.02-4.22.01-6.33,0-.38,0-.8.17-1.13-.18.03-1.67.06-3.34.09-5.01-.05-.73.36-.98,1.02-1.01.88-.04,1.71,0,1.99,1.08.33,2.26.33,2.29,2.66,2.25,3.87-.07,7.74.21,11.6-.2,1.76-.19,3.46-.56,5.09-1.26.55-.23,1.08-.54,1.7-.53.74.15,1.5.03,2.24.13.52.07,1.16.04,1.22.82l-.02-.02Z"/>
  <path class="cls-132" d="M189.86,353.19c.03-1.83.06-3.65.09-5.48.89-.8,1.97-.77,2.94.07.23.49.22,1.01.2,1.53-.04.89.41,1.19,1.24,1.19,2.55,0,5.1.03,7.65-.01,2.83-.05,5.66.22,8.48-.22,1.19-.19,2.28-.73,3.49-.81.73.16,1.49.02,2.22.18.49.11,1.15.01,1.29.76-2.48,2.05-5.45,2.65-8.55,2.85-.44.03-.87.05-1.31.07-2.07.17-4.14.06-6.21.07-3.47.02-6.93.01-10.4,0-.38,0-.8.17-1.13-.18v-.02Z"/>
  <path class="cls-40" d="M178.26,317.99c-.36.4-.83.19-1.24.19-6.63.02-13.26.02-19.9,0-.82,0-1.21.12-1.2,1.09.05,4.19.02,8.39,0,12.58,0,.58-.05,1.1.83,1.09,6.35-.04,12.7-.04,19.05-.06.45.79.22,1.61.1,2.43-2.83.15-5.66.05-8.48.06-3.43.02-6.86,0-10.29,0-.85,0-1.27.44-1.27,1.31v.36c0,1.29-1.12,1.92-2.25,1.29-.7-.39-.21-1.11-.45-1.62v-12c.58.14.5.65.53,1.04.05.82.05,1.64,0,2.47.02,1.07,0,2.15,0,3.22,0,.57.13,1.04.85,1.03s.82-.49.83-1.05c.02-1.07,0-2.15,0-3.22-.05-1.65-.04-3.29,0-4.93-.04-1.38-.05-2.77,0-4.15.16-1.32.36-1.51,1.88-1.51,5.74-.02,11.48,0,17.22,0,.8,0,1.59-.02,2.39,0,.47.02.97-.01,1.34.38h.03Z"/>
  <path class="cls-115" d="M392.14,315.78c3.49.49,6.73,1.63,9.6,3.71.17.8-.5.7-.89.72-.91.05-1.82.16-2.73.22-1.32-.31-2.52-.97-3.84-1.3-1.51-.38-3.04-.59-4.6-.56-4.05.07-8.11-.1-12.16.09-.58.18-.36.96-.88,1.18-.8.19-1.61.38-2.33-.24-.08-.96.03-1.92-.05-2.87-.07-.86.26-1.06,1.08-1.06,5.07.03,10.14.02,15.21.02.53.04,1.07-.08,1.59.08h0Z"/>
  <path class="cls-26" d="M235.19,319.17c2.6-2.33,5.84-3.06,9.14-3.63.4-.17.85.05,1.25-.17h3.47c.4.22.85,0,1.26.18,2.96.58,5.87,1.31,8.34,3.17.32.24.65.47.93.75,1.38,1.4,1.32.89.04,2.31-.49.54-.76.5-1.32.03-2.53-2.13-5.41-3.38-8.77-3.64-1.26-.1-2.51-.22-3.78-.14-.39.19-.85-.05-1.24.18-2.03.16-3.87.95-5.73,1.69-.85.15-1.71.16-2.56.08-.49-.05-1.06-.08-1.03-.81h0Z"/>
  <path class="cls-132" d="M153.13,353.22c.02-.95.04-1.91.05-2.86.16-1.15,1.41-1.73,2.38-1.11.33.21.31.5.32.82,0,.29-.1.67.4.68h21.46c.45,0,1.12-.26,1.32.23.26.65.21,1.43.02,2.12-.13.49-.69.26-1.06.26-4.64.01-9.27,0-13.91,0h-9.83c-.38,0-.8.14-1.15-.15h0Z"/>
  <path class="cls-83" d="M291.11,341.5c-.4-.11-.32-.9-.96-.68-.4.18-.85-.05-1.24.18-3.9,0-7.79.02-11.69-.02-.79,0-1.08.26-1.02,1-.88.53-1.76.52-2.65.01-.12-1.92-.11-3.85,0-5.77.87-.57,1.77-.45,2.67-.11.32.3.37.71.37,1.1,0,.77.38,1.07,1.12,1.05,4.02-.1,8.05.22,12.07-.23,1.31-.15,2.53-.73,3.86-.76.61.33,1.28.27,1.94.31.58.03,1.19,0,1.57.58-.83.87-1.91,1.33-3.02,1.67-.84.26-.79.62-.35,1.18-.72,1.04-1.72.63-2.66.51v-.02Z"/>
  <path class="cls-150" d="M289.91,315.78c2.87.49,5.66,1.17,7.94,3.14.01.75-.56.77-1.07.83-.71.09-1.43-.02-2.14.12-.08,0-.17.02-.24,0-3.89-1.63-7.98-1.26-12.04-1.28-1.32,0-2.63.04-3.95-.02-1.01-.05-1.8.14-2.17,1.19-.9.36-1.8.44-2.68-.06-.08-1.37-.27-2.75.1-4.11,4.91,0,9.83,0,14.74.01.48.23,1.02-.02,1.5.18h.01Z"/>
  <path class="cls-15" d="M248.71,350.88c2.87.06,5.42-.97,7.87-2.35.72.05,1.43.06,2.15.09.47.02.98.01,1.22.57-1.78,1.85-4.07,2.8-6.46,3.54-1.58.49-3.2.81-4.86.82-.95.12-1.9.12-2.85,0-3.68-.1-7.03-1.21-10.11-3.2-.42-.28-.79-.64-1.18-.96-.2-.69.35-.71.74-.73.8-.05,1.59-.17,2.38-.21,1.97.91,3.9,1.92,6.09,2.29.75.13,1.49.15,2.24.16.92.17,1.85.17,2.77,0v-.02Z"/>
  <path class="cls-150" d="M178.26,317.99c-7.1,0-14.21.02-21.31-.03-.97,0-1.31.31-1.21,1.22-.82.52-1.63.54-2.44-.03-.1-.88,0-1.76-.05-2.63-.04-.63.2-.86.82-.82.6.04,1.2,0,1.8,0h21.09c.43,0,.88-.11,1.29.11.11.72.1,1.44,0,2.16v.02Z"/>
  <path class="cls-115" d="M190.1,319.66c0-.84.05-1.68-.03-2.51-.1-1.03.22-1.37,1.31-1.36,5.34.05,10.68,0,16.01,0,.39-.13.78-.12,1.17,0,2.21.39,4.33,1.04,6.25,2.25.17.87-.54.72-.97.76-.97.1-1.96-.01-2.93.22-5.36-1.08-10.79-.51-16.18-.66-.66-.02-1.36.14-1.95-.34-.53.47-.16,1.1-.28,1.65-.79.5-1.58.51-2.38,0h-.02Z"/>
  <path class="cls-127" d="M128.67,353.15c-.82-2.44-1.83-4.82-2.41-7.34.62-.72,1.34-.79,2.53-.23.42,1.14.83,2.28,1.26,3.42,0,.03.07.03.19.09.46-1.34.91-2.67,1.37-4,.95-.31,1.86-.22,2.75.24-.86,2.63-1.73,5.26-2.59,7.89-1.04.19-2.07.34-3.1-.07h0Z"/>
  <path class="cls-127" d="M102.73,345.82c.39,1,.78,2.01,1.22,3.15.8-1,.69-2.28,1.44-3.15.8-.9,1.69-.71,2.62-.24-.73,2.17-1.44,4.35-2.19,6.51-.1.3-.24.58-.21.91-.97.76-2.06.25-3.1.3-1.01-2.35-1.69-4.81-2.4-7.25.81-.8,1.69-.74,2.62-.23Z"/>
  <path class="cls-123" d="M355.9,346.3c.42.47.84.94,1.26,1.42.64-.05.23-.53.3-.8.11-.38-.15-.89.42-1.1.84-.11,1.7-.35,2.44.31.06,2.03-.04,4.06.05,6.08.04.95-.25,1.33-1.19,1.17-.44-.08-.94.2-1.33-.22-1.6-2.05-3.21-4.1-4.81-6.15-.27-.69.28-.83.71-.94.73-.2,1.48-.21,2.16.24h-.01Z"/>
  <path class="cls-97" d="M312.96,353.2c.02-4.77.05-9.54.07-14.3.82.48.39,1.27.5,1.93.04,1.43,0,2.85.02,4.28,0,.56.1,1.04.83,1.04s.83-.48.84-1.04c.03-1.47-.01-2.93.02-4.4-.04-1.72-.04-3.44,0-5.15-.04-1.18-.03-2.37,0-3.55.01-.45-.07-.98.48-1.23.02,2.8.05,5.59.07,8.39.02,4.68.02,9.35.03,14.03-.95.34-1.9.29-2.86.02v-.02Z"/>
  <path class="cls-61" d="M376.94,348.22c-.58-1.01-2.08-1.03-2.69-.04-.11-5.89-.11-11.78,0-17.67.61.28.49.86.5,1.34.03,1.27.04,2.54,0,3.8.02,1.08-.03,2.16.02,3.23.02.63-.23,1.51.86,1.49.99-.02.77-.83.81-1.43.04-.48-.03-.97.16-1.42.1-.23.23-.59.59-.22.19.32.23.68.23,1.04.02,2.86.02,5.73,0,8.59,0,.47.02.97-.46,1.28h-.02Z"/>
  <path class="cls-143" d="M153.19,336.72c.44.4-.23,1.44.97,1.45,1.55,0,1.67.04,1.58-1.53-.06-1.1.29-1.41,1.4-1.4,6.23.05,12.47.03,18.7.03.18.09.17.17-.02.22-6.33-.02-12.67-.02-19-.06-.68,0-.88.25-.89.91,0,1.51.13,3.03-.08,4.53.09.86,0,1.73.05,2.6.05.75-.14,1.24-.99,1.25-.78,0-1.66.17-1.71-1.03v-6.96h0Z"/>
  <path class="cls-61" d="M192.64,347.74c-.89-.39-1.79-.35-2.69-.03-.11-5.02-.11-10.03,0-15.05.32,1.17.05,2.37.15,3.56.64,1.04.23,2.19.35,3.28.06.56.25.91.87.89.56-.02.76-.34.79-.85.02-.32,0-.64.02-.96,0-.4,0-.81.2-1.17.12-.22.29-.4.54-.11.19.32.23.68.23,1.04.02,2.7.03,5.41,0,8.11,0,.47.02.97-.46,1.28h0Z"/>
  <path class="cls-36" d="M374.4,335.74c-.11-1.74.17-3.49-.16-5.23-.02-4.72-.03-9.43-.08-14.15,0-.94.62-.75,1.15-.75h14.75c.2,0,.4-.02.6-.02.09.03.12.08.1.17-4.98.02-9.97.07-14.95.02-1.17-.01-1.56.33-1.43,1.47.09.79.03,1.59.03,2.39.59.83.31,1.78.35,2.68.03.76.04,1.52-.02,2.28.03,1.23.04,2.46,0,3.69-.03.97.14,1.66,1.32,1.6.31-.02.63.09.85.36.4,1.64.25,3.3.12,4.94-.08.98-1.3,1.19-2.64.54h0Z"/>
  <path class="cls-38" d="M398.13,320.15c.91-.21,1.83-.29,2.77-.25.34.01.73.09.84-.4,2.17,1.46,3.85,3.37,5.04,5.7-.15.72-.75.52-1.2.57-.46.05-.93.03-1.39-.04-.42-.07-.71-.32-.95-.65-1.22-1.69-2.76-3.02-4.49-4.16-.28-.18-.68-.29-.63-.76h.01Z"/>
  <path class="cls-119" d="M91.94,322.06c-1-1.89-1.46-3.98-2.15-5.98-.04-.12-.05-.34.02-.41.46-.43,2.85.1,3.04.68.65,1.98,1.28,3.97,1.91,5.95-1.16.56-2.03.49-2.83-.24h.01Z"/>
  <path class="cls-135" d="M178.25,315.83c-7.86,0-15.72.02-23.58-.03-1.07,0-1.44.3-1.32,1.35.08.67.02,1.35.02,2.03.5.62.37,1.35.34,2.04-.04,1.03.11,1.81,1.4,1.74.24-.01.45.12.63.29v5.04c-.79.52-1.58.51-2.37,0-.1-1.19.21-2.4-.19-3.58-.02-2.75-.02-5.5-.06-8.26,0-.59.14-.86.8-.86,7.98.02,15.96.01,23.94.02.13,0,.26.13.39.19v.03Z"/>
  <path class="cls-14" d="M114.49,319.66c.36-1.19.62-2.43,1.11-3.56.41-.95,1.41-.31,2.13-.46.49-.1.78.1.94.63.41,1.38.89,2.75,1.34,4.12-1.02.63-1.98.42-2.9-.23h-.2c-.49.68-1.2.64-1.89.51-.55-.1-.82-.42-.53-1h0Z"/>
  <path class="cls-48" d="M123.69,338.86c-.8-2.32-1.6-4.64-2.41-6.96.81-.4,1.73-.19,2.56-.46.95,2.27,1.66,4.62,2.4,6.96.12,1.05-.7.91-1.3,1-.51.07-.91-.19-1.26-.54h.01Z"/>
  <path class="cls-129" d="M329.82,315.59c1.95-.41,2.91.82,3.81,2.25.56.89,1.27,1.69,1.91,2.54-.09.08-.16.2-.28.21-1.84.21-3.69.44-5.51-.14-.14-1.62-.28-3.24.07-4.85h0Z"/>
  <path class="cls-67" d="M237.61,348.44c-.52.66-1.27.45-1.96.51-.42.04-.99-.27-1.17.43-1.89-1.28-3.31-2.96-4.32-5,.63-1.15,1.69-.75,2.65-.73,1.31,1.89,3,3.4,4.8,4.79h0Z"/>
  <path class="cls-8" d="M97.75,339.58c-.71-2.08-1.42-4.16-2.13-6.24.87-.84,1.81-.73,2.79-.24.87,2.11,1.59,4.27,2.17,6.48-.94.57-1.89.49-2.83,0h0Z"/>
  <path class="cls-139" d="M235.19,319.17c.24.55.72.48,1.19.5.8.05,1.63-.19,2.4.23-2.06,1.19-3.8,2.74-5.33,4.55-.66.23-1.34.16-2.01.06-.54-.09-.92-.34-.56-.98,1.03-1.85,2.39-3.38,4.31-4.35h0Z"/>
  <path class="cls-94" d="M97.75,339.58h2.83c.81,2.05,1.59,4.11,2.14,6.24-.88,0-1.77-.08-2.62.23-1.02-1.83-1.37-3.9-2.15-5.82-.09-.21-.14-.44-.21-.66h.01Z"/>
  <path class="cls-107" d="M123.69,338.86c.91.16,1.9.77,2.56-.46.85,2.4,1.7,4.79,2.54,7.19-.84.12-1.73-.26-2.53.23-.95-1.54-1.18-3.34-1.83-4.99-.26-.65-.49-1.31-.74-1.97h0Z"/>
  <path class="cls-126" d="M134.35,345.34c-.93.03-1.85,0-2.75-.24.71-2.08,1.43-4.16,2.14-6.24.93-.51,1.85-.54,2.78,0-.72,2.16-1.45,4.32-2.17,6.48h0Z"/>
  <path class="cls-98" d="M123.85,331.44c-.73.85-1.69.42-2.56.46-.73-2.16-1.46-4.32-2.19-6.48.82-.55,1.71-.33,2.59-.23.9,2.02,1.46,4.16,2.16,6.25h0Z"/>
  <path class="cls-67" d="M401.76,349.44c-.45-.58-1.1-.46-1.72-.51-.56-.04-1.18.25-1.66-.26,1.77-1.66,3.59-3.28,5.43-4.87.82.31,1.76.06,2.52.6-1.01,2.15-2.71,3.68-4.57,5.05h0Z"/>
  <path class="cls-141" d="M355.9,346.3c-.63,0-1.27-.03-1.9.01-.43.03-.88.13-.96.69-1.36-1.75-2.73-3.5-4.09-5.25.05-.63.57-.55.95-.58.65-.06,1.31-.13,1.96.07,1.5,1.57,2.74,3.33,4.04,5.06h0Z"/>
  <path class="cls-74" d="M315.72,330.77c-.29,1.57-.03,3.16-.14,4.74-.35.33-.78.36-1.23.36-.84,0-1.34-.24-1.29-1.24.08-1.59,0-3.19.03-4.78.23-.41.65-.44,1.04-.44.91,0,1.12-.5,1.11-1.29-.02-1.15-.03-2.29,0-3.44-.03-1.32-.04-2.65,0-3.97.04-1.52-.14-3.05.12-4.56.06-.14.15-.25.27-.34.05.11.14.21.14.32-.01,4.88-.03,9.76-.05,14.65h0Z"/>
  <path class="cls-56" d="M313.2,329.74c0,1.44.07,2.88-.03,4.32-.08,1.15.28,1.64,1.45,1.45.31-.05.64,0,.96,0v5.28c-.79.5-1.58.5-2.38,0-.09-.62.16-1.28-.16-1.88v-18.27c.07,0,.15.02.22.03.04.06.09.12.13.18.33,1.31.12,2.63.16,3.95.06,1.2.02,2.4.02,3.6,0,.48-.01.97-.36,1.36v-.02Z"/>
  <path class="cls-4" d="M329.75,320.38h5.79c.61.68,1.25,1.34,1.68,2.16-1.11.61-2.23.52-3.35,0-.34-.4-.69-.79-1.03-1.19-.59.14-.25.61-.32.93-.15.62.3,1.35-.31,1.9-.85.19-1.7.34-2.5-.19-.07-1.2-.17-2.41.05-3.61h0Z"/>
  <path class="cls-57" d="M351.86,341.25c-.89.61-2.03-.13-2.92.51-1.28-1.46-2.47-2.98-3.6-4.57.19-.83.91-.71,1.48-.8.46-.08.94-.03,1.4.08,1.23,1.58,2.55,3.08,3.63,4.78h.01Z"/>
  <path class="cls-27" d="M98.41,333.1c-.93.04-1.89-.14-2.79.24-.65-1.92-1.3-3.84-1.95-5.76.9-.57,1.86-.34,2.82-.23.84,1.85,1.34,3.81,1.92,5.75h0Z"/>
  <path class="cls-71" d="M348.23,336.47c-.88.55-2.07-.13-2.88.72-1.2-1.52-2.4-3.05-3.59-4.57.03-.65.55-.69,1-.76.55-.08,1.1-.11,1.64-.22,1.28,1.61,2.55,3.22,3.83,4.83h0Z"/>
  <path class="cls-98" d="M403.92,325.42c.95-.11,1.94.25,2.86-.23,1.05,1.78,1.76,3.67,1.92,5.75-.86.44-1.74.59-2.66.18-.69-1.9-1.71-3.69-2.12-5.7h0Z"/>
  <path class="cls-120" d="M213.85,333.12c-.54-.49-1.2-.13-1.78-.27-.37-.09-1.06.16-.87-.67,1.68-1.2,3.17-2.59,4.32-4.31.04-.05.14-.05.22-.08.81-.03,1.64-.29,2.38.27-.59,2.39-2,4.08-4.27,5.06h0Z"/>
  <path class="cls-84" d="M218.12,328.06c-.88,0-1.77,0-2.65-.01-.05-.06-.13-.13-.12-.2.13-1.77-.04-3.53-.17-5.29.8-.81,1.78-.61,2.75-.51.69,1.27.59,2.68.7,4.05-.24.38.02.85-.19,1.24-.1.24-.21.48-.31.73h-.01Z"/>
  <path class="cls-136" d="M153.19,343.68c.41,1.13,1.37.7,2.1.65.78-.05.43-.79.47-1.24.07-.74.06-1.49.09-2.23.21,2.66.03,5.31.1,7.97,0,.59.04,1.19.07,1.78.08.05.11.1.09.15-.02.06-.05.08-.07.08-.34-.67-.23-1.66-1.56-1.49-.76.1-1.11.32-1.28.99v-6.68.02Z"/>
  <path class="cls-88" d="M230.89,323.52c-.06.62.31.71.82.71.59,0,1.2-.14,1.75.21-.94,1.45-1.77,2.96-2.38,4.59-.58.82-1.36.61-2.11.38-.5-.15-.78-.52-.47-1.08.39-1.81,1.19-3.41,2.4-4.81h0Z"/>
  <path class="cls-86" d="M276.2,347.26l.04,5.98c-.73.3-1.49.08-2.23.13-.53.04-.53-.35-.52-.72.03-1.79-.06-3.57.05-5.36.88-.58,1.77-.55,2.67-.03h-.01Z"/>
  <path class="cls-133" d="M327.82,146.16c0-1.36.08-2.72,0-4.08-.05-.96.27-1.21,1.21-1.21,6.48.04,12.95.02,19.43.02.48,0,.96-.04,1.44-.05-.36.48-.89.27-1.34.27-6.4,0-12.79.04-19.19-.02-1.07,0-1.34.3-1.33,1.35.05,6.32.05,12.63,0,18.95,0,1.04.25,1.36,1.33,1.35,6.4-.05,12.79-.03,19.19-.02.45,0,.97-.21,1.34.26h-.12s-.12,0-.12,0c-.47.4-1.04.37-1.59.37-6.21,0-12.43.02-18.64,0-1.7,0-1.96-.28-1.98-1.93-.01-1.15-.05-2.31.03-3.46-.07-3.48-.02-6.96-.02-10.43,0-.48.02-.97.37-1.36h0Z"/>
  <path class="cls-133" d="M239.96,250.79c0-2.48.02-4.96.03-7.44-.28-.45-.37-.95-.37-1.48v-7.73c0-.48.02-.96.37-1.34,0-1.08.04-2.16.02-3.24-.02-.62.22-.84.84-.84,6.79,0,13.59,0,20.38,0,.62,0,.86.21.84.84-.03.84,0,1.68.02,2.52.35.39.37.87.38,1.34.01,2.38.01,4.77,0,7.15,0,.48-.03.96-.38,1.34,0,2.96.02,5.92.03,8.87-.47-.37-.26-.89-.27-1.34-.01-6.4-.04-12.79.02-19.19,0-1.08-.31-1.34-1.35-1.33-6.36.05-12.71.04-19.07,0-.93,0-1.23.24-1.22,1.21.04,6.44.03,12.87,0,19.31,0,.45.21.97-.27,1.34h0Z"/>
  <path class="cls-84" d="M96.49,327.35c-.91.48-1.88.11-2.82.23-.58-1.84-1.15-3.68-1.73-5.52.91.46,1.89.15,2.83.24.57,1.68,1.14,3.37,1.71,5.05h.01Z"/>
  <path class="cls-69" d="M301.91,326.39c.58,2.79.12,5.41-1.24,7.9-.95.12-1.93.4-2.71-.48.69-2.18.96-4.44,1.24-6.69.66-.04.57.51.64.88.12.54.45.68.94.67.55-.01.75-.32.79-.83.04-.5-.08-1.04.34-1.45h0Z"/>
  <path class="cls-126" d="M232.81,343.64c-.79.56-1.91-.03-2.65.73-1.35-1.59-1.8-3.54-2.19-5.51.88-.21,1.79,0,2.67-.24.59,1.73,1.26,3.43,2.17,5.02Z"/>
  <path class="cls-14" d="M357.67,315.6h2.49c.38,1.91.16,3.84.12,5.76-.9.53-1.8.51-2.71.03-.08-1.93-.28-3.86.11-5.78h0Z"/>
  <path class="cls-79" d="M294.71,319.69c.58-.53,1.28-.19,1.93-.26.47-.05.97.04,1.21-.52,1.67,1.12,2.71,2.7,3.35,4.58,0,.62-.52.51-.87.55-.51.06-1.03.14-1.55.11-1.39-1.46-2.63-3.06-4.08-4.47h0Z"/>
  <path class="cls-18" d="M214.57,336.94c.89-.52,2.07.09,2.89-.74,1.64,1.4,2.77,3.06,2.83,5.3-.84.48-1.71.47-2.6.18-.32-.28-.42-.67-.53-1.05-.36-1.18-.98-2.16-2.01-2.88-.27-.19-.67-.34-.58-.81Z"/>
  <path class="cls-47" d="M230.64,338.62c-.82.87-1.75.49-2.67.24-.34-.35-.04-.83-.25-1.21-.2-.39.05-.85-.19-1.24l.09-4.23c.38.05.37.38.41.63.07.45.14.87.73.92.6.05,1.01-.12,1.17-.75.05-.19.15-.37.41-.35-.03,2-.04,4,.29,5.98h.01Z"/>
  <path class="cls-101" d="M299.53,353.29c-.97-1.36-1.93-2.73-2.9-4.09.47-.97,1.29-1.12,2.67-.5,1.27,1.31,2.09,2.97,3.3,4.33.07.27-.09.35-.3.34-.92-.03-1.85.11-2.77-.08h0Z"/>
  <path class="cls-8" d="M136.52,338.86h-2.78c.71-1.91,1.13-3.94,2.11-5.76.7.53,1.66.2,2.36.72-.45,1.72-1.04,3.39-1.69,5.04Z"/>
  <path class="cls-19" d="M217.93,322.05c-.81.53-1.8.04-2.63.49-.56-.17-.72-.71-1.03-1.11-.67-.88-1.6-1.42-2.54-1.95-.33-.19-.78-.25-.83-.75.91-.36,1.87-.24,2.82-.28.39-.01.92.22,1.08-.42,1.61.9,2.67,2.22,3.13,4.02h0Z"/>
  <path class="cls-46" d="M114.49,319.66c-.04.93.65.68,1.16.72.44.03.87-.02,1.27-.23-.66,1.84-1.33,3.67-1.99,5.51-1.29.61-2.04.47-2.51-.46.54-1.54,1.1-3.07,1.6-4.63.11-.35.25-.64.47-.92h0Z"/>
  <path class="cls-54" d="M108,345.58c-.87.09-1.78-.21-2.62.24.55-2.13,1.18-4.23,2.15-6.22.53.75,1.53.44,2.16.94-.42,1.73-.99,3.4-1.7,5.03h0Z"/>
  <path class="cls-80" d="M137.3,328.81c.37-1.68.84-3.31,1.67-4.83.87-.1,1.73-.17,2.6,0-.53,1.79-1.04,3.59-1.86,5.28-.55.44-1.18.4-1.81.29-.36-.07-.84-.14-.59-.74h-.01Z"/>
  <path class="cls-131" d="M298.05,333.81c.81.53,1.81-.03,2.62.47-.75,1.68-1.93,2.96-3.53,3.86-.8-.3-1.63-.25-2.45-.25-.37,0-.83.13-.93-.45,1.17-1.18,2.68-1.97,3.7-3.31.14-.18.31-.38.59-.32h0Z"/>
  <path class="cls-98" d="M112.42,325.2c.7.89,1.68.28,2.51.46-.56,1.78-1.13,3.56-1.87,5.28-.64.47-1.31.45-1.95.07-.38-.23-.43-.62-.2-1.01.38-1.64.95-3.21,1.52-4.79h-.01Z"/>
  <path class="cls-38" d="M121.69,325.19c-.83.49-1.73.11-2.59.23-.72-1.73-1.06-3.61-1.98-5.27.95.31,1.93.22,2.9.23.75,1.54,1.12,3.21,1.68,4.81h-.01Z"/>
  <path class="cls-65" d="M258.06,338.4c-.02-.39-.04-.79-.04-1.18,0-1.69.84-2.58,2.53-2.66.46.72.16,1.51.19,2.27.05,1.06.06,2.12-.02,3.19-.51.54-1.16.4-1.78.36-.55-.04-.87-.31-.83-.92.02-.35.05-.71-.06-1.06h0Z"/>
  <path class="cls-111" d="M110.9,329.99c-.05.71.31.98.99.95.39-.02.78,0,1.17,0-.38,1.75-1.12,3.37-1.72,5.04-1.22.55-1.8.44-2.36-.48.52-1.88.99-3.78,1.92-5.51Z"/>
  <path class="cls-154" d="M276.2,347.26h-2.61c-.17-1.76-.17-3.52,0-5.28h2.61v5.28Z"/>
  <path class="cls-96" d="M298.6,323.98c.81-.46,1.8.04,2.6-.48.49.9.74,1.87.71,2.9v1.19c0,1.52,0,1.49-1.52,1.46-.68-.01-.93-.26-.88-.92.02-.34.09-.72-.18-1.02-.65-.95-.88-1.99-.73-3.12h0Z"/>
  <path class="cls-39" d="M344.4,331.64c-.1.66-.62.48-1.02.49-.59.02-1.2-.04-1.63.49-1.09-1.32-2.26-2.59-3.12-4.09.2-.79.87-.51,1.37-.57.51-.07,1.03-.08,1.53.09,1.13,1.06,1.88,2.42,2.86,3.59h.01Z"/>
  <path class="cls-52" d="M230.35,332.64c-.38.49.1,1.41-1.18,1.49-1.78.11-1.26-1.13-1.54-1.95.09-1.33.21-2.65.87-3.86.33,1.02,1.04,1.21,2.58.7-.29,1.19-.66,2.37-.73,3.61h0Z"/>
  <path class="cls-68" d="M217.45,350.38c-.66-.41-1.39-.48-2.14-.49-.42,0-.88.16-1.22-.25-.06-.29.14-.43.33-.57,1.02-.71,1.86-1.58,2.47-2.66.18-.32.43-.56.81-.64.81-.03,1.65-.29,2.4.28-.28,1.81-1.26,3.19-2.64,4.32h0Z"/>
  <path class="cls-136" d="M259.94,349.19c-.66-.39-1.39-.21-2.09-.25-.46-.02-.97.1-1.28-.41,1.47-.68,1.58-1.94,1.44-3.33-.05-.5.02-1.02.04-1.53.62.3,1.19.71,1.94.66.3-.02.63.06.75.44-.05,1.31.12,2.61-.09,3.91-.24.17-.48.33-.72.5h0Z"/>
  <path class="cls-62" d="M406.33,344.39c-.91-.05-1.87.17-2.67-.49-.16-.34,0-.62.16-.89.59-.95.99-1.98,1.39-3.01.12-.31.14-.74.65-.71.67.62,1.67.22,2.36.77-.27,1.6-.91,3.04-1.9,4.33h.01Z"/>
  <path class="cls-114" d="M406.1,330.94c.87.28,1.74-.15,2.6,0,.26.18.19.48.28.73.21.48-.06,1.01.18,1.49v2.52c-.09.12-.21.21-.34.28-.38.15-.77.14-1.16.13-1.12-.04-1.37-.28-1.44-1.4-.03-.43-.02-.86-.16-1.28,0-.82-.56-1.65.03-2.46h.01Z"/>
  <path class="cls-12" d="M220.09,346.06h-2.66c-.15-.15-.23-.35-.19-.54.35-1.32-.08-2.73.49-4.02h2.56c.49,1.54.39,3.06-.19,4.56h0Z"/>
  <path class="cls-69" d="M137.3,328.81c.65.95,1.62.21,2.4.45-.34,1.57-.91,3.06-1.49,4.55h-1.5c-.49,0-.82-.19-.86-.72.26-1.5.92-2.88,1.45-4.29h0Z"/>
  <path class="cls-58" d="M299.3,348.69c-.88.21-1.93-.46-2.67.5-1.02-1.32-2.07-2.61-2.87-4.09.77-.74,1.72-.57,2.64-.49,1.02,1.32,2.1,2.6,2.9,4.09h0Z"/>
  <path class="cls-102" d="M108.97,335.5c.67.74,1.56.4,2.36.48-.43,1.56-.91,3.11-1.63,4.56-.43,0-.86-.01-1.28,0-.65.02-.93-.31-.88-.93.3-1.43.69-2.83,1.43-4.1h0Z"/>
  <path class="cls-133" d="M156.02,350.85c-.03-.08-.04-.15-.02-.23,7.32,0,14.64.03,21.95-.03,1.2-.01,1.37.44,1.35,1.46,0,.97-.08,1.49-1.33,1.48-7.88-.06-15.76-.03-23.63-.04-.41,0-.89.18-1.22-.27,5.91.02,11.82.04,17.73.05,2.4,0,4.79-.05,7.19.03,1.04.03,1.05-.48,1.04-1.23,0-.73.04-1.26-1.02-1.25-7.35.05-14.7.03-22.05.04h.01Z"/>
  <path class="cls-139" d="M141.56,323.99c-.87.33-1.73.41-2.6,0,.29-1.76,1.1-3.36,1.68-5.03.56.98,1.58.44,2.36.71-.48,1.44-.96,2.88-1.45,4.32h.01Z"/>
  <path class="cls-110" d="M406.36,333.34c.04.07.1.13.12.2.26.69-.37,1.68.39,2.08.57.3,1.4.1,2.11.13.11.47.12.94,0,1.41-.32.95-.25,2-.76,2.89h-1.54c-.51,0-.83-.21-.87-.74-.25-.72.17-5.32.55-5.97h0Z"/>
  <path class="cls-53" d="M260.6,344.62c-.39,0-.78-.05-1.16.01-.8.14-1.21-.21-1.38-.95v-5.28c.3,1.11,1.15,1.66,2.54,1.66.25,1.52.25,3.04,0,4.56Z"/>
  <path class="cls-96" d="M341.53,328.05c-.89.6-2.01-.11-2.9.49-1.04-1-1.91-2.12-2.64-3.36.2-.79.87-.51,1.37-.57.51-.07,1.03-.08,1.53.09,1.05.99,1.85,2.17,2.64,3.36h0Z"/>
  <path class="cls-94" d="M296.4,344.6c-.82.47-1.79.19-2.64.49-1.04-1.09-1.84-2.35-2.66-3.59.83-.47,1.85.05,2.66-.51,1.04,1.08,1.83,2.35,2.63,3.61h.01Z"/>
  <path class="cls-24" d="M143.01,319.67c-.45.31-.97.19-1.46.24-.74.07-.98-.28-.89-.95.03-.99.56-1.85.81-2.78.13-.49,2.18-.82,2.61-.47.31.26.14.56.03.86-.37,1.03-.73,2.07-1.09,3.1h0Z"/>
  <path class="cls-133" d="M349.91,119.08l-.12-.02h-.12c-.47.41-1.04.37-1.59.37-6.21,0-12.42.02-18.64,0-1.73,0-1.97-.28-2-2.04-.01-.96-.01-1.91.03-2.87-.04-3.76-.05-7.53,0-11.29-.06-1.8-.02-3.59-.02-5.39,0-.48.02-.96.36-1.36.02-.31.04-.63.06-.94.35.42.19.92.19,1.38.01,6.78,0,13.57,0,20.35,0,1.02.53,1.53,1.58,1.53h18.92c.45,0,.97-.2,1.34.26v.02Z"/>
  <path class="cls-133" d="M283.88,250.79c0-3.04.02-6.08.03-9.11-.32-.35-.37-.78-.37-1.23-.02-2.3-.02-4.61,0-6.91,0-.44.05-.88.37-1.22,0-.88.06-1.76.01-2.64-.04-.74.23-.96.96-.96,7.51.03,15.02.03,22.53.03-.42.36-.92.2-1.38.2-6.82,0-13.65.04-20.47-.02-1.18,0-1.44.36-1.43,1.48.05,6.35.03,12.69.02,19.04,0,.45.21.97-.27,1.34h0Z"/>
  <path class="cls-133" d="M218.17,243.11c0,2.56.02,5.12.03,7.67-.47-.37-.26-.89-.27-1.34,0-6.35-.04-12.69.02-19.04,0-1.12-.25-1.49-1.43-1.48-6.82.06-13.65.03-20.47.02-.46,0-.96.17-1.38-.2,7.51,0,15.02,0,22.53-.03.73,0,.99.23.96.96-.04,1.04,0,2.08,0,3.11.35.39.37.87.38,1.34,0,2.54,0,5.09,0,7.63,0,.48-.03.96-.38,1.34v.02Z"/>
  <path class="cls-133" d="M327.82,192.48c0-2.16.07-4.32,0-6.47-.03-.96.28-1.21,1.22-1.2,6.6.04,13.19.02,19.79.02.36,0,.72-.03,1.08-.05-.37.47-.89.26-1.34.26-6.35,0-12.69.04-19.04-.02-1.12,0-1.49.25-1.48,1.44.06,6.82.03,13.65.02,20.47,0,.46.17.96-.2,1.38-.02-1.91-.03-3.83-.05-5.74-.35-.39-.37-.87-.37-1.35-.01-2.46-.01-4.92,0-7.39,0-.48.02-.96.37-1.35h0Z"/>
  <path class="cls-133" d="M239.99,58.81c0-1.92-.02-3.84-.02-5.75.48.37.27.89.27,1.34,0,6.4.04,12.8-.02,19.2,0,1.09.33,1.33,1.36,1.32,6.76-.04,13.52-.02,20.28-.01-.33.34-.75.19-1.14.19-6.5,0-13.01-.01-19.51.03-.95,0-1.23-.26-1.2-1.21.06-1.91,0-3.83-.02-5.74-.31-.35-.36-.79-.36-1.23-.02-2.3-.02-4.6,0-6.9,0-.44.05-.88.36-1.23h0Z"/>
  <path class="cls-133" d="M152.17,140.85c6.83.02,13.67.03,20.5.05,1.03,0,1.55.52,1.55,1.55,0,1.72.02,3.44.03,5.16.35.39.37.87.37,1.35,0,3.5.05,7-.03,10.5-.12,1.09.34,2.25-.38,3.27h-.22c0-6.79,0-13.59.03-20.38,0-.94-.25-1.23-1.21-1.22-6.43.04-12.87.03-19.3,0-.45,0-.97.2-1.34-.26v-.03Z"/>
  <path class="cls-133" d="M329.75,320.38v3.6c.65.94.29,2,.37,3.01.04.51.02,1.03-.02,1.54.04,1.84.04,3.68,0,5.52.04,1.99.05,3.99,0,5.98.04,1.68.04,3.35,0,5.03.03,1.48.04,2.96,0,4.44.01.68.03,1.36,0,2.03-.05.91.21,1.48,1.25,1.4.32-.02.64.03.92.2.05.05.09.1.14.14-.78.47-1.63.17-2.45.2-.35.02-.44-.29-.44-.59v-.96c0-11.63,0-23.26.01-34.89,0-.48-.25-1.05.3-1.44-.24,1.59-.11,3.19-.07,4.79h-.01Z"/>
  <path class="cls-133" d="M273.59,341.98v5.28c-.01,1.64.02,3.28-.06,4.91-.05.93.28,1.22,1.16,1.11.51-.06,1.04-.03,1.55-.04-.76.54-1.62.18-2.43.23-.35.02-.44-.29-.44-.59v-.96c0-11.63,0-23.26.01-34.89,0-.48-.25-1.05.3-1.44-.26,1.35-.11,2.71-.08,4.07.47.53.39,1.19.39,1.81,0,1.15.04,2.3-.02,3.45.04,1.85.04,3.69,0,5.54.06,1.47.02,2.94.02,4.41,0,.48-.03.96-.39,1.34v5.76h-.01Z"/>
  <path class="cls-133" d="M360.22,321.34c.04-1.92.16-3.83-.06-5.75.46.25.3.7.3,1.07v35.66c0,1.27-1.21,1.65-2.62.83,1.61.25,2.42-.4,2.42-1.96,0-1.71-.03-3.43-.04-5.14-.5-.62-.36-1.35-.36-2.05-.01-1.07-.04-2.13.02-3.2-.04-1.6-.04-3.21,0-4.81-.04-1.6-.04-3.2,0-4.8-.04-1.6-.04-3.21,0-4.81-.06-1.23-.02-2.46-.02-3.69,0-.48.02-.96.36-1.35Z"/>
  <path class="cls-81" d="M338.9,324.69c-.89.6-2.01-.11-2.9.49-.83-.78-1.51-1.68-2.12-2.64h3.35c.69.61,1.21,1.37,1.68,2.16h-.01Z"/>
  <path class="cls-133" d="M357.67,315.6c-.18,1.91-.08,3.83-.05,5.74.58.86.29,1.84.34,2.77.04.75.04,1.5-.02,2.25.04,1.6.04,3.2,0,4.81.04,1.6.04,3.2,0,4.8.04,1.61.04,3.21,0,4.82.06,1.31.02,2.61.02,3.92,0,.48,0,.96-.34,1.35-.02.59.06,1.21-.08,1.77-.12.46-.28.04-.38-.11.35-.42.19-.92.19-1.38.01-9.81,0-19.62.02-29.43,0-.44-.23-.98.31-1.31h-.01Z"/>
  <path class="cls-133" d="M332.36,323.98c.01-.88.02-1.76.05-2.63,0-.16-.06-.46.28-.29.08.04.1.2.15.3-.37.42-.2.92-.2,1.38-.01,9.72,0,19.44-.02,29.16,0,.46.17.97-.22,1.37l-.03-.02c-.67-1.14-.26-2.39-.34-3.59-.04-1.52-.04-3.04,0-4.56-.04-1.68-.04-3.36,0-5.04-.04-1.99-.05-3.99,0-5.98-.04-1.84-.04-3.68,0-5.52.1-1.52-.36-3.09.32-4.57h.01Z"/>
  <path class="cls-133" d="M350.19,279.35c-.03,4.22-.04,8.44-.1,12.66-.01.78.36.8.94.8,3.22,0,6.45.01,9.67.03-.46.36-1,.19-1.5.19-2.76.02-5.51,0-8.27.01-.55,0-1.03.01-1.02-.78.02-4.72.01-9.43.02-14.15,0-.14.12-.28.18-.43.03.56.05,1.11.08,1.67h0Z"/>
  <path class="cls-133" d="M307.42,75.09h-22.5c-.27,0-.57.06-.78-.2h22.25c.35,0,.73-.1,1.02.19h.01Z"/>
  <path class="cls-133" d="M217.94,74.9c-.21.26-.5.2-.78.2h-22.5c.3-.29.67-.19,1.02-.19h22.26Z"/>
  <path class="cls-133" d="M174.2,95.55c.02,2.15.03,4.31.05,6.46.35.39.37.87.37,1.35,0,3.43.05,6.87-.02,10.3.03,1.23.02,2.46,0,3.69,0,.51.05,1.05-.39,1.44h-.23c0-7.29,0-14.58.02-21.87,0-.46-.16-.96.19-1.38h0Z"/>
  <path class="cls-133" d="M174.01,185.03c.48,1.23.11,2.5.2,3.75.06.75.03,1.51.03,2.26.38.42.38.95.38,1.46,0,2.86,0,5.73,0,8.59,0,.52,0,1.04-.38,1.47,0,1.92-.03,3.83-.04,5.74-.33-.33-.2-.75-.2-1.14v-22.13h0Z"/>
  <path class="cls-133" d="M218.2,53.06c0,1.92-.02,3.84-.03,5.75.32.35.37.78.37,1.22.02,2.22.02,4.45,0,6.67,0,.44-.05.88-.37,1.22,0,1.95-.02,3.89-.04,5.84,0,.38.14.8-.19,1.13v-20.74c0-.38-.15-.81.27-1.1h-.01Z"/>
  <path class="cls-133" d="M152.41,119.06h-.24c.38-.45.89-.25,1.35-.25,6.82-.02,13.65-.02,20.47-.02l.02.02c-.31.8-1.04.6-1.62.61-3.34.03-6.69.01-10.03.02h-8.24c-.59,0-1.21.06-1.71-.37h0Z"/>
  <path class="cls-133" d="M152.17,184.77c6.82.02,13.65.03,20.47.06.46,0,.96-.18,1.37.2h-20.74c-.38,0-.81.14-1.11-.26h.01Z"/>
  <path class="cls-133" d="M152.41,162.98h-.24c.38-.46.89-.25,1.34-.26,6.83-.02,13.65-.02,20.48-.02l.02.02c-.31.81-1.04.6-1.62.61-3.26.03-6.53,0-9.79.02h-8.48c-.59,0-1.21.06-1.71-.37h0Z"/>
  <path class="cls-133" d="M262.11,53.06c0,1.92-.02,3.84-.03,5.75.32.35.37.78.37,1.22.02,2.22.02,4.45,0,6.67,0,.44-.05.88-.37,1.22-.01,1.95-.02,3.89-.04,5.84,0,.38.14.8-.19,1.13v-20.74c0-.38-.15-.81.27-1.1h0Z"/>
  <path class="cls-133" d="M283.91,58.81c0-1.92-.02-3.84-.03-5.75.42.29.27.72.27,1.1v20.74c-.45-1.23-.11-2.5-.19-3.75-.06-.99-.03-1.98-.05-2.98-.32-.35-.37-.78-.37-1.22-.02-2.3-.02-4.61,0-6.91,0-.44.05-.88.37-1.22h0Z"/>
  <path class="cls-133" d="M189.86,353.19c2.91.03,5.83.06,8.74.08,3,.02,5.99.02,8.99.03-.3.29-.67.2-1.02.2h-15.64c-.37,0-.82.16-1.07-.3h0Z"/>
  <path class="cls-133" d="M351.31,10.11c.02,1.76.05,3.51.07,5.27-.07,3.76-.14,7.52,0,11.27-.33-.21-.27-.55-.27-.86v-14.9c0-.28-.03-.56.2-.78h0Z"/>
  <path class="cls-133" d="M374.16,353.19c3.67.03,7.35.06,11.02.08,1.6.01,3.2.02,4.79.03-.29.3-.67.2-1.02.2h-13.73c-.37,0-.82.16-1.07-.3h.01Z"/>
  <path class="cls-133" d="M260.6,344.62v-4.56c.03-1.83.14-3.67-.06-5.5.39.16.33.5.33.81v12.67c0,.24-.01.48-.22.65-.02-1.36-.04-2.71-.06-4.07h.01Z"/>
  <path class="cls-133" d="M151.73,289.9v-9.76c.06-.05.12-.1.18-.15,0,3.04.02,6.09.03,9.13,0,.28.03.56-.2.78h0Z"/>
  <path class="cls-133" d="M361.18,6.94c-3.28.02-6.55.03-9.83.05.19-.26.47-.25.75-.25h8.42c.24,0,.48,0,.66.2h0Z"/>
  <path class="cls-133" d="M70.53,140.65c.02.72.05,1.43.07,2.15-.04,2.07-.06,4.15-.11,6.22,0,.43.09.88-.13,1.29,0-2.96-.02-5.93-.02-8.89,0-.27-.03-.56.2-.78h-.01Z"/>
  <path class="cls-133" d="M154.85,23.53c0-3.23-.12-6.45.17-9.68,0,2.97.02,5.93.02,8.9,0,.27.03.56-.2.78h0Z"/>
  <path class="cls-133" d="M152.16,6.46h-8.86c.58-.4,1.24-.21,1.86-.18,2.33.08,4.68-.27,7,.18Z"/>
  <path class="cls-133" d="M143.54,292.35l8.15-.05c-.23.3-.56.24-.87.24h-6.51c-.27,0-.56.03-.78-.2h0Z"/>
  <path class="cls-133" d="M123.34,190.8c.21-2.48.03-4.95.07-7.43.43.91.2,1.88.18,2.81-.03,1.7.25,3.41-.18,5.09-.03-.16-.05-.31-.08-.47h.01Z"/>
  <path class="cls-122" d="M313.19,320.62s-.1,0-.16.01c-.02-1.27.02-2.55-.07-3.82-.06-.92.2-1.36,1.18-1.19.5.08,1.03-.16,1.5.18l-.07.04c-.12.1-.25.19-.41.23-1.61.43-1.58.43-1.63,2.16-.02.8.24,1.67-.35,2.39h.01Z"/>
  <path class="cls-133" d="M99.11,180.55c0,1.98,0,3.95-.03,5.93,0,.43.06.87-.17,1.28v-7.35c.1,0,.16.04.18.14h.02Z"/>
  <path class="cls-133" d="M380.34,107.78v6.94c-.32-2.31-.32-4.63,0-6.94Z"/>
  <path class="cls-133" d="M124.31,106.57c.02-.56.04-1.11.07-1.67.33,2.23.33,4.47,0,6.7-.02-1.68-.04-3.35-.06-5.03h-.01Z"/>
  <path class="cls-133" d="M410.67,59.29v-6.46c.32,2.15.32,4.31,0,6.46Z"/>
  <path class="cls-133" d="M148.82,26.22c2-.02,3.99-.05,5.99-.07-.49.51-1.12.27-1.67.25-1.44-.06-2.89.27-4.31-.18h-.01Z"/>
  <path class="cls-133" d="M356.14,273.07c-1.99.02-3.99.05-5.98.07.49-.51,1.12-.27,1.67-.25,1.44.06,2.89-.27,4.31.18Z"/>
  <path class="cls-133" d="M404.84,117.44c-.28-1.89-.28-3.78,0-5.67v5.67Z"/>
  <path class="cls-133" d="M385.16,240.05c-.15,1.44.15,2.9-.19,4.34v-4.49c.06.05.12.1.18.15h.01Z"/>
  <path class="cls-133" d="M117.4,243.75c0-.61-.02-1.23-.02-1.84.18-.66-.07-1.36.21-2.01v3.99c-.1,0-.16-.05-.18-.14h-.01Z"/>
  <path class="cls-133" d="M119.74,59.62c-.06-.05-.12-.1-.18-.14.16-1.28-.16-2.59.19-3.86v4h-.01Z"/>
  <path class="cls-133" d="M299.53,353.29c1.02-.18,2.09.3,3.07-.26.18.14.27.4,0,.41-1.03.04-2.07.28-3.08-.15h0Z"/>
  <path class="cls-130" d="M429.84,159.79c1.16-.42,2.36-.08,3.54-.21-1.16.35-2.36.16-3.54.21Z"/>
  <path class="cls-133" d="M102.51,353.31c1.02-.2,2.11.27,3.1-.3-.06.59-.52.52-.9.48-.73-.06-1.5.21-2.2-.18h0Z"/>
  <path class="cls-133" d="M404.41,192.17c0-.14,0-.27-.01-.41,0-.96.02-1.91.03-2.87.41,1.12.13,2.28.16,3.42-.1,0-.16-.05-.18-.14Z"/>
  <path class="cls-133" d="M128.67,353.15c1.03.22,2.06.11,3.1.07-1.04.39-2.08.53-3.1-.07Z"/>
  <path class="cls-133" d="M245.77,353.54h2.85c-.95.32-1.9.32-2.85,0Z"/>
  <path class="cls-133" d="M312.96,353.2c.95.1,1.9.13,2.86-.02-.95.52-1.9.48-2.86.02Z"/>
  <path class="cls-133" d="M145.12,26.39c.05-.06.1-.12.14-.18.94,0,1.88.01,2.82.02-.97.41-1.97.12-2.96.17h0Z"/>
  <path class="cls-133" d="M359.58,272.89c-.97.3-1.96.2-2.94.18.96-.4,1.96-.12,2.94-.18Z"/>
  <path class="cls-133" d="M175.82,335.48c.03-.07.03-.15.02-.22.14-.8.16-1.59-.02-2.38.55.87.55,1.74,0,2.6Z"/>
  <path class="cls-133" d="M248.71,350.88c-.92.28-1.84.28-2.77,0h2.77Z"/>
  <path class="cls-133" d="M409.88,242.25c-.26-.9-.18-1.81-.17-2.73.4.89.13,1.82.17,2.73Z"/>
  <path class="cls-133" d="M385.86,59.78c0,.85.01,1.7.02,2.56-.02.1-.08.14-.18.14.04-.9-.25-1.82.16-2.7Z"/>
  <path class="cls-133" d="M146.16,272.59c-.9.02-1.81.11-2.69-.18.9.07,1.82-.24,2.69.18Z"/>
  <path class="cls-133" d="M380.12,193.98v2.33c-.42-.8-.13-1.65-.17-2.48.06.05.12.1.18.15h0Z"/>
  <path class="cls-133" d="M92.85,237.36c.01.83.08,1.66-.17,2.47.05-.82-.24-1.67.17-2.47Z"/>
  <path class="cls-133" d="M357.6,26.7c.82-.01,1.65-.12,2.46.18-.82-.05-1.66.22-2.46-.18Z"/>
  <path class="cls-133" d="M385.69,53.46c.3.81.18,1.64.18,2.47-.42-.8-.12-1.65-.18-2.47Z"/>
  <path class="cls-104" d="M117.4,243.75c.06.05.12.1.18.14v2.34c-.41-.8-.13-1.66-.17-2.48h-.01Z"/>
  <path class="cls-133" d="M409.7,250.78c0-.83-.07-1.66.18-2.47-.06.82.24,1.68-.18,2.47Z"/>
  <path class="cls-133" d="M92.86,247.26v2.08c-.4-.72-.14-1.48-.18-2.23.06.05.12.1.18.15Z"/>
  <path class="cls-133" d="M404.43,184.79c-.02-.75-.11-1.51.17-2.23-.04.75.22,1.51-.17,2.23Z"/>
  <path class="cls-41" d="M404.41,192.17c.06.05.12.09.18.14v2.1c-.39-.72-.13-1.49-.17-2.24h0Z"/>
  <path class="cls-133" d="M124.31,102.32c-.26-.64-.19-1.32-.18-1.98.4.63.13,1.32.18,1.98Z"/>
  <path class="cls-75" d="M385.7,62.48c.06-.05.12-.09.18-.14-.04.67.22,1.36-.18,2v-1.86Z"/>
  <path class="cls-133" d="M410.43,63.84c-.01-.66-.08-1.33.18-1.97-.05.66.22,1.34-.18,1.97Z"/>
  <path class="cls-133" d="M138.26,292.11c.67,0,1.34-.06,1.99.17-.66-.04-1.35.22-1.99-.17Z"/>
  <path class="cls-133" d="M117.65,237.1c-.02-.66-.08-1.33.18-1.97-.05.66.22,1.34-.18,1.97Z"/>
  <path class="cls-133" d="M431.02,141.32c-.66.02-1.33.09-1.97-.18.66.05,1.34-.22,1.97.18Z"/>
  <path class="cls-133" d="M380.1,184.81c0,.67.08,1.34-.17,1.99.04-.66-.22-1.35.17-1.99Z"/>
  <path class="cls-133" d="M404.85,196.37c-.27-.64-.2-1.31-.18-1.98.4.63.13,1.32.18,1.98Z"/>
  <path class="cls-133" d="M119.99,64.41c-.27-.56-.19-1.15-.17-1.74.38.55.13,1.16.17,1.74Z"/>
  <path class="cls-133" d="M380.59,103.46c.01.59.09,1.19-.17,1.75.04-.59-.21-1.2.17-1.75Z"/>
  <path class="cls-133" d="M404.91,108.96c-.01-.59-.1-1.19.17-1.75-.04.58.21,1.2-.17,1.75Z"/>
  <path class="cls-133" d="M363.27,292.76c.57-.24,1.16-.19,1.75-.17-.55.38-1.17.14-1.75.17Z"/>
  <path class="cls-133" d="M409.64,237.44c-.25-.57-.19-1.16-.18-1.76.39.55.14,1.17.18,1.76Z"/>
  <path class="cls-133" d="M384.73,235.34c.27.57.19,1.17.17,1.76-.38-.56-.13-1.17-.17-1.76Z"/>
  <path class="cls-133" d="M427.84,160.06c.56-.27,1.15-.21,1.73-.18-.54.39-1.15.13-1.73.18Z"/>
  <path class="cls-133" d="M123.17,195.35c-.02-.59-.09-1.2.18-1.76-.04.59.22,1.21-.18,1.76Z"/>
  <path class="cls-133" d="M365.74,7.18c-.59.02-1.18.06-1.74-.18.58.04,1.19-.21,1.74.18Z"/>
  <path class="cls-133" d="M98.85,189.85c.02.32.03.63.05.95-.08.27-.15.54-.23.81.04-.59-.22-1.21.17-1.76h.01Z"/>
  <path class="cls-133" d="M390.75,315.78c-.03-.06-.06-.12-.09-.17.5.04,1.02-.19,1.48.18h-1.39Z"/>
  <path class="cls-133" d="M405.14,105.84c-.02-.51-.08-1.03.18-1.52-.03.51.2,1.05-.18,1.52Z"/>
  <path class="cls-133" d="M140.97,6.53c-.48.24-1,.19-1.51.17.47-.36,1-.14,1.51-.17Z"/>
  <path class="cls-133" d="M289.91,315.78c-.51,0-1.02.07-1.5-.18.5.03,1.04-.19,1.5.18Z"/>
  <path class="cls-133" d="M410.6,50.5c-.25-.48-.19-1-.17-1.52.37.47.14,1.01.17,1.52Z"/>
  <path class="cls-133" d="M119.82,52.81c-.02-.5-.07-1.01.18-1.48-.04.5.18,1.02-.18,1.48Z"/>
  <path class="cls-133" d="M385.63,65.69c-.06.04-.12.08-.18.13.03-.5-.18-1.03.18-1.49v1.36Z"/>
  <path class="cls-133" d="M380.17,197.93c.23.48.19.99.17,1.5-.36-.46-.14-1-.17-1.5Z"/>
  <path class="cls-133" d="M409.17,333.16c-.27-.47-.19-.98-.18-1.49.38.46.15.99.18,1.49Z"/>
  <path class="cls-133" d="M410.19,66.72c-.02-.16-.04-.31-.07-.47.08-.34.16-.68.24-1.02-.03.5.18,1.03-.17,1.49h0Z"/>
  <path class="cls-133" d="M120.23,67.29c-.26-.48-.2-1-.18-1.51.37.47.15,1,.18,1.51Z"/>
  <path class="cls-133" d="M124.07,98.96c-.25-.48-.2-.99-.18-1.5.37.46.15,1,.18,1.5Z"/>
  <path class="cls-133" d="M122.93,197.99c-.02-.51-.05-1.01.18-1.49-.04.5.19,1.03-.18,1.49Z"/>
  <path class="cls-133" d="M92.91,250.5c.24.47.21.98.19,1.48-.38-.45-.15-.98-.19-1.48Z"/>
  <path class="cls-133" d="M380.82,101.99c-.06.02-.12.04-.17.08.03-.5-.19-1.03.18-1.49v1.41h0Z"/>
  <path class="cls-133" d="M384.91,246.72c.02.51.07,1.02-.18,1.5.03-.5-.19-1.04.18-1.5Z"/>
  <path class="cls-133" d="M98.62,192.97c.03.51.06,1.02-.18,1.49.04-.5-.19-1.03.18-1.49Z"/>
  <path class="cls-133" d="M117.89,233.99c-.02-.51-.06-1.02.18-1.49-.04.5.19,1.03-.18,1.49Z"/>
  <path class="cls-133" d="M117.84,247.72c-.25-.48-.21-.99-.18-1.5.36.46.15.99.18,1.5Z"/>
  <path class="cls-133" d="M384.49,232.47c.25.48.2,1,.18,1.51-.37-.47-.15-1.01-.18-1.51Z"/>
  <path class="cls-133" d="M124.14,115.2c-.02-.51-.07-1.02.17-1.5-.03.5.19,1.03-.17,1.5Z"/>
  <path class="cls-133" d="M380.41,116.59c.24.48.19.99.18,1.49-.36-.46-.14-.99-.18-1.49Z"/>
  <path class="cls-49" d="M123.33,183.11c-.36-.47-.15-1-.16-1.51.09,0,.15.05.18.14,0,.46-.02.91-.02,1.37Z"/>
  <path class="cls-133" d="M408.99,337.17v-1.41c.06-.02.12-.04.18-.07-.03.5.19,1.03-.18,1.48Z"/>
  <path class="cls-133" d="M123.35,181.74c-.06-.05-.12-.09-.18-.14-.02-.45-.05-.9-.07-1.35.49.43.2.99.25,1.49Z"/>
  <path class="cls-133" d="M73.95,157.49c.5-.03,1.01-.08,1.48.18-.49-.04-1.02.18-1.48-.18Z"/>
  <path class="cls-133" d="M93.09,234c.02.51.06,1.03-.17,1.51.03-.51-.19-1.04.17-1.51Z"/>
  <path class="cls-49" d="M99.11,180.55c-.06-.05-.12-.09-.18-.14-.02-.46-.04-.91-.06-1.37.49.43.19,1,.24,1.5h0Z"/>
  <path class="cls-133" d="M227.54,336.41c.25.38.2.81.19,1.24-.35-.37-.16-.82-.19-1.24Z"/>
  <path class="cls-133" d="M404.66,181.19c-.03-.43-.06-.85.19-1.24-.03.42.16.87-.19,1.24Z"/>
  <path class="cls-133" d="M70.34,157.17c.42.08.84.17,1.26.25-.43-.04-.92.21-1.26-.25Z"/>
  <path class="cls-133" d="M218.43,327.33c0-.42-.04-.85.19-1.24-.03.42.17.87-.19,1.24Z"/>
  <path class="cls-133" d="M428.14,141.09c-.43.02-.86.06-1.25-.18.42.02.87-.17,1.25.18Z"/>
  <path class="cls-133" d="M380.35,182.17c.03.43.05.85-.18,1.24.02-.42-.16-.87.18-1.24Z"/>
  <path class="cls-133" d="M244.51,318.21c.38-.26.81-.21,1.24-.18-.37.34-.82.16-1.24.18Z"/>
  <path class="cls-133" d="M408.93,229.72c-.23-.39-.21-.81-.18-1.24.34.37.16.82.18,1.24Z"/>
  <path class="cls-133" d="M384.01,227.94c.23.39.21.81.19,1.24-.35-.37-.16-.82-.19-1.24Z"/>
  <path class="cls-133" d="M93.33,231.36c.02.44.06.88-.17,1.28.02-.43-.17-.89.17-1.28Z"/>
  <path class="cls-133" d="M405.38,103.2v-1.18l.18-.09c-.01.43.18.89-.18,1.27Z"/>
  <path class="cls-133" d="M409.17,231.9c-.22-.4-.2-.82-.18-1.25.34.38.16.83.18,1.25Z"/>
  <path class="cls-133" d="M288.9,341c.39-.25.82-.2,1.24-.18-.37.34-.82.15-1.24.18Z"/>
  <path class="cls-133" d="M384.25,230.09c.23.39.2.82.18,1.26-.34-.38-.16-.83-.18-1.26Z"/>
  <path class="cls-133" d="M381.06,98.42c.02.42.05.85-.18,1.24.03-.42-.16-.87.18-1.24Z"/>
  <path class="cls-133" d="M93.57,229.2c.03.43.05.85-.18,1.25.02-.42-.16-.87.18-1.25Z"/>
  <path class="cls-133" d="M121.92,82.13c-.23-.38-.21-.81-.19-1.23.35.37.16.82.19,1.23Z"/>
  <path class="cls-133" d="M121.43,78.07c-.07-.1-.14-.2-.21-.29,0-.32.01-.63.02-.95.35.37.16.82.19,1.25h0Z"/>
  <path class="cls-133" d="M120.95,73.99c-.23-.39-.21-.82-.18-1.24.35.37.16.82.18,1.24Z"/>
  <path class="cls-133" d="M409.71,71.52c-.02-.43-.05-.85.18-1.24-.03.42.16.87-.18,1.24Z"/>
  <path class="cls-133" d="M385.15,69.14c.02.43.06.87-.18,1.26.02-.43-.17-.88.18-1.26Z"/>
  <path class="cls-133" d="M120.47,69.7c-.24-.4-.2-.84-.17-1.28.35.39.16.85.17,1.28Z"/>
  <path class="cls-133" d="M409.94,69.37c-.03-.44-.06-.87.18-1.27-.02.43.17.89-.18,1.27Z"/>
  <path class="cls-133" d="M385.39,66.98c.03.43.07.87-.18,1.26.02-.43-.17-.88.18-1.26Z"/>
  <path class="cls-133" d="M98.14,197.53c.03.43.05.86-.18,1.25.02-.42-.17-.88.18-1.25Z"/>
  <path class="cls-133" d="M405.08,199.05c-.23-.4-.2-.84-.17-1.28.34.39.15.85.17,1.28Z"/>
  <path class="cls-133" d="M122.69,200.15c-.03-.43-.05-.86.18-1.25-.02.42.16.87-.18,1.25Z"/>
  <path class="cls-133" d="M409.46,253.42c-.03-.44-.06-.88.18-1.28-.02.43.18.9-.18,1.28Z"/>
  <path class="cls-133" d="M142.32,272.35c-.43.03-.86.04-1.26-.18.42.02.88-.17,1.26.18Z"/>
  <path class="cls-133" d="M362.21,272.65c-.39.23-.82.2-1.25.18.38-.34.83-.16,1.25-.18Z"/>
  <path class="cls-133" d="M133.46,291.62c.43-.03.85-.04,1.24.19-.42-.03-.87.16-1.24-.19Z"/>
  <path class="cls-133" d="M135.62,291.87c.43-.02.86-.04,1.26.17-.43-.02-.88.16-1.26-.17Z"/>
  <path class="cls-133" d="M405.33,201.65c-.23-.39-.2-.82-.18-1.24.33.37.15.82.18,1.24Z"/>
  <path class="cls-133" d="M385.45,50.83c.24.39.2.83.18,1.26-.35-.38-.16-.83-.18-1.26Z"/>
  <path class="cls-133" d="M380.41,200.8c.23.4.2.83.18,1.27-.35-.38-.16-.84-.18-1.27Z"/>
  <path class="cls-133" d="M366.18,292.53c.39-.22.81-.21,1.24-.18-.37.34-.82.16-1.24.18Z"/>
  <path class="cls-133" d="M245.58,315.36c-.39.22-.82.2-1.25.17.38-.33.83-.15,1.25-.17Z"/>
  <path class="cls-133" d="M250.31,315.54c-.43.02-.86.06-1.26-.18.42.02.88-.17,1.26.18Z"/>
  <path class="cls-133" d="M368.38,7.42c-.43.02-.86.05-1.26-.18.43.02.88-.17,1.26.18Z"/>
  <path class="cls-133" d="M208.55,315.78h-1.17c-.03-.06-.06-.12-.1-.18.43.01.88-.17,1.26.17h.01Z"/>
  <path class="cls-133" d="M138.08,6.76c-.39.23-.83.21-1.26.18.38-.35.83-.16,1.26-.18Z"/>
  <path class="cls-133" d="M405.57,203.81c-.23-.39-.21-.81-.18-1.24.34.37.16.82.18,1.24Z"/>
  <path class="cls-133" d="M380.65,202.99c.23.39.21.82.19,1.24-.35-.37-.16-.82-.19-1.24Z"/>
  <path class="cls-133" d="M409.4,234.32c-.23-.4-.2-.84-.17-1.28.34.39.15.85.17,1.28Z"/>
  <path class="cls-1" d="M306,181.44v11.04c.35.39.37.87.37,1.35.01,2.46.01,4.92,0,7.39,0,.48-.02.96-.37,1.35,0,1.16-.04,2.32-.02,3.48.01.63-.22.88-.84.83-.24-.02-.48,0-.72,0h-106.77c-1.03,0-1.55-.51-1.55-1.54,0-.92-.02-1.84-.03-2.76-.38-.42-.37-.95-.37-1.47,0-2.86,0-5.72,0-8.58,0-.52,0-1.04.37-1.47v-22.08c-.35-.39-.37-.87-.37-1.35,0-2.67-.05-5.34.02-8.01-.07-3.55-.02-7.1-.02-10.65,0-.48.02-.96.37-1.35v-12c-.35-.39-.37-.87-.37-1.35,0-3.06-.05-6.13.02-9.19-.05-3.68-.05-7.37,0-11.05-.07-3.55-.02-7.1-.02-10.65,0-.48.02-.96.37-1.35,0-1.36.06-2.72.02-4.08-.02-.75.24-1.02.97-.94.32.04.64,0,.96,0h106.17c.52,0,1.04-.01,1.56-.02.73.15.59.77.6,1.24.04,1.67.05,3.34,0,5.01.05,3.67.04,7.35.01,11.02.02,4,.05,8,0,11.99.07,2.83.02,5.66.02,8.5,0,.48-.02.96-.37,1.35v10.32c.35.39.37.87.37,1.35,0,3.38.05,6.76-.02,10.14.04,2.49.05,4.97,0,7.46.06,1.39.02,2.79.02,4.18,0,.48-.02.96-.36,1.35v10.56l-.02-.02Z"/>
  <path class="cls-32" d="M196.08,191.04v11.52c-2.4-.29-4.78-.07-7.16.18-.75.08-1.45-.26-2.2-.35-2.55-.29-5.08.19-7.63.05-1.56-.09-3.22-.07-4.83.12v-11.52c2.43.59,4.9.15,7.34.17,3.41.03,6.83.21,10.25.07,1.41-.06,2.82-.16,4.24-.24h0Z"/>
  <path class="cls-90" d="M306,202.56v-10.08h21.82v10.08c-1,.05-1.97-.13-2.96-.27-.92-.13-1.88.02-2.81.07-2.5.14-5.03.02-7.5,0-1.84-.02-3.71.57-5.59,0-.92-.28-1.98-.06-2.95.2h-.01Z"/>
  <path class="cls-138" d="M283.91,58.81v9.36c-7.28-.1-14.56.13-21.83-.24v-9.12h21.83Z"/>
  <path class="cls-138" d="M218.17,67.93v-9.12h21.82v9.36c-1.63-.35-3.26-.31-4.93-.28-3.47.06-6.95-.26-10.41-.15-2.16.07-4.33-.1-6.48.19Z"/>
  <path class="cls-142" d="M196.07,102.01v12c-1.52.33-3.07.22-4.6.2-1.27-.02-2.55-.1-3.82,0-2.46.17-4.92-.2-7.4.09-1.73.2-3.49-.21-5.24-.21-.29,0-.54-.12-.76-.31v-11.76c4.4-.34,8.81-.14,13.22-.19,2.33-.03,4.69.19,7.01-.19.57-.09,1,.5,1.59.38h0Z"/>
  <path class="cls-60" d="M306.01,103.21c-.01-1.7-.02-3.41-.04-5.11,0-.38.12-.8-.21-1.13,1.13-.53,2.32-.16,3.47-.2,3.59-.11,7.19-.04,10.78-.04,2.61,0,5.21-.04,7.81-.24v6.72c-1.12.66-2.33.3-3.51.31-2.63.03-5.26.19-7.88.09-3.18-.12-6.37.08-9.55-.07-.33-.02-.63-.11-.88-.34h.01Z"/>
  <path class="cls-113" d="M218.17,243.11v-10.32c7.27.08,14.55.18,21.82,0v10.56c-.71-.41-1.51-.33-2.23-.21-2.14.37-4.24-.21-6.37-.08-1.92.12-3.85.06-5.77.19-.69.05-1.32-.16-2-.17-1.82-.02-3.63.46-5.45.03Z"/>
  <path class="cls-87" d="M283.91,232.31v9.36c-1.83.56-3.71.1-5.56.2-1.58.09-3.21-.14-4.77-.08-3.44.14-6.89-.1-10.33.23-.38.04-.78-.07-1.17-.12v-9.84c.92.32,1.81.21,2.75.04,1.63-.29,3.29.08,4.92.1,1.66.03,3.33.23,5-.06.85-.15,1.79-.22,2.61,0,1.62.44,3.21-.06,4.81,0,.58.03,1.15.22,1.73.16h0Z"/>
  <path class="cls-145" d="M196.07,159.6v9.36c-1.41,0-2.86-.52-4.22-.14-2.05.57-4.05-.33-6.11.09-1.36.28-2.81-.07-4.25.02-2.68.17-5.4-.16-8.06-.03-2.3.11-4.57-.29-6.88-.05-1.5.16-3.1.24-4.67.18-2.99-.11-5.99-.15-8.99-.19-.65,0-.49-.4-.49-.71-.02-1.72,0-3.44,0-5.16,6.74,0,13.49-.02,20.23-.05.46,0,.96.18,1.37-.2.47-1.01.07-2.09.24-3.13,1.3-.59,2.72-.61,4.08-.57,3.38.1,6.76-.02,10.13,0,1.67,0,3.32.11,5-.09.9-.11,1.8.21,2.61.67h.01Z"/>
  <path class="cls-106" d="M306,170.88v-5.52c1.38-.82,2.88-.38,4.34-.44,2.27-.1,4.55-.13,6.8-.05,3.71.12,7.41-.06,11.12,0,2.4.04,4.84.43,7.25-.03,1.27-.24,2.55.11,3.83.07,2.03-.07,4.06-.05,6.09-.03,1.4,0,2.85-.2,4.23.25v5.28c0,.6,0,.87-.84.79-2.02-.19-4.05.02-6.08.07-1.18.03-2.39-.09-3.58-.14-1.01-.04-2.02-.11-3.02-.06-1.11.06-2.22.18-3.33-.06-.19-.04-.4-.12-.59-.09-2.3.44-4.63-.17-6.92.18-1.61.24-3.18-.14-4.76-.27-.74-.06-1.25.41-1.93.33-.9-.1-1.81-.12-2.72-.18-2.24-.15-4.46.41-6.75.05-.97-.15-2.1-.14-3.16-.12l.02-.02Z"/>
  <path class="cls-145" d="M349.67,165.12c-2.1.46-4.23.09-6.33.13-1.96.04-3.98.31-5.96-.12-1.42-.3-2.82.27-4.27.17-2.89-.19-5.8-.27-8.69-.14-1.72.08-3.48.16-5.15.06-2.08-.12-4.15.42-6.22-.07-.91-.21-1.84.21-2.82.09-1.38-.17-2.81.05-4.22.11v-7.44c.25-.23.56-.3.88-.32,2.7-.23,5.39-.49,8.09,0,1.19.22,2.39,0,3.59-.07,2.36-.12,4.71-.15,7.05.17.74.1,1.53-.31,2.22.21,0,1.28.08,2.56,0,3.84-.06.97.28,1.21,1.22,1.2,6.4-.04,12.79-.02,19.19-.02.48,0,.96.03,1.44.04v2.13l-.02.02Z"/>
  <path class="cls-37" d="M196.07,125.05v10.56c-2.45.08-4.9.16-7.35.24-.12,0-.25.03-.36,0-2.57-.67-5.14.22-7.7,0-2.44-.22-4.89-.16-7.33-.2-2.07-.04-4.15.34-6.2.16-2.69-.23-5.34.3-8.03-.02-1.8-.22-3.67-.12-5.5-.07-1.14.03-1.2-.38-1.19-1.2v-9.46c.67-.56,1.46-.63,2.27-.49,2.65.45,5.31.22,7.97.21,1.27,0,2.52.29,3.8.11,2.07-.3,4.17.09,6.26-.26,1.35-.22,2.75.23,4.15.23,1.32,0,2.62.12,3.94-.09.83-.13,1.7-.2,2.51-.04,2.09.43,4.14-.24,6.18-.07,1.92.16,3.81.01,5.71.06.33,0,.63.1.88.33h0Z"/>
  <path class="cls-117" d="M196.07,125.05c-1.31.04-2.62.03-3.93.19-1.22.14-2.44-.43-3.74-.21-1.78.31-3.59.36-5.4.04-1.47-.26-2.93.34-4.4.21-1.76-.15-3.55.17-5.28-.42-.32-.11-.62.02-.93.13-.34.12-.72.33-1.03.27-1.56-.31-3.11-.13-4.64.04-1.68.18-3.34-.07-4.99-.11-2.2-.06-4.45.37-6.61-.21-.97-.26-1.81.1-2.71.07v-5.98c6.74-.01,13.49-.02,20.23-.05.46,0,.96.18,1.37-.2.46-1.23.09-2.5.2-3.74.04-.43.02-.87.04-1.31,2.96-.04,5.92.1,8.87.09,2.75,0,5.52-.28,8.3.06,1.52.18,3.1-.3,4.65.09v11.04h0Z"/>
  <path class="cls-73" d="M196.07,159.6c-2.83-.54-5.68-.12-8.52-.2-3.05-.09-6.1.13-9.15-.04-1.39-.08-2.75.4-4.15.24v-12c2.16-.06,4.35-.34,6.48-.13,2.1.21,4.17-.03,6.25.09,1.53.08,3.06-.2,4.62-.15,1.49.04,2.99.03,4.48.2v12h0Z"/>
  <path class="cls-95" d="M306.01,136.09v-9.84c.3-.26.65-.25,1.02-.23,2.15.12,4.29.12,6.44-.07,1.15-.1,2.3.08,3.45.1,2.15.04,4.29-.18,6.44.07,1.67.19,3.34-.06,5.01-.12,1.75-.06,3.5.15,5.26.14,4.86-.02,9.73-.08,14.59-.09.54,0,1.04.05,1.44.44,0,2.84-.02,5.67.02,8.51.01.82-.22,1.09-1.07,1.12-2,.06-3.99-.09-6,.16-1.61.2-3.29-.16-4.93-.16-3.11,0-6.23.18-9.33.03-1.53-.07-3.07.02-4.58.03-5.1,0-10.2-.15-15.3-.03-.83.02-1.64.13-2.45-.05h-.01Z"/>
  <path class="cls-112" d="M349.67,126.48h-7.32c-3.97,0-7.95.16-11.91-.05-2.5-.13-4.96.36-7.44.06-2.47-.29-4.96.1-7.42-.05-2.21-.13-4.4.07-6.6.07-1,0-1.97-.19-2.96-.26v-12c.18-.1.38-.15.58-.12,2.41.36,4.83-.07,7.25.04.57.03,1.11.16,1.65.29.52.12,1.03.14,1.53-.05.3-.12.61-.24.93-.21,2.54.25,5.11-.22,7.63.26.77.15,1.51-.2,2.25.02.01,1.12.09,2.24.01,3.35-.07.98.29,1.2,1.22,1.2,6.39-.04,12.79-.02,19.18-.02.48,0,.96.03,1.44.05v7.41h-.02Z"/>
  <path class="cls-92" d="M327.82,157.92c-2.23.32-4.44-.21-6.66-.17-1.64.03-3.29.13-4.92.26-.35.03-.67.1-1.04,0-1.61-.47-3.33-.44-4.94-.4-1.39.04-2.84.27-4.27.33v-11.52c7.27-.4,14.55.27,21.82-.24v11.76-.02Z"/>
  <path class="cls-1" d="M217.73,341.5c.16,1.54.07,3.05-.3,4.56-.69,1.59-1.86,2.73-3.35,3.59-2.64,1.04-5.39,1.29-8.2,1.26-4.02-.05-8.05-.04-12.08,0-.91.01-1.21-.26-1.12-1.15.06-.67-.02-1.35-.04-2.03v-10.52c-.35-1.54-.15-1.83,1.25-1.83h14.07c.36,0,.72-.05,1.07.07,1.92.2,3.78.65,5.54,1.49,1.73,1.05,2.76,2.58,3.16,4.56h0Z"/>
  <path class="cls-1" d="M210.9,318.73c1.85.83,3.51,1.88,4.4,3.81.57,1.82.6,3.66.17,5.51-.8,2.01-2.32,3.3-4.27,4.13-2.31.73-4.68.9-7.09.89-3.48-.03-6.95-.01-10.43,0-.56,0-1.01.02-1-.78.05-4.75.05-9.51.07-14.26h12.94c1.77,0,3.48.35,5.2.72v-.02Z"/>
  <path class="cls-56" d="M209.03,335.45c-4.82,0-9.63-.01-14.45-.02-1.21,0-1.85.59-1.94,1.78-.33.88-.15,1.8-.14,2.7.02,1.05-.67.85-1.28.87-.63.02-1.19.05-1.15-.88.06-1.22.02-2.45.02-3.68h1.56c.2,0,.53.01.57-.08.6-1.5,1.89-.83,2.87-.85,4.23-.07,8.45-.03,12.68-.02.42,0,.88-.14,1.26.19h0Z"/>
  <path class="cls-77" d="M192.48,324.7c0,1.71-.03,3.42.02,5.12.03,1.05-.66.86-1.27.88-.63.02-1.18.05-1.15-.88.06-1.71.02-3.42.03-5.12.79-.5,1.58-.5,2.37,0Z"/>
  <path class="cls-4" d="M192.48,324.7h-2.37v-5.04h2.38v5.04h-.01Z"/>
  <path class="cls-1" d="M406.36,333.34c.03,2.01-.14,4-.55,5.97-.57,1.6-1.26,3.14-2.15,4.59-1.42,1.96-3.25,3.48-5.29,4.77-3.58,1.81-7.41,2.26-11.36,2.18-2.91-.06-5.82-.06-8.73.02-1.08.03-1.44-.3-1.3-1.34.06-.43-.03-.87-.05-1.31v-11c-.16-.19-.26-.43-.23-.66.59-4.65-.27-9.29-.05-13.94.07-1.47.15-2.93.34-4.38,5.62.07,11.25-.52,16.85.43,1.51.26,2.87.93,4.28,1.48,2.28,1.37,4.27,3.07,5.79,5.27.98,1.74,1.73,3.57,2.18,5.52.09.8.18,1.6.27,2.4h0Z"/>
  <path class="cls-118" d="M153.37,328.3h2.37c0,1.23-.02,2.46.04,3.69.05.93-.52.91-1.15.88-.61-.02-1.32.18-1.27-.87.05-1.23,0-2.46,0-3.69h0Z"/>
  <path class="cls-10" d="M155.73,323.25c-1.57.02-2.36-.74-2.37-2.28v-1.79h2.36v4.08h0Z"/>
  <path class="cls-56" d="M377,318.24c-.02,6.33-.04,12.65-.06,18.98-.33.88-.15,1.8-.14,2.7.02,1.06-.68.84-1.29.87-.63.03-1.18.04-1.15-.88.06-1.38.02-2.77.03-4.16,1.59,0,2.39-.8,2.39-2.4v-3.12c-.46-.54-.36-1.2-.37-1.82,0-1.23-.04-2.46.02-3.69-.06-1.23-.02-2.47-.02-3.7,0-.48.02-.96.37-1.35.09-.47-.17-1,.22-1.43Z"/>
  <path class="cls-4" d="M376.78,319.66v5.04c-.79.5-1.59.51-2.38,0v-5.04h2.38Z"/>
  <path class="cls-1" d="M298.6,323.98c.33,1.02.59,2.06.73,3.12.1,2.34-.16,4.61-1.28,6.71-1.13,1.57-2.55,2.79-4.29,3.63-3.13,1.15-6.38,1.2-9.66,1.15-2.19-.03-4.39-.07-6.57.02-1.07.04-1.46-.27-1.3-1.32.05-.35-.02-.71-.03-1.07-.43-.55-.33-1.2-.33-1.83,0-1.3-.04-2.61.02-3.91-.04-1.84-.04-3.69,0-5.53-.06-1.31-.02-2.62-.02-3.93,0-.48,0-.96.33-1.36-.2-1.29.41-1.55,1.6-1.52,2.91.09,5.83.07,8.75.02,2.83-.05,5.56.34,8.16,1.53,1.68,1.08,3.04,2.45,3.89,4.29h0Z"/>
  <path class="cls-74" d="M276.2,330.46v5.76h-2.61v-5.76c.87-.5,1.74-.54,2.61,0Z"/>
  <path class="cls-4" d="M276.2,319.66v5.28c-.87.55-1.74.5-2.61,0v-5.28h2.61Z"/>
  <path class="cls-61" d="M357.62,346.06v-5.28c.87-.53,1.73-.51,2.6,0v5.28h-2.6Z"/>
  <path class="cls-61" d="M313.2,340.78h2.38c0,1.63-.03,3.25.03,4.88.04,1.05-.66.86-1.27.88-.63.02-1.18.05-1.15-.88.05-1.62.02-3.25.02-4.88h-.01Z"/>
  <path class="cls-77" d="M374.4,324.7h2.38v5.52c-1.59,0-2.39-.78-2.39-2.33,0-1.06,0-2.13.01-3.19Z"/>
  <path class="cls-88" d="M313.2,329.74v-5.04c.79-.5,1.58-.5,2.37,0,0,1.26-.04,2.52.03,3.78.06.95-.2,1.42-1.23,1.28-.39-.05-.79-.01-1.18-.01h.01Z"/>
  <path class="cls-82" d="M313.19,320.62c0-1.2.06-2.4,0-3.59-.05-.93.23-1.35,1.2-1.21.39.05.8.02,1.2.03v4.78c-.79.51-1.59.5-2.38,0h-.02Z"/>
  <path class="cls-122" d="M313.2,320.63h2.38v4.08h-2.37v-4.07h-.01Z"/>
  <path class="cls-128" d="M332.36,323.98v4.56c-.87.54-1.74.51-2.61,0v-4.56h2.61Z"/>
  <path class="cls-64" d="M357.62,326.38v-5.04h2.6v5.04c-.87.51-1.73.53-2.6,0Z"/>
  <path class="cls-105" d="M327.82,114.49c-1.45.82-2.95.17-4.42.12-.87-.03-1.72-.19-2.59.02-.67.16-1.35.18-2.01,0-.64-.18-1.22-.21-1.82.2-.41.28-.93.2-1.39.02-1.64-.64-3.47-.58-5.01-.3-1.32.24-2.45-.26-3.66-.08-.29.04-.61-.14-.91-.22v-11.04h21.81v11.28h0Z"/>
  <path class="cls-137" d="M332.36,334.06v6c-.87.54-1.74.51-2.61,0v-6c.87-.51,1.74-.54,2.6,0h0Z"/>
  <path class="cls-118" d="M332.36,334.06h-2.6v-5.52h2.61v5.52h0Z"/>
  <path class="cls-109" d="M329.75,340.06h2.61v5.04c-.87.54-1.74.51-2.61,0v-5.04Z"/>
  <path class="cls-59" d="M329.75,345.1h2.61v4.56c-.87.54-1.74.51-2.61,0v-4.56Z"/>
  <path class="cls-132" d="M329.75,349.66h2.61c0,1.2.02,2.39.03,3.59-1.79.05-2.68-.83-2.67-2.64,0-.32.03-.64.04-.95h0Z"/>
  <path class="cls-103" d="M273.59,324.94h2.61v5.52h-2.61v-5.52Z"/>
  <path class="cls-152" d="M357.62,326.38h2.6v4.8c-.87.51-1.73.53-2.6,0v-4.8Z"/>
  <path class="cls-56" d="M360.22,340.78h-2.6v-4.8c.87-.53,1.73-.51,2.6,0v4.8Z"/>
  <path class="cls-22" d="M360.22,335.98h-2.6v-4.8h2.6v4.8Z"/>
  <path class="cls-134" d="M283.91,169.44v9.12c-1.63.46-3.3.29-4.96.33-2.11.06-4.21.06-6.32.14-1.08.04-2.16,0-3.22-.04-2.76-.1-5.5.02-8.25.1-.97.03-1.88-.33-2.86-.24-2.93.27-5.89.14-8.82.14s-6.06.26-9.07-.2c-.2-.03-.43-.09-.59,0-1.43.72-2.9.28-4.35.14-.08,0-.16,0-.24,0-2.84.17-5.69-.11-8.52-.06-2.44.04-4.87,0-7.3-.02-.49,0-.97,0-1.24-.51v-9.36c.35-.3.76-.23,1.14-.12,1.4.42,2.88.21,4.27.19,2.07-.04,4.15-.25,6.22-.15,1.7.08,3.41.03,5.11.08,1.62.05,3.25.13,4.89.04,1.86-.1,3.75.25,5.61-.15,1.44-.31,2.87-.11,4.28.08,1.8.23,3.58-.09,5.38-.03,1.43.05,2.87.02,4.3.16,1.22.12,2.46.18,3.69-.15,1.37-.37,2.78,0,4.17,0,2.14.02,4.3.08,6.44.08,1.66,0,3.36-.19,5-.08,1.74.12,3.58-.39,5.25.53h-.01Z"/>
  <path class="cls-145" d="M283.91,169.44c-1.56-.43-3.23-.22-4.77-.23-1.49,0-3.11-.06-4.67.09-1.63.15-3.37.2-5.06,0-.39-.05-.79-.07-1.19-.09-2.75-.1-5.5.27-8.24.19-1.89-.05-3.79-.16-5.69-.18-1.65,0-3.32.19-4.96.07-1.25-.09-2.47-.41-3.74-.09-2.22.55-4.49.16-6.72.16-1.71,0-3.47-.07-5.18-.1-2.59-.04-5.19-.19-7.8-.06-1.2.06-2.39.23-3.65.13-1.36-.11-2.74-.08-4.09-.37v-10.32c1.2-.29,2.43-.35,3.66-.36,4.22-.03,8.45-.02,12.67-.14,1.34-.04,2.71.1,4.06.19.55.04,1.11.13,1.55.54.42.83.21,1.73.22,2.59.02.81.36,1.15,1.16,1.15h19.06c.87,0,1.22-.39,1.2-1.24-.01-.71-.12-1.44.15-2.14.57-.67,1.32-.5,2-.35,1.23.28,2.42.45,3.65,0,.66-.24,1.33.18,2.01.17,2.51-.03,5.02-.07,7.53-.18,1.4-.06,2.87-.09,4.26.19.86.17,1.77-.3,2.56.28v10.08l.02.02Z"/>
  <path class="cls-33" d="M283.91,125.29v6.48c-.56.46-1.24.57-1.92.54-2.31-.12-4.61.22-6.93-.1-1.12-.15-2.31-.03-3.45.1-1.88.2-3.77.18-5.61-.02-2.21-.25-4.37.14-6.56.03-3.58-.18-7.17.16-10.76-.04-2.06-.11-4.14.03-6.21.02-3.42,0-6.85-.09-10.27.02-4.1.13-8.21-.15-12.31.05-.59.03-1.21.09-1.72-.35v-6.72c.42-.44.97-.61,1.53-.55,1.47.16,2.93-.3,4.41.1.73.2,1.5-.21,2.26-.13,2.7.26,5.42.09,8.12.05,2.5-.04,5.03-.07,7.52-.07,3.01,0,6.06-.43,9.07.14.84.16,1.66-.14,2.5-.14,3.1,0,6.19.17,9.3.03,2.62-.12,5.27.23,7.86.02,2.35-.19,4.67.17,7.03-.1,1.78-.21,3.64.14,5.46.21.3.01.5.23.69.44h0Z"/>
  <path class="cls-156" d="M218.16,178.32c.78.5,1.66.21,2.45.19,1.97-.05,3.96.4,5.93-.12.46-.12,1.03.05,1.52.17,1.22.32,2.4-.05,3.59-.16.08,0,.2-.08.22-.05.95,1.09,2.03.05,3.05.16,1.07.12,2.12.28,3.18.41.12,0,.26.05.35,0,1.86-1.17,3.85-.15,5.77-.28,1.65-.11,3.37-.09,5.07.04,1.37.1,2.86-.2,4.28-.1,1.84.13,3.75-.55,5.46-.1,2.07.54,4.07,0,6.09.13,1.64.1,3.38-.02,5.06,0,1.99.02,4.01.09,5.98.02,1.88-.07,3.78.18,5.63-.18.75-.15,1.41.26,2.11.09,0,1.76-.02,3.52.04,5.27.03.81-.28,1.09-1.04.99-.16-.02-.32,0-.48,0-20.93,0-41.86,0-62.78.03-1.18,0-1.63-.23-1.54-1.5.13-1.67.05-3.35.05-5.03v.02Z"/>
  <path class="cls-108" d="M218.17,143.28v-5.52c1-.34,2.08-.36,3.06-.27,2.07.18,4.14,0,6.21.1,1.66.08,3.33.03,5-.1,2.11-.17,4.24.06,6.35,0,5.62-.15,11.24.5,16.87.06,1.77-.14,3.59.07,5.37.03,1.82-.05,3.65.03,5.47-.1,2.31-.16,4.62.04,6.93.08,1.79.03,3.58-.1,5.36-.03,1.72.07,3.52-.28,5.11.72v9.6c-1.6.89-3.34.43-5.02.45-.87,0-1.74-.16-2.61.03-1.16.25-2.26-.25-3.43-.16-3.24.23-6.48.21-9.72.02-.43-.02-.89-.02-1.2-.42-.4-1.58-.13-3.18-.18-4.77-.05-1.77-.02-1.77-1.84-1.77h-17.63c-1.17,0-1.86.56-2.08,1.68-.61.88-1.54.74-2.39.68-2.62-.17-5.23-.34-7.83.17-.4.08-.79,0-1.18-.12-1.02-.34-2.05-.37-3.06-.02-1.04.36-2.07,0-3.08-.05-1.49-.07-3.02.14-4.49-.29h.01Z"/>
  <path class="cls-44" d="M283.91,125.29c-.74-.42-1.59-.2-2.3-.15-1.83.12-3.67-.66-5.48.07-.27.11-.54.04-.82-.01-1.04-.21-2.09-.51-3.15-.14-.9.32-1.8,0-2.69,0-3.29-.01-6.59-.2-9.86.06-2.68.22-5.35-.56-8.02.15-.86.23-1.67-.43-2.66-.29-1.71.24-3.48.02-5.22.09-2.97.13-5.94-.08-8.91.13-1.16.08-2.46-.23-3.63-.09-2.21.26-4.41-.3-6.63.12-1.04.19-2.18-.25-3.33-.12-1,.11-2.04-.07-3.05.19,0-1.76,0-3.52-.05-5.27-.03-.8.27-1.1,1.04-1,.16.02.32,0,.48,0,20.93,0,41.87.01,62.8-.03,1.19,0,1.63.25,1.53,1.5-.13,1.59-.05,3.19-.06,4.79h.01Z"/>
  <path class="cls-99" d="M283.91,138.25c-1.96-.16-3.91-.36-5.9-.35-1.63,0-3.32,0-4.94,0-2.53.03-5.06-.27-7.63.02-1.38.16-2.96.18-4.44.06-1.32-.11-2.66.06-3.95-.05-1.67-.14-3.32.1-4.97.09-2.97-.02-5.94-.21-8.9-.2-3.18,0-6.37-.15-9.55-.06-1.71.05-3.43.32-5.12.19-2.24-.16-4.48.22-6.72-.17-1.19-.21-2.42.49-3.63-.03v-5.76c2.53,0,5.06-.24,7.57-.16,2.01.07,4.03.08,6.04.12,1.87.04,3.75-.06,5.62-.2.78-.06,1.49.26,2.25.23,2.83-.15,5.67-.1,8.5-.12,2.2-.02,4.43.07,6.64.08,1.6,0,3.26-.21,4.81-.05,2.03.22,4-.3,6.04-.03,1.93.26,3.92.25,5.91.04,1.22-.13,2.52-.27,3.75-.11,1.79.23,3.55.11,5.34.07,1.09-.02,2.19-.11,3.29-.11v6.48h-.01Z"/>
  <path class="cls-31" d="M262.1,147.84c7.27.06,14.54.16,21.81,0v11.52c-2.1.1-4.19-.18-6.26-.15-1.93.02-3.88.1-5.82.19-1.1.05-2.23.22-3.33-.17-.25-.09-.61-.18-.81-.07-1.36.75-2.69.36-4.05,0-.49-.13-1.03-.03-1.55-.04-.39-.33-.35-.78-.35-1.22-.01-2.95-.01-5.9,0-8.85,0-.43-.03-.89.35-1.22h0Z"/>
  <path class="cls-73" d="M239.97,158.88c-1.79-.45-3.67-.43-5.45-.39-4.04.1-8.08.16-12.11.11-1.42-.02-2.83.59-4.25.04v-9.36c2.19-.4,4.39-.7,6.61-.44,1.51.18,3.01.12,4.5.19,3.34.16,6.67-.3,10-.03.32.03.64.07.86.34.3.56.2,1.17.2,1.76,0,2.11,0,4.22,0,6.33,0,.5.1,1.05-.36,1.45h0Z"/>
  <path class="cls-17" d="M239.97,149.28c-2.24.22-4.52.17-6.73.13-2.98-.07-5.98.4-8.98-.27-1.41-.31-3,.03-4.48.25-.59.09-1.08,0-1.62-.1v-6c2.15-.3,4.28-.12,6.41.19.9.13,1.61-.64,2.55-.45.64.13,1.34-.09,1.94.39.29.23.69.13,1.04.02.38-.13.78-.39,1.13-.34,2.01.3,4.02-.31,6.02.12.9.19,1.82.14,2.71-.16.24.18.33.45.34.73.05,1.59.05,3.18,0,4.77,0,.28-.09.55-.34.73h0Z"/>
  <path class="cls-1" d="M239.97,149.28v-6.24c.05-1.44.81-2.16,2.28-2.16h18.31c1.01,0,1.52.53,1.52,1.58,0,1.79.02,3.59.02,5.38v11.28c0,.96-.05,1.91-.01,2.87.03.71-.19.98-.94.98-6.74-.02-13.48-.02-20.21,0-.75,0-.97-.28-.94-.98.04-1.03,0-2.07,0-3.11v-9.6h-.02Z"/>
  <path class="cls-1" d="M261.84,151.98c0,3.24-.02,6.47.01,9.71,0,.76-.2,1.05-1.01,1.05-6.55-.03-13.11-.02-19.66,0-.74,0-.96-.26-.95-.98.02-6.55.02-13.11,0-19.66,0-.83.34-.99,1.07-.99,6.51.02,13.03.02,19.54,0,.8,0,1.02.27,1.02,1.04-.03,3.28-.01,6.55-.01,9.83h0Z"/>
</svg>